<?xml version="1.0" encoding="UTF-8"?><svg id="Layer_1" xmlns="http://www.w3.org/2000/svg" width="1920" height="1080" xmlns:xlink="http://www.w3.org/1999/xlink" viewBox="0 0 1920 1080"><defs><style>.cls-1{clip-path:url(#clippath-45);}.cls-2{clip-path:url(#clippath-20);}.cls-3{clip-path:url(#clippath-11);}.cls-4{clip-path:url(#clippath-16);}.cls-5,.cls-6{fill:#fff;}.cls-7{clip-path:url(#clippath-59);}.cls-8{fill:#00c;}.cls-8,.cls-9,.cls-10,.cls-11,.cls-12,.cls-13,.cls-14,.cls-15,.cls-16,.cls-17,.cls-18,.cls-19,.cls-20,.cls-21,.cls-22,.cls-23,.cls-24,.cls-25,.cls-6,.cls-26,.cls-27,.cls-28,.cls-29,.cls-30,.cls-31,.cls-32{stroke-miterlimit:10;}.cls-8,.cls-9,.cls-10,.cls-11,.cls-12,.cls-13,.cls-14,.cls-15,.cls-16,.cls-17,.cls-18,.cls-19,.cls-21,.cls-22,.cls-23,.cls-24,.cls-25,.cls-6,.cls-26,.cls-27,.cls-28,.cls-29,.cls-30,.cls-31,.cls-32{stroke:#000;}.cls-33{clip-path:url(#clippath-33);}.cls-34{clip-path:url(#clippath-47);}.cls-35{fill:#545353;}.cls-9{stroke-width:.69px;}.cls-9,.cls-10,.cls-11,.cls-12,.cls-14,.cls-16,.cls-17,.cls-18,.cls-19,.cls-20,.cls-21,.cls-22,.cls-23,.cls-25,.cls-36,.cls-26,.cls-27,.cls-28,.cls-31{fill:none;}.cls-11{stroke-width:1px;}.cls-37{clip-path:url(#clippath-41);}.cls-38{clip-path:url(#clippath-32);}.cls-12{stroke-width:1.93px;}.cls-39{clip-path:url(#clippath-2);}.cls-40{clip-path:url(#clippath-13);}.cls-41{clip-path:url(#clippath-37);}.cls-42{clip-path:url(#clippath-46);}.cls-43{clip-path:url(#clippath-25);}.cls-44{clip-path:url(#clippath-15);}.cls-45{clip-path:url(#clippath-6);}.cls-46{clip-path:url(#clippath-40);}.cls-47{clip-path:url(#clippath-26);}.cls-14{stroke-width:.73px;}.cls-15,.cls-48{fill:#d4145a;}.cls-15,.cls-18{stroke-width:3px;}.cls-49,.cls-30{fill:#e9967a;}.cls-50{clip-path:url(#clippath-7);}.cls-16{stroke-width:1.1px;}.cls-51{clip-path:url(#clippath-21);}.cls-52{clip-path:url(#clippath-34);}.cls-53{clip-path:url(#clippath-57);}.cls-54{clip-path:url(#clippath-1);}.cls-55{clip-path:url(#clippath-4);}.cls-56{clip-path:url(#clippath-38);}.cls-17{stroke-width:.56px;}.cls-57{clip-path:url(#clippath-36);}.cls-58{clip-path:url(#clippath-27);}.cls-59{clip-path:url(#clippath-44);}.cls-19{stroke-width:.8px;}.cls-20{stroke:#545353;stroke-width:.51px;}.cls-21{stroke-width:.76px;}.cls-60{clip-path:url(#clippath-12);}.cls-22{stroke-width:.65px;}.cls-61{clip-path:url(#clippath-24);}.cls-23{stroke-width:.69px;}.cls-62{clip-path:url(#clippath-30);}.cls-63{clip-path:url(#clippath-22);}.cls-24{fill:#080094;}.cls-25{stroke-width:.83px;}.cls-64{fill:lime;}.cls-65{clip-path:url(#clippath-9);}.cls-66{clip-path:url(#clippath-52);}.cls-67{clip-path:url(#clippath);}.cls-68{clip-path:url(#clippath-50);}.cls-69{clip-path:url(#clippath-48);}.cls-70{clip-path:url(#clippath-39);}.cls-71{clip-path:url(#clippath-19);}.cls-72{clip-path:url(#clippath-31);}.cls-73{clip-path:url(#clippath-54);}.cls-26{stroke-width:.49px;}.cls-74{clip-path:url(#clippath-3);}.cls-75{clip-path:url(#clippath-43);}.cls-76{clip-path:url(#clippath-8);}.cls-27{stroke-width:.61px;}.cls-77{clip-path:url(#clippath-55);}.cls-28{stroke-width:1.17px;}.cls-78{clip-path:url(#clippath-29);}.cls-79{clip-path:url(#clippath-18);}.cls-80{clip-path:url(#clippath-14);}.cls-81{clip-path:url(#clippath-17);}.cls-82{clip-path:url(#clippath-5);}.cls-83{clip-path:url(#clippath-58);}.cls-29{fill:#0000e0;}.cls-84{clip-path:url(#clippath-42);}.cls-85{clip-path:url(#clippath-10);}.cls-31{stroke-width:.58px;}.cls-86{clip-path:url(#clippath-23);}.cls-87{clip-path:url(#clippath-56);}.cls-88{clip-path:url(#clippath-53);}.cls-89{clip-path:url(#clippath-49);}.cls-90{clip-path:url(#clippath-51);}.cls-32{fill:#000894;}.cls-91{clip-path:url(#clippath-28);}.cls-92{clip-path:url(#clippath-35);}</style><clipPath id="clippath"><rect class="cls-36" x="1171" y="740" width="612.01" height="339.98"/></clipPath><clipPath id="clippath-1"><rect class="cls-36" x="1171" y="740" width="612.01" height="339.98"/></clipPath><clipPath id="clippath-2"><rect class="cls-36" x="1722" y="692" width="141" height="381.72"/></clipPath><clipPath id="clippath-3"><rect class="cls-36" x="1722" y="692" width="141" height="381.72"/></clipPath><clipPath id="clippath-4"><rect class="cls-36" x="69" y="883" width="421" height="159.15"/></clipPath><clipPath id="clippath-5"><rect class="cls-36" x="69" y="883" width="421" height="159.15"/></clipPath><clipPath id="clippath-6"><rect class="cls-36" x="477" y="883" width="133.8" height="132.85"/></clipPath><clipPath id="clippath-7"><rect class="cls-36" x="477" y="883" width="133.8" height="132.85"/></clipPath><clipPath id="clippath-8"><rect class="cls-36" x="155" y="968.1" width="50" height="36.9"/></clipPath><clipPath id="clippath-9"><rect class="cls-36" x="155" y="968.1" width="50" height="36.9"/></clipPath><clipPath id="clippath-10"><rect class="cls-36" x="180" y="987" width="29" height="9"/></clipPath><clipPath id="clippath-11"><rect class="cls-36" x="180" y="987" width="29" height="9"/></clipPath><clipPath id="clippath-12"><rect class="cls-36" x="100" y="1026" width="87" height="32"/></clipPath><clipPath id="clippath-13"><rect class="cls-36" x="100" y="1026" width="87" height="32"/></clipPath><clipPath id="clippath-14"><rect class="cls-36" x="1294" y="853" width="41" height="62"/></clipPath><clipPath id="clippath-15"><rect class="cls-36" x="1294" y="853" width="41" height="62"/></clipPath><clipPath id="clippath-16"><rect class="cls-36" x="1354" y="853" width="42" height="62"/></clipPath><clipPath id="clippath-17"><rect class="cls-36" x="1354" y="853" width="42" height="62"/></clipPath><clipPath id="clippath-18"><rect class="cls-36" x="1357" y="874.36" width="36" height="28.64"/></clipPath><clipPath id="clippath-19"><rect class="cls-36" x="1357" y="874.36" width="36" height="28.64"/></clipPath><clipPath id="clippath-20"><rect class="cls-36" x="1323" y="918" width="51.63" height="31"/></clipPath><clipPath id="clippath-21"><rect class="cls-36" x="1323" y="918" width="51.63" height="31"/></clipPath><clipPath id="clippath-22"><rect class="cls-36" x="1315" y="926" width="66" height="30"/></clipPath><clipPath id="clippath-23"><rect class="cls-36" x="1315" y="926" width="66" height="30"/></clipPath><clipPath id="clippath-24"><rect class="cls-36" x="1452" y="941" width="166" height="139.97"/></clipPath><clipPath id="clippath-25"><rect class="cls-36" x="1452" y="941" width="166" height="139.97"/></clipPath><clipPath id="clippath-26"><rect class="cls-36" x="1297" y="874" width="35.56" height="28.97"/></clipPath><clipPath id="clippath-27"><rect class="cls-36" x="1297" y="874" width="35.56" height="28.97"/></clipPath><clipPath id="clippath-28"><rect class="cls-36" x="68" y="63" width="61.54" height="80.95"/></clipPath><clipPath id="clippath-29"><rect class="cls-36" x="68" y="63" width="61.53" height="80.95"/></clipPath><clipPath id="clippath-30"><rect class="cls-36" x="774" y="865" width="220" height="192.05"/></clipPath><clipPath id="clippath-31"><rect class="cls-36" x="774" y="865" width="220" height="192.05"/></clipPath><clipPath id="clippath-32"><rect class="cls-36" x="851" y="928" width="66" height="67"/></clipPath><clipPath id="clippath-33"><rect class="cls-36" x="851" y="928" width="66" height="67"/></clipPath><clipPath id="clippath-34"><rect class="cls-36" x="923" y="914" width="61.54" height="53.99"/></clipPath><clipPath id="clippath-35"><rect class="cls-36" x="923" y="914" width="61.54" height="53.99"/></clipPath><clipPath id="clippath-36"><rect class="cls-36" x="868" y="871" width="61.54" height="53.99"/></clipPath><clipPath id="clippath-37"><rect class="cls-36" x="868" y="871" width="61.54" height="53.99"/></clipPath><clipPath id="clippath-38"><rect class="cls-36" x="800" y="891" width="61.54" height="53.99"/></clipPath><clipPath id="clippath-39"><rect class="cls-36" x="800" y="891" width="61.54" height="53.99"/></clipPath><clipPath id="clippath-40"><rect class="cls-36" x="784" y="961" width="61.54" height="53.99"/></clipPath><clipPath id="clippath-41"><rect class="cls-36" x="784" y="961" width="61.54" height="53.99"/></clipPath><clipPath id="clippath-42"><rect class="cls-36" x="846" y="1002" width="61.54" height="53.99"/></clipPath><clipPath id="clippath-43"><rect class="cls-36" x="846" y="1002" width="61.54" height="53.99"/></clipPath><clipPath id="clippath-44"><rect class="cls-36" x="911" y="975" width="61.54" height="53.99"/></clipPath><clipPath id="clippath-45"><rect class="cls-36" x="911" y="975" width="61.54" height="53.99"/></clipPath><clipPath id="clippath-46"><rect class="cls-36" x="1393" y="781" width="77" height="64"/></clipPath><clipPath id="clippath-47"><rect class="cls-36" x="1393" y="781" width="77" height="64"/></clipPath><clipPath id="clippath-48"><rect class="cls-36" x="1200" y="763" width="71" height="75"/></clipPath><clipPath id="clippath-49"><rect class="cls-36" x="1200" y="763" width="71" height="75"/></clipPath><clipPath id="clippath-50"><rect class="cls-36" x="1439" y="855" width="105.78" height="76"/></clipPath><clipPath id="clippath-51"><rect class="cls-36" x="1439" y="855" width="105.78" height="76"/></clipPath><clipPath id="clippath-52"><rect class="cls-36" x="1521" y="861" width="83" height="85"/></clipPath><clipPath id="clippath-53"><rect class="cls-36" x="1521" y="861" width="83" height="85"/></clipPath><clipPath id="clippath-54"><rect class="cls-36" x="1596" y="882" width="58.34" height="103.49"/></clipPath><clipPath id="clippath-55"><rect class="cls-36" x="1596" y="882" width="58.34" height="103.49"/></clipPath><clipPath id="clippath-56"><rect class="cls-36" x="1783" y="732" width="47.66" height="97.19"/></clipPath><clipPath id="clippath-57"><rect class="cls-36" x="1783" y="732" width="47.66" height="97.19"/></clipPath><clipPath id="clippath-58"><rect class="cls-36" x="1807" y="898" width="40" height="124"/></clipPath><clipPath id="clippath-59"><rect class="cls-36" x="1807" y="898" width="40" height="124"/></clipPath></defs><rect class="cls-64" x=".5" y=".5" width="1919" height="1079"/><path d="m1919,1v1078H1V1h1918m1-1H0v1080h1920V0h0Z"/><path class="cls-15" d="m717.25,197.48h-1.44c-1.93-12.43-5.14-22.53-9.64-30.29-4.5-7.76-9.76-11.64-15.77-11.64-4.65,0-8.52,2.44-11.61,7.31-3.09,4.88-5.49,11.36-7.2,19.44-1.71,8.09-2.9,16.84-3.56,26.27-.66,9.43-1,19.38-1,29.86,0,26,2.12,45.97,6.35,59.91,4.24,13.94,9.94,20.9,17.11,20.9,5.15,0,8.37-1.87,9.67-5.61,1.3-3.74,1.94-9.26,1.94-16.58v-20.72c0-4.14-.13-7.8-.4-10.97-.27-3.17-.96-6.07-2.07-8.72-1.11-2.64-2.8-4.12-5.06-4.45v-3.78h30.59v3.78c-4.48,1.46-6.73,8.17-6.73,20.11v43.76c-7.84,8.78-16.71,13.16-26.61,13.16-3.99,0-7.6-.67-10.84-2.01-3.24-1.34-6.12-3.21-8.64-5.61-2.52-2.4-4.65-5-6.38-7.8-1.73-2.8-3.36-5.95-4.88-9.45-2.09-4.88-3.96-10.48-5.61-16.82-1.64-6.34-2.99-13.71-4.04-22.12-1.05-8.41-1.57-17.65-1.57-27.73,0-13.57.99-25.96,2.96-37.18,1.98-11.21,4.77-20.94,8.4-29.19,3.62-8.25,7.76-14.52,12.43-18.83,4.67-4.31,9.59-6.46,14.77-6.46,2.92,0,5.45.49,7.57,1.46,2.13.98,5.7,3.09,10.71,6.34,1.59,1.3,3.32,1.95,5.18,1.95,1.96,0,3.25-3.17,3.89-9.51h1.44v51.19Z"/><path class="cls-15" d="m770.51,146.04l24.66,155.29c1.33,7.96,2.89,13.43,4.68,16.39,1.79,2.97,4,4.98,6.63,6.03v3.53h-34.78v-3.53c4.75-.65,7.12-4.31,7.12-10.97,0-1.06-.07-2.54-.22-4.45-.15-1.91-.35-3.94-.6-6.09-.25-2.15-.41-3.47-.47-3.96l-6.13-38.15h-21.92l-5.23,36.69c-.67,4.39-1,8.37-1,11.95,0,5.53.66,9.24,1.99,11.15,1.33,1.91,2.91,3.19,4.73,3.84v3.53h-22.02v-3.53c2.29-.57,4.43-3.19,6.43-7.86,1.99-4.67,3.92-13.27,5.78-25.78l20.83-144.08h9.52Zm-19.33,102.15h18.29l-9.47-60.46-8.82,60.46Z"/><path class="cls-15" d="m902.54,147.75v3.53c-1.93.33-3.51.91-4.76,1.77-1.25.85-2.28,2.8-3.11,5.85-.83,3.05-1.13,7.58-.9,13.59l4.04,120.55c.3,8.45.79,14.69,1.47,18.71.68,4.02,1.53,6.72,2.54,8.11,1.01,1.38,2.62,2.68,4.81,3.9v3.53h-33.68v-3.53c2.82-.16,5.04-1.99,6.65-5.49,1.61-3.49,2.25-10.4,1.92-20.72l-3.59-114.33h-.2l-23.97,144.08h-1.74l-24.71-139.32h-.2l-3.24,100.07c-.33,9.83-.05,17.37.85,22.61.9,5.24,2.08,8.65,3.56,10.24,1.48,1.58,3.2,2.54,5.16,2.86v3.53h-24.91v-3.53c3.16-.49,5.54-3.58,7.15-9.26,1.61-5.69,2.7-15.15,3.26-28.4l4.93-113.6c-3.09-12.11-7.31-19.18-12.66-21.21v-3.53h26.51l21.22,118.11,19.68-118.11h23.92Z"/><path class="cls-15" d="m961.83,147.75l.6,40.22h-1.45c-.67-6.74-1.4-12.31-2.22-16.7-.81-4.39-1.97-7.74-3.46-10.06-1.5-2.32-3.54-3.47-6.13-3.47h-14.8v75.45h11.81c3.52,0,6.09-1.91,7.7-5.73,1.61-3.82,2.55-9.47,2.82-16.94h1.44v52.66h-1.44c-.5-7.96-1.71-13.29-3.64-15.97-1.93-2.68-4.22-4.02-6.88-4.02h-11.81v51.68c0,14.95,3.16,22.43,9.47,22.43h4.48c3.02,0,5.49-.98,7.4-2.93,1.91-1.95,3.49-5.3,4.73-10.06s2.37-11.48,3.36-20.17h1.45l-1.1,43.15h-55.3v-3.53c3.85,0,6.34-2.13,7.47-6.4,1.13-4.27,1.69-9.85,1.69-16.76v-125.79c0-6.58-.52-12.15-1.54-16.7-1.03-4.55-3.41-6.83-7.12-6.83h-.5v-3.53h52.96Z"/><path class="cls-15" d="m1005.33,236.98c0-12.19.86-23.85,2.57-34.98,1.71-11.13,4.23-20.9,7.55-29.31,3.32-8.41,7.35-14.95,12.08-19.62,4.73-4.67,10.09-7.01,16.07-7.01s11.43,2.38,16.17,7.13,8.75,11.36,12.06,19.81c3.3,8.45,5.8,18.22,7.5,29.31,1.69,11.09,2.54,22.9,2.54,35.41s-.82,24.13-2.47,35.1-4.06,20.68-7.25,29.13c-3.19,8.45-7.2,15.11-12.03,19.99-4.83,4.88-10.31,7.31-16.42,7.31-6.58,0-12.32-2.74-17.21-8.23-4.9-5.49-8.9-12.74-12.01-21.76-3.11-9.02-5.41-18.97-6.9-29.86-1.49-10.89-2.24-21.7-2.24-32.42Zm17.44-2.32c0,12.19.37,24.2,1.12,36.02.75,11.82,2.68,22.88,5.8,33.15,3.12,10.28,7.82,15.42,14.1,15.42,8.8,0,14.44-8.67,16.92-26.02,2.47-17.35,3.71-35.04,3.71-53.08,0-14.06-.5-27.22-1.5-39.49-1-12.27-3.03-22.77-6.1-31.51-3.07-8.73-7.42-13.1-13.03-13.1-6.31,0-11.02,4.98-14.13,14.93-3.11,9.96-5.03,20.54-5.78,31.75-.75,11.21-1.12,21.86-1.12,31.94Z"/><path class="cls-15" d="m1155.25,147.75v3.53c-2.69.98-5.01,3.52-6.95,7.62-1.94,4.1-3.94,13.31-6,27.61l-20.83,142.73h-1.94l-25.01-154.19c-1.2-7.8-2.67-13.57-4.41-17.31-1.74-3.74-4.28-5.89-7.6-6.46v-3.53h33.53v3.53c-1.66.24-3.01.91-4.04,2.01-1.03,1.1-1.54,3.84-1.54,8.23,0,3.09.43,7.27,1.3,12.55l14.3,88.62,11.41-78.5c.96-6.26,1.45-11.9,1.45-16.94,0-2.84-.45-6.01-1.35-9.51-.9-3.49-2.92-5.65-6.08-6.46v-3.53h23.77Z"/><path class="cls-15" d="m1211,147.75l.6,40.22h-1.45c-.67-6.74-1.4-12.31-2.22-16.7-.81-4.39-1.97-7.74-3.46-10.06-1.5-2.32-3.54-3.47-6.13-3.47h-14.8v75.45h11.81c3.52,0,6.09-1.91,7.7-5.73,1.61-3.82,2.55-9.47,2.81-16.94h1.45v52.66h-1.45c-.5-7.96-1.71-13.29-3.64-15.97-1.93-2.68-4.22-4.02-6.88-4.02h-11.81v51.68c0,14.95,3.16,22.43,9.47,22.43h4.48c3.02,0,5.49-.98,7.4-2.93s3.49-5.3,4.73-10.06c1.25-4.75,2.37-11.48,3.36-20.17h1.45l-1.1,43.15h-55.3v-3.53c3.85,0,6.34-2.13,7.47-6.4s1.69-9.85,1.69-16.76v-125.79c0-6.58-.52-12.15-1.54-16.7-1.03-4.55-3.41-6.83-7.12-6.83h-.5v-3.53h52.96Z"/><path class="cls-15" d="m1245.48,243.19h-2.34v57.41c0,6.83.41,11.93,1.25,15.3.83,3.37,1.84,5.53,3.04,6.46,1.2.94,2.79,1.48,4.78,1.65v3.29h-34.48v-3.53c3.85,0,6.33-2.11,7.42-6.34,1.1-4.22,1.64-9.83,1.64-16.82v-125.79c0-8.61-.71-14.69-2.14-18.22-1.43-3.54-3.74-5.3-6.92-5.3v-3.53h38.07c5.01,0,9.42,1.91,13.2,5.73,3.79,3.82,6.68,9.22,8.67,16.21,1.99,6.99,2.99,14.99,2.99,24.01,0,7.31-.63,13.82-1.89,19.5-1.26,5.69-2.96,10.36-5.11,14.02-2.14,3.66-4.53,6.46-7.15,8.41,3.42,5.28,6.74,14.63,9.96,28.04l8.77,36.45c1.5,6.26,2.87,11.11,4.14,14.57,1.26,3.45,2.37,5.73,3.34,6.83.96,1.1,2.01,1.85,3.14,2.26v3.53h-23.67c-2.29-10.16-4.05-18.24-5.28-24.26-3.92-18.77-6.78-31.81-8.57-39.13-1.79-7.31-3.65-12.59-5.56-15.85-1.91-3.25-4.34-4.88-7.3-4.88Zm1.64-85.45h-3.99v75.45h3.34c5.71,0,10.01-3.35,12.9-10.06s4.33-16.35,4.33-28.95c0-7.8-.62-14.4-1.87-19.81-1.25-5.4-3.11-9.53-5.58-12.37-2.47-2.84-5.52-4.27-9.14-4.27Z"/><g id="Artwork_1"><g class="cls-67"><g class="cls-54"><path class="cls-5" d="m1781.85,980.52c-11.32-38.52,10.45-16.59-11.32-38.52-21.77-21.92,19.16-7.31-27-27.77-46.15-20.46,20.03-4.39-46.15-20.46-66.18-16.08-12.19-2.19-66.18-16.08-8.94-2.3-14.82-3.68-18.67-4.46-7.02,2.61-14.76-1.09-21.26-3.46-1.07-.39-1.58-1.03-1.7-1.73-3.37-1.16-7.44-2.55-12.35-4.24-57.48-19.73-20.9.73-57.48-19.73-36.58-20.46-25.25,3.65-36.58-20.46-11.32-24.12,1.74-4.39-11.32-28.5-13.06-24.12,0-12.42-13.06-24.12-13.06-11.69,25.25-28.5-13.06-11.69-38.32,16.81-9.58.73-38.32,16.81-14.54,8.13-21.72,12.15-25.27,14.14-3.36-.48-7.64-1.04-13.05-1.71-47.03-5.85,2.61-8.04-47.03-5.85-49.64,2.19-35.7,24.12-49.64,2.19-13.93-21.93,2.61-6.58-13.93-21.93-16.55-15.35,12.19-32.89-16.55-15.35-28.74,17.54-10.45-8.04-28.74,17.54-18.29,25.58-12.19-4.38-18.29,25.58-6.1,29.96,4.35,0-6.1,29.96-10.45,29.96-9.58,26.31-10.45,29.96-.87,3.65-14.8-19.73-.87,3.65l15.68,27.04c25.25,20.46-13.06-6.58,25.25,20.46,38.32,27.04.87,4.39,38.32,27.04,37.45,22.66-1.74-2.19,37.45,22.66,39.19,24.85,3.48.73,39.19,24.85,35.7,24.12,4.35-6.58,35.7,24.12,31.35,30.7,20.03,4.38,31.35,30.7,11.32,26.31,11.32,10.23,11.32,26.31s-92.31,16.81,0,16.08c92.31-.73-14.8,1.46,92.31-.73,107.11-2.19,33.09,0,107.11-2.19,74.02-2.19,13.06-.73,74.02-2.19,60.96-1.46,48.77,27.04,60.96-1.46,2.07-4.83,10.16-17.11,18.21-31.4,10.75-19.08,21.4-41.75,17.49-55.05"/><path class="cls-27" d="m1781.85,980.52c-11.32-38.52,10.45-16.59-11.32-38.52-21.77-21.92,19.16-7.31-27-27.77-46.15-20.46,20.03-4.39-46.15-20.46-66.18-16.08-12.19-2.19-66.18-16.08-8.94-2.3-14.82-3.68-18.67-4.46-7.02,2.61-14.76-1.09-21.26-3.46-1.07-.39-1.58-1.03-1.7-1.73-3.37-1.16-7.44-2.55-12.35-4.24-57.48-19.73-20.9.73-57.48-19.73-36.58-20.46-25.25,3.65-36.58-20.46-11.32-24.12,1.74-4.39-11.32-28.5-13.06-24.12,0-12.42-13.06-24.12-13.06-11.69,25.25-28.5-13.06-11.69-38.32,16.81-9.58.73-38.32,16.81-14.54,8.13-21.72,12.15-25.27,14.14-3.36-.48-7.64-1.04-13.05-1.71-47.03-5.85,2.61-8.04-47.03-5.85-49.64,2.19-35.7,24.12-49.64,2.19-13.93-21.93,2.61-6.58-13.93-21.93-16.55-15.35,12.19-32.89-16.55-15.35-28.74,17.54-10.45-8.04-28.74,17.54-18.29,25.58-12.19-4.38-18.29,25.58-6.1,29.96,4.35,0-6.1,29.96-10.45,29.96-9.58,26.31-10.45,29.96-.87,3.65-14.8-19.73-.87,3.65l15.68,27.04c25.25,20.46-13.06-6.58,25.25,20.46,38.32,27.04.87,4.39,38.32,27.04,37.45,22.66-1.74-2.19,37.45,22.66,39.19,24.85,3.48.73,39.19,24.85,35.7,24.12,4.35-6.58,35.7,24.12,31.35,30.7,20.03,4.38,31.35,30.7,11.32,26.31,11.32,10.23,11.32,26.31s-92.31,16.81,0,16.08c92.31-.73-14.8,1.46,92.31-.73,107.11-2.19,33.09,0,107.11-2.19,74.02-2.19,13.06-.73,74.02-2.19,60.96-1.46,48.77,27.04,60.96-1.46,2.07-4.83,10.16-17.11,18.21-31.4,10.75-19.08,21.4-41.75,17.49-55.05Z"/></g></g></g><g id="Artwork_12"><g class="cls-39"><g class="cls-74"><path class="cls-5" d="m1739.26,1071.22s-40.59,4.8,3.8,0c44.39-4.8,13.01,3.84,44.39-4.8,31.38-8.64,8.42,24.95,31.38-8.64,22.96-33.59,9.18,5.76,22.96-33.59,13.78-39.35,13.78,7.68,13.78-39.35s16.07,6.72,0-47.02c-16.07-53.74-.77,4.8-16.07-53.74-15.31-58.54-22.96-8.64-15.31-58.54,7.65-49.9-11.48-13.44,7.65-49.9,19.13-36.47,22.2,2.88,19.13-36.47-3.06-39.35,16.84-36.47-3.06-39.35-19.9-2.88,3.06-13.43-19.9-2.88-22.96,10.56-6.12-9.6-22.96,10.56-16.84,20.15-4.59-11.52-16.84,20.15-12.25,31.67-9.18-13.43-12.25,31.67-3.06,45.1-17.6-8.64-3.06,45.1,14.54,53.74-.9-1.71,14.54,53.74,16.84,60.46,15.31,12.48,16.84,60.46,1.53,47.98,3.06,11.52,1.53,47.98-1.53,36.47,12.25,17.27-1.53,36.47-13.78,19.19,8.42,13.43-13.78,19.19-22.2,5.76-9.15,3.81-22.2,5.76-13.05,1.95-2.37-30.65-13.05,1.95-10.68,32.6-5.35,23.96-10.68,32.6"/><path class="cls-22" d="m1739.26,1071.22s-40.59,4.8,3.8,0c44.39-4.8,13.01,3.84,44.39-4.8,31.38-8.64,8.42,24.95,31.38-8.64,22.96-33.59,9.18,5.76,22.96-33.59,13.78-39.35,13.78,7.68,13.78-39.35s16.07,6.72,0-47.02c-16.07-53.74-.77,4.8-16.07-53.74-15.31-58.54-22.96-8.64-15.31-58.54,7.65-49.9-11.48-13.44,7.65-49.9,19.13-36.47,22.2,2.88,19.13-36.47-3.06-39.35,16.84-36.47-3.06-39.35-19.9-2.88,3.06-13.43-19.9-2.88-22.96,10.56-6.12-9.6-22.96,10.56-16.84,20.15-4.59-11.52-16.84,20.15-12.25,31.67-9.18-13.43-12.25,31.67-3.06,45.1-17.6-8.64-3.06,45.1,14.54,53.74-.9-1.71,14.54,53.74,16.84,60.46,15.31,12.48,16.84,60.46,1.53,47.98,3.06,11.52,1.53,47.98-1.53,36.47,12.25,17.27-1.53,36.47-13.78,19.19,8.42,13.43-13.78,19.19-22.2,5.76-9.15,3.81-22.2,5.76-13.05,1.95-2.37-30.65-13.05,1.95-10.68,32.6-5.35,23.96-10.68,32.6"/></g></g></g><g id="Artwork_5"><g class="cls-55"><g class="cls-82"><path class="cls-35" d="m479.67,965.06l-38.72-26.03-54.49-11.16-52.34,3.72-43.74,15.49,4.3-5.1,6.45-14.74-10.75-25.41-12.91-8.68-37.28-9.92-34.42,9.3-23.66,22.31,6.45,34.09,27.25,12.4-18.64-4.96-41.58,6.2-27.96,13.02s-22.94,30.37-58.08,40.91l13.64,9.43,10.75,7.44.12.02c-1.74-1.41-.25-4.63,2.67-4.02,3.39.71,6.8,1.38,10.21,2.02.53-.26,1.2-.34,1.98-.16.62.15,1.23.31,1.84.49,1.51.39,3.02.76,4.52,1.16,1.53.26,3.06.5,4.6.74,0-.04.01-.08.02-.11.44-2.42,3.95-2.06,5.01-.26,5.68-.42,11.22.13,16.63,1.35,1.11-2.2,5.56-1.96,5.25.78-.01.13-.03.26-.05.4,4.42-.51,8.82-.1,12.77,1.54,2-.37,4.01-.76,6.04-1.12,1.68-.3,2.89.64,3.29,1.75.82,0,1.64.02,2.46.03,2.62,0,3.29,2.61,2.03,3.95h81.21l36.57-2.48,76,2.48h81.02l21.51-14.87,3.9-4.76,8.29-10.11,7.89-15.49-10.04-31.61Z"/><path class="cls-20" d="m479.67,965.06l-38.72-26.03-54.49-11.16-52.34,3.72-43.74,15.49,4.3-5.1,6.45-14.74-10.75-25.41-12.91-8.68-37.28-9.92-34.42,9.3-23.66,22.31,6.45,34.09,27.25,12.4-18.64-4.96-41.58,6.2-27.96,13.02s-22.94,30.37-58.08,40.91l13.64,9.43,10.75,7.44.12.02c-1.74-1.41-.25-4.63,2.67-4.02,3.39.71,6.8,1.38,10.21,2.02.53-.26,1.2-.34,1.98-.16.62.15,1.23.31,1.84.49,1.51.39,3.02.76,4.52,1.16,1.53.26,3.06.5,4.6.74,0-.04.01-.08.02-.11.44-2.42,3.95-2.06,5.01-.26,5.68-.42,11.22.13,16.63,1.35,1.11-2.2,5.56-1.96,5.25.78-.01.13-.03.26-.05.4,4.42-.51,8.82-.1,12.77,1.54,2-.37,4.01-.76,6.04-1.12,1.68-.3,2.89.64,3.29,1.75.82,0,1.64.02,2.46.03,2.62,0,3.29,2.61,2.03,3.95h81.21l36.57-2.48,76,2.48h81.02l21.51-14.87,3.9-4.76,8.29-10.11,7.89-15.49-10.04-31.61Z"/></g></g></g><g id="Artwork_11"><g class="cls-45"><g class="cls-50"><path class="cls-49" d="m480.03,994.98c18.8.17,36.91-6.47,54.53-13.02,15.45-5.74,31.5-11.88,42.68-24,7.27-7.89,11.94-17.77,16.43-27.51,6.59-14.3,13.08-28.83,16.11-44.28,3.01,24.31-7.68,48-18.1,70.17-3.74,7.95-8.08,16.51-16.08,20.13-3.86,1.75-8.22,2.14-12.1,3.84-8.68,3.81-13.33,13.28-20.85,19.05-7.29,5.6-16.73,7.36-25.79,8.96l-39.36,6.93c0-6.49,2.53-13.78,2.53-20.27"/><path class="cls-10" d="m480.03,994.98c18.8.17,36.91-6.47,54.53-13.02,15.45-5.74,31.5-11.88,42.68-24,7.27-7.89,11.94-17.77,16.43-27.51,6.59-14.3,13.08-28.83,16.11-44.28,3.01,24.31-7.68,48-18.1,70.17-3.74,7.95-8.08,16.51-16.08,20.13-3.86,1.75-8.22,2.14-12.1,3.84-8.68,3.81-13.33,13.28-20.85,19.05-7.29,5.6-16.73,7.36-25.79,8.96l-39.36,6.93c0-6.49,2.53-13.78,2.53-20.27Z"/></g></g></g><g id="Artwork_8"><g class="cls-76"><g class="cls-65"><path class="cls-5" d="m204.65,986.55c0,9.65-11.04,17.48-24.65,17.48s-24.65-7.83-24.65-17.48,11.04-17.48,24.65-17.48,24.65,7.83,24.65,17.48"/><ellipse class="cls-28" cx="180" cy="986.55" rx="24.65" ry="17.48"/></g></g></g><g id="Artwork_9"><g class="cls-85"><g class="cls-3"><path d="m208.5,991.5c0,2.21-6.27,4-14,4s-14-1.79-14-4,6.27-4,14-4,14,1.79,14,4"/><ellipse class="cls-10" cx="194.5" cy="991.5" rx="14" ry="4"/></g></g></g><path class="cls-13" d="m94.92,1027.01c4.86,4.68,10.57,8.48,16.76,11.15,2.6,1.12,6.86,1.08,6.94-1.75-4.94,2.99-11.88,2.1-15.92-2.03,16.44,2.62,33.36,2.18,49.64-1.28,14.41-3.07,28.3-8.49,41.07-15.84-4.1,6.19-8.7,12.23-14.78,16.5s-13.87,6.6-21.06,4.74c-3.75-.97-7.29-3.04-11.16-3.06-3.99-.02-7.61,2.12-11.31,3.6-7.66,3.04-16.1,3.28-24.35,3.47-3.53.08-7.25.12-10.32-1.62s-5.04-5.92-3.17-8.91c22.82,1.11,45.75.24,68.42-2.62,5.15-.65,10.42-1.44,14.98-3.92,4.56-2.48,8.34-7.02,8.51-12.21,1.86,2.48.83,6.24-1.41,8.37s-5.36,3.04-8.34,3.88c-17.8,5-35.61,10.01-53.41,15.01-11.66,3.28-24.53,6.48-35.51,1.36,14.95-2.15,30.08-2.99,45.17-2.5,5.6.18,11.3.54,16.73-.85,6.07-1.55,11.39-5.16,17.24-7.39,5.89-2.25,12.27-3.07,18.11-5.45,5.84-2.38,11.43-6.91,12.46-13.14-14.23,2.62-25.56,13.67-39.48,17.63-14.72,4.18-30.98.05-45.46,5.02"/><g id="Artwork_10"><g class="cls-60"><g class="cls-40"><path class="cls-5" d="m181.91,1026.32c21.4,21.19-40.03,15.19-52.39,16.97,1.22,3.64,2.77,7.31,3.6,11.07-8.36-7.02-24.45-5.79-31.13,2.37-1.37-5.84-1.73-11.84-1.08-17.76,8.35,0,15.79-2.19,24.14-2.19,4.23,5.79,4.49,11.94,5.68,18.55,9.62.61,20.98.62,26.77-5.77,1.76-1.94,2.71-4.19,3.21-6.57"/><path class="cls-16" d="m181.91,1026.32c21.4,21.19-40.03,15.19-52.39,16.97,1.22,3.64,2.77,7.31,3.6,11.07-8.36-7.02-24.45-5.79-31.13,2.37-1.37-5.84-1.73-11.84-1.08-17.76,8.35,0,15.79-2.19,24.14-2.19,4.23,5.79,4.49,11.94,5.68,18.55,9.62.61,20.98.62,26.77-5.77,1.76-1.94,2.71-4.19,3.21-6.57"/></g></g></g><ellipse class="cls-49" cx="241.5" cy="924.5" rx="54" ry="31"/><path d="m241.5,894c29.5,0,53.5,13.68,53.5,30.5s-24,30.5-53.5,30.5-53.5-13.68-53.5-30.5,24-30.5,53.5-30.5m0-1c-30.1,0-54.5,14.1-54.5,31.5s24.4,31.5,54.5,31.5,54.5-14.1,54.5-31.5-24.4-31.5-54.5-31.5h0Z"/><ellipse class="cls-49" cx="93" cy="1015.5" rx="23.5" ry="6"/><path d="m93,1010c14.25,0,23,3.2,23,5.5s-8.75,5.5-23,5.5-23-3.2-23-5.5,8.75-5.5,23-5.5m0-1c-13.25,0-24,2.91-24,6.5s10.75,6.5,24,6.5,24-2.91,24-6.5-10.75-6.5-24-6.5h0Z"/><g id="Artwork_13"><g class="cls-80"><g class="cls-44"><path d="m1334.66,884c0,16.93-9.02,30.66-20.16,30.66s-20.16-13.72-20.16-30.66,9.02-30.66,20.16-30.66,20.16,13.72,20.16,30.66"/><path class="cls-9" d="m1334.66,884c0,16.93-9.02,30.66-20.16,30.66s-20.16-13.72-20.16-30.66,9.02-30.66,20.16-30.66,20.16,13.72,20.16,30.66Z"/></g></g></g><g id="Artwork_13-2"><g class="cls-4"><g class="cls-81"><path d="m1395.65,884c0,16.93-9.24,30.66-20.65,30.66s-20.65-13.72-20.65-30.66,9.24-30.66,20.65-30.66,20.65,13.72,20.65,30.66"/><path class="cls-23" d="m1395.65,884c0,16.93-9.24,30.66-20.65,30.66s-20.65-13.72-20.65-30.66,9.24-30.66,20.65-30.66,20.65,13.72,20.65,30.66Z"/></g></g></g><g id="Artwork_14"><g class="cls-79"><g class="cls-71"><path class="cls-5" d="m1363.41,902.13c-5.91-3.65-7.52-12.15-4.2-18.16,3.32-6.01,10.61-9.34,17.6-9.11,5.83.2,11.86,2.96,14.51,8.04,2.65,5.08.71,12.36-4.71,14.47-2.94,1.14-6.28.69-9.31,1.57-3.19.93-5.93,3.31-9.25,3.55-3.32.24-6.82-3.97-4.27-6.06"/><path class="cls-11" d="m1363.41,902.13c-5.91-3.65-7.52-12.15-4.2-18.16,3.32-6.01,10.61-9.34,17.6-9.11,5.83.2,11.86,2.96,14.51,8.04,2.65,5.08.71,12.36-4.71,14.47-2.94,1.14-6.28.69-9.31,1.57-3.19.93-5.93,3.31-9.25,3.55-3.32.24-6.82-3.97-4.27-6.06"/></g></g></g><g id="Artwork_15"><g class="cls-2"><g class="cls-51"><path d="m1352.8,947.55c-.88.35-1.77.68-2.69.99-3.32-6.42-11.3-10.95-18.54-15.83-2.68-1.81-5.66-3.53-7.33-5.79-1.67-2.26-.35-6.91,2.53-8.59h45.82c5.51,0-5.33,19.51-6.96,21.08-11.89,11.44-18.5,4.24-28.31-4.57-5.27-4.73-9.55-10.23-9.49-16.05"/><path class="cls-19" d="m1352.8,947.55c-.88.35-1.77.68-2.69.99-3.32-6.42-11.3-10.95-18.54-15.83-2.68-1.81-5.66-3.53-7.33-5.79-1.67-2.26-.35-6.91,2.53-8.59h45.82c5.51,0-5.33,19.51-6.96,21.08-11.89,11.44-18.5,4.24-28.31-4.57-5.27-4.73-9.55-10.23-9.49-16.05"/></g></g></g><g id="Artwork_16"><g class="cls-63"><g class="cls-86"><path d="m1371.47,932.64c3.42.65,6.76,3.05,8.37,6.96,1.61,3.91,1.06,9.33-1.71,11.97-1.07,1.02-2.36,1.58-3.64,2.04-4.22,1.52-8.62,2.21-13,2.04-7.33-.3-14.88-3.28-19.94-10.07-.21-.28-.43-.58-.71-.74-1.21-.69-2.13,1.42-2.78,2.9-1.23,2.81-3.68,4.47-6.15,5.1-5.17,1.33-10.85-1.46-13.99-6.88-3.14-5.42-3.57-13.18-1.06-19.11,1.45,6.36,2.94,11.36,6.65,16,3.8,4.77,9.58,8.31,14.39,5.39,1.38-.84,2.58-2.18,3.41-3.82,7.09,5.41,15.81,7,24.06,7.05,1.74.01,3.55-.13,5.05-1.25,3.96-2.96,2.7-12.11,1.04-17.57"/><path class="cls-31" d="m1371.47,932.64c3.42.65,6.76,3.05,8.37,6.96,1.61,3.91,1.06,9.33-1.71,11.97-1.07,1.02-2.36,1.58-3.64,2.04-4.22,1.52-8.62,2.21-13,2.04-7.33-.3-14.88-3.28-19.94-10.07-.21-.28-.43-.58-.71-.74-1.21-.69-2.13,1.42-2.78,2.9-1.23,2.81-3.68,4.47-6.15,5.1-5.17,1.33-10.85-1.46-13.99-6.88-3.14-5.42-3.57-13.18-1.06-19.11,1.45,6.36,2.94,11.36,6.65,16,3.8,4.77,9.58,8.31,14.39,5.39,1.38-.84,2.58-2.18,3.41-3.82,7.09,5.41,15.81,7,24.06,7.05,1.74.01,3.55-.13,5.05-1.25,3.96-2.96,2.7-12.11,1.04-17.57Z"/></g></g></g><g id="Artwork_17"><g class="cls-61"><g class="cls-43"><path d="m1587.1,1074.54c-.85-7.95-1.77-16.13-5.19-23.12-3.66-7.48-9.81-12.86-15.79-18.02-5.14-4.44-10.34-8.91-16.19-11.99-4.88-2.58-10.12-4.13-15.31-5.78-25.22-8.03-49.8-18.56-73.79-30.55-1.89-.95-3.82-1.93-5.34-3.54-6.14-6.5-2.4-18.09,1.69-26.44,3.29-6.71,8.05-14.38,14.75-13.76,5.21.49,8.88,5.92,11.63,11.02-8.93-7.52-23.08-.77-26.74,11.22-.3.99-.54,2.08-.28,3.09.41,1.57,1.84,2.42,3.12,3.15,10.38,5.99,18.92,15.66,29.44,21.31,25.49,13.68,59.3,2.33,80.86,23.07,3.63,3.49,6.72,7.77,10.82,10.5,5.15,3.42,11.5,4.12,16.32,8.12,3.67,3.05,6.03,7.68,8.3,12.17,5.67,11.26,11.47,23.01,12.33,35.97-.07-2.93-.15-5.87-.22-8.8-10.71,0-19.71,2.39-30.41,2.39"/><path class="cls-17" d="m1587.1,1074.54c-.85-7.95-1.77-16.13-5.19-23.12-3.66-7.48-9.81-12.86-15.79-18.02-5.14-4.44-10.34-8.91-16.19-11.99-4.88-2.58-10.12-4.13-15.31-5.78-25.22-8.03-49.8-18.56-73.79-30.55-1.89-.95-3.82-1.93-5.34-3.54-6.14-6.5-2.4-18.09,1.69-26.44,3.29-6.71,8.05-14.38,14.75-13.76,5.21.49,8.88,5.92,11.63,11.02-8.93-7.52-23.08-.77-26.74,11.22-.3.99-.54,2.08-.28,3.09.41,1.57,1.84,2.42,3.12,3.15,10.38,5.99,18.92,15.66,29.44,21.31,25.49,13.68,59.3,2.33,80.86,23.07,3.63,3.49,6.72,7.77,10.82,10.5,5.15,3.42,11.5,4.12,16.32,8.12,3.67,3.05,6.03,7.68,8.3,12.17,5.67,11.26,11.47,23.01,12.33,35.97-.07-2.93-.15-5.87-.22-8.8-10.71,0-19.71,2.39-30.41,2.39Z"/></g></g></g><g id="Artwork_14-2"><g class="cls-47"><g class="cls-58"><path class="cls-5" d="m1303.33,874.88c-5.84,3.7-7.43,12.29-4.15,18.37,3.28,6.08,10.48,9.45,17.38,9.21,5.76-.2,11.72-3,14.33-8.13,2.62-5.13.7-12.51-4.66-14.63-2.9-1.15-6.21-.7-9.2-1.59-3.15-.94-5.86-3.34-9.14-3.59-3.28-.24-6.74,4.02-4.22,6.14"/><path class="cls-10" d="m1303.33,874.88c-5.84,3.7-7.43,12.29-4.15,18.37,3.28,6.08,10.48,9.45,17.38,9.21,5.76-.2,11.72-3,14.33-8.13,2.62-5.13.7-12.51-4.66-14.63-2.9-1.15-6.21-.7-9.2-1.59-3.15-.94-5.86-3.34-9.14-3.59-3.28-.24-6.74,4.02-4.22,6.14"/></g></g></g><rect class="cls-30" x="44.5" y="48.5" width="99" height="99"/><g id="Artwork_25"><g class="cls-91"><g class="cls-78"><path class="cls-48" d="m100.09,74.6h21.83v1.02c-2.79.19-5.49,1.11-8.1,2.78-2.61,1.66-4.95,3.57-7.01,5.73l-9.35,9.63,21.38,26.02c2.95,3.56,5.71,5.43,8.26,5.59v1.02h-24.05v-1.02c.84-.09,1.56-.28,2.14-.54.59-.27.88-.73.88-1.39s-.48-1.57-1.44-2.74l-16.03-19.72h-.21v17.72c0,2.41.51,4.13,1.53,5.15s2.64,1.53,4.87,1.53v1.02h-24.33v-1.02c2.72,0,4.46-.61,5.24-1.83.77-1.22,1.16-2.84,1.16-4.85v-36.35c0-2.34-.45-4.06-1.35-5.15-.9-1.09-2.58-1.63-5.04-1.63v-.95h24.33v1.02c-2.7,0-4.44.62-5.22,1.85-.79,1.23-1.18,2.85-1.18,4.87v16.91l15.33-16.14c1.52-1.78,2.29-3.25,2.29-4.39,0-2.06-1.97-3.09-5.91-3.09v-1.02Z"/><path class="cls-18" d="m100.09,75.62c3.94,0,5.91,1.03,5.91,3.09,0,1.15-.76,2.61-2.28,4.39l-15.33,16.14v-16.91c0-2.02.39-3.64,1.18-4.87.78-1.23,2.53-1.85,5.22-1.85v-1.02h-24.33v.95c2.46,0,4.14.55,5.05,1.63.9,1.09,1.35,2.81,1.35,5.15v36.35c0,2.02-.39,3.63-1.16,4.85-.77,1.22-2.52,1.83-5.24,1.83v1.02h24.33v-1.02c-2.23,0-3.85-.51-4.87-1.53-1.02-1.02-1.53-2.74-1.53-5.15v-17.72h.21l16.03,19.72c.96,1.17,1.44,2.09,1.44,2.74s-.29,1.12-.88,1.39c-.59.27-1.3.45-2.15.54v1.02h24.05v-1.02c-2.56-.16-5.31-2.03-8.26-5.59l-21.38-26.01,9.35-9.63c2.06-2.16,4.4-4.07,7.01-5.73,2.61-1.66,5.31-2.59,8.1-2.78v-1.02h-21.83v1.02Z"/></g></g></g><path class="cls-6" d="m1312.89,893.99c-1.57-1.23-4.09-.98-5.39.53,1.12,2.68,4.12,4.44,7.01,4.11,2.27-4.86,4.54-9.71,6.81-14.57-2.52,3.59-4.38,7.64-5.45,11.89-2.57-.65-4.89-2.21-6.47-4.34"/><path class="cls-13" d="m1372.87,894.04c2.13,2.17,4.26,4.34,6.39,6.51-3.43-2.78-4.63-7.98-2.77-11.99.53,8.02-5.01,16.05-12.7,18.4-.72-6.81,8.18-12.41,14.01-8.82.59.99.52,2.34-.18,3.26-2.63.86-5.65.45-7.95-1.1"/><path class="cls-8" d="m1310.34,903.54c-3.68,9.12-4.65,19.32-2.75,28.97,6.14.69,9.1-7.95,7.11-13.8-1.99-5.85-6.56-10.86-7.06-17.02"/><path class="cls-29" d="m1370.69,890.44c.9,12.56,5.75,24.8,13.69,34.58,1.14,1.4,2.53,2.85,4.33,2.96,3.35.19,4.98-4.58,3.43-7.56s-4.76-4.62-7.46-6.62c-5.7-4.22-9.62-10.76-10.66-17.78"/><path class="cls-24" d="m1402.31,949.38c-2.54-2.99-4.16-6.75-4.57-10.65-.52,8.92,9.25,14.63,13.25,22.62,3.63,7.25,2.51,16.6,7.63,22.88-1.15-7.55-12.25-8.25-17.01-14.22-5.55-6.97-.26-17.42-2.44-26.06"/><path class="cls-32" d="m1319.19,961.57c6.65,10.6,15.78,19.62,26.46,26.14-1.79-6.13-3.68-12.48-7.88-17.3-4.19-4.82-11.37-7.67-17.14-4.93"/><g id="Artwork_2"><g class="cls-62"><g class="cls-72"><path class="cls-5" d="m994,961.03c0,53.03-49.25,96.03-110,96.03s-110-42.99-110-96.03,49.25-96.03,110-96.03,110,42.99,110,96.03"/></g></g></g><g id="Artwork_7"><g class="cls-38"><polygon points="852.07 953.86 861.64 986.28 893.57 993.92 915.93 969.14 906.36 936.72 874.43 929.08 852.07 953.86"/><g class="cls-33"><polygon class="cls-12" points="893.57 993.92 861.64 986.28 852.07 953.86 874.43 929.08 906.36 936.72 915.93 969.14 893.57 993.92"/></g></g></g><g id="Artwork_6"><g class="cls-52"><polygon points="938.09 915.18 923.58 941.67 939.26 967.48 969.45 966.8 983.97 940.32 968.28 914.51 938.09 915.18"/><g class="cls-92"><polygon class="cls-10" points="969.45 966.8 939.26 967.48 923.58 941.67 938.09 915.18 968.28 914.51 983.97 940.32 969.45 966.8"/></g></g></g><g id="Artwork_6-2"><g class="cls-57"><polygon points="883.09 872.18 868.58 898.67 884.26 924.48 914.45 923.8 928.97 897.32 913.28 871.51 883.09 872.18"/><g class="cls-41"><polygon class="cls-10" points="914.45 923.8 884.26 924.48 868.58 898.67 883.09 872.18 913.28 871.51 928.97 897.32 914.45 923.8"/></g></g></g><g id="Artwork_6-3"><g class="cls-56"><polygon points="815.09 892.18 800.58 918.67 816.26 944.48 846.45 943.8 860.97 917.32 845.28 891.51 815.09 892.18"/><g class="cls-70"><polygon class="cls-10" points="846.45 943.8 816.26 944.48 800.58 918.67 815.09 892.18 845.28 891.51 860.97 917.32 846.45 943.8"/></g></g></g><g id="Artwork_6-4"><g class="cls-46"><polygon points="799.09 962.18 784.58 988.67 800.26 1014.48 830.45 1013.8 844.97 987.32 829.28 961.51 799.09 962.18"/><g class="cls-37"><polygon class="cls-10" points="830.45 1013.8 800.26 1014.48 784.58 988.67 799.09 962.18 829.28 961.51 844.97 987.32 830.45 1013.8"/></g></g></g><g id="Artwork_6-5"><g class="cls-84"><polygon points="861.09 1003.18 846.58 1029.67 862.26 1055.48 892.45 1054.8 906.97 1028.32 891.28 1002.51 861.09 1003.18"/><g class="cls-75"><polygon class="cls-10" points="892.45 1054.8 862.26 1055.48 846.58 1029.67 861.09 1003.18 891.28 1002.51 906.97 1028.32 892.45 1054.8"/></g></g></g><g id="Artwork_6-6"><g class="cls-59"><polygon points="926.09 976.18 911.58 1002.67 927.26 1028.48 957.45 1027.8 971.97 1001.32 956.28 975.51 926.09 976.18"/><g class="cls-1"><polygon class="cls-10" points="957.45 1027.8 927.26 1028.48 911.58 1002.67 926.09 976.18 956.28 975.51 971.97 1001.32 957.45 1027.8"/></g></g></g><g id="Artwork_18"><g class="cls-42"><g class="cls-34"><path class="cls-35" d="m1441.31,781.32c-29.45,32.55-73.13,12.79-29.45,32.55,43.67,19.76,78.21-6.98,43.67,19.76-34.53,26.74,1.02-5.81-12.19,8.14-13.2,13.95,10.16-44.17-6.09-12.79"/><path class="cls-25" d="m1441.31,781.32c-29.45,32.55-73.13,12.79-29.45,32.55,43.67,19.76,78.21-6.98,43.67,19.76-34.53,26.74,1.02-5.81-12.19,8.14-13.2,13.95,10.16-44.17-6.09-12.79"/></g></g></g><g id="Artwork_19"><g class="cls-69"><g class="cls-89"><path class="cls-35" d="m1232.02,763.16c-13.77,31.72-55.09,30.73-13.77,31.72,41.32.99,68.86,33.71,41.32.99-27.55-32.72-30.22-17.01-24.06,8.92,7.53,31.72-30.11,21.81,7.53,31.72,37.65,9.91-2.75-50.56-2.75-50.56"/><path class="cls-14" d="m1232.02,763.16c-13.77,31.72-55.09,30.73-13.77,31.72,41.32.99,68.86,33.71,41.32.99-27.55-32.72-30.22-17.01-24.06,8.92,7.53,31.72-30.11,21.81,7.53,31.72,37.65,9.91-2.75-50.56-2.75-50.56"/></g></g></g><g id="Artwork_20"><g class="cls-68"><g class="cls-90"><path d="m1439.1,921.02c25.88-5.93,13.46,28.53,25.88-5.93,12.42-34.46-.09-3.53,12.42-34.46,12.51-30.93,38.81-22.25,38.81-22.25,0,0,55.38-13.17,10.87,15.55-44.51,28.72-18.63-32.55-44.51,28.72s8.28-56.93,0,12.76"/><path class="cls-21" d="m1439.1,921.02c25.88-5.93,13.46,28.53,25.88-5.93,12.42-34.46-.09-3.53,12.42-34.46,12.51-30.93,38.81-22.25,38.81-22.25,0,0,55.38-13.17,10.87,15.55-44.51,28.72-18.63-32.55-44.51,28.72s8.28-56.93,0,12.76"/></g></g></g><g id="Artwork_21"><g class="cls-66"><g class="cls-88"><path d="m1564.07,861.16c-16.93,26.23-4.64,1.98-16.93,26.23-12.29,24.25-43.89,35.33-12.29,24.25,31.6-11.08,26.4,25.56,31.6-11.08,5.2-36.64,12.78-33.89,5.2-36.64-7.58-2.75,19.45,6.57,19.45,6.57-7.67,27.99-10.01,2.36-7.67,27.99,2.34,25.63-12.04,76.2,2.34,25.63,14.39-50.57,23.44-47.52,14.39-50.57"/><path class="cls-26" d="m1564.07,861.16c-16.93,26.23-4.64,1.98-16.93,26.23-12.29,24.25-43.89,35.33-12.29,24.25,31.6-11.08,26.4,25.56,31.6-11.08,5.2-36.64,12.78-33.89,5.2-36.64-7.58-2.75,19.45,6.57,19.45,6.57-7.67,27.99-10.01,2.36-7.67,27.99,2.34,25.63-12.04,76.2,2.34,25.63,14.39-50.57,23.44-47.52,14.39-50.57"/></g></g></g><g id="Artwork_22"><g class="cls-73"><g class="cls-77"><path d="m1623.3,932.66c-1.28,4.05-2.58,8.14-4.81,11.75-2.04,3.31-4.8,6.11-7.31,9.09-6.76,8.01-11.78,17.48-14.64,27.56,2.32,4.09,8.23,4.86,12.51,2.91,4.28-1.95,7.29-5.84,10.13-9.59,2.97-3.93,5.95-7.85,8.93-11.78,8.59-11.33,17.28-22.85,22.53-36.06,3.07-7.73,7.74-42-7.1-44.01-9-1.22-17.45,41.31-20.24,50.13"/><path class="cls-10" d="m1623.3,932.66c-1.28,4.05-2.58,8.14-4.81,11.75-2.04,3.31-4.8,6.11-7.31,9.09-6.76,8.01-11.78,17.48-14.64,27.56,2.32,4.09,8.23,4.86,12.51,2.91,4.28-1.95,7.29-5.84,10.13-9.59,2.97-3.93,5.95-7.85,8.93-11.78,8.59-11.33,17.28-22.85,22.53-36.06,3.07-7.73,7.74-42-7.1-44.01-9-1.22-17.45,41.31-20.24,50.13Z"/></g></g></g><g id="Artwork_24"><g class="cls-87"><g class="cls-53"><path d="m1790.46,758.21c11.14.18,22.3-.91,33.2-3.22,1.22-.26,2.49-.53,3.7-.22,4.07,1.04,3.86,6.97,2.12,10.79-8.27,18.1-28.48,27.32-41.11,42.7-2.71,3.3-5.14,7.12-5.36,11.38-.22,4.26,2.53,8.92,6.76,9.49,4.61.63,8.53-3.62,10.11-7.99,1.58-4.38,1.75-9.21,3.71-13.43,1.66-3.58,4.48-6.47,6.48-9.87,10.58-17.97-2.47-45.79-.47-65.83-7.06,7.34-13.06,17.58-19.15,26.21"/></g></g></g><g id="Artwork_23"><g class="cls-83"><g class="cls-7"><path d="m1843.53,918.12c3.58,2.13,3.72,8.8,3.3,14.05-1.43,17.7-3.77,37.61-14.58,47.82-4.19,3.96-9.35,6.06-13.01,10.89-2.27,3-4.55,7.32-7.69,6.66-3.14,7.38-4.73,15.95-4.54,24.46,11.55-4.03,19.2-18.39,25.85-31.76,1.52-3.05,3.08-6.26,3.39-9.91.73-8.52-5.28-15.05-7.88-22.88-2.93-8.84-1.1-18.05-1.01-27.26.06-5.82-4.97-23.46-3.85-27.2.91-3.07,6.6-6.78,8.81-4.05,1.94,2.39-5.2,18.9-5.62,23.46,5.92,3.78,10.84-7.84,16.82-4.29"/></g></g></g><path class="cls-13" d="m1430.78,1070.76c-.74-9.25-.79-18.54-.16-27.8,4.66-1.98,9.67-3.12,14.72-3.35,3.64-.17,8.72,2.6,6.73,5.65-.45.69-1.19,1.13-1.9,1.54-2.68,1.55-5.36,3.1-8.04,4.64,2.89,2.38,4.92,5.77,5.67,9.44-.92,3.75-.9,7.73.07,11.47.31-3.55-4.86-6.05-7.45-3.6-1.25,1.19-1.74,3.03-3.03,4.18s-4.09.61-3.81-1.09"/><path class="cls-13" d="m1462.87,1042.53c-1.17,10.36-2.35,20.71-3.52,31.07,4.48-.63,8.95-1.25,13.43-1.88,2.41-.34,5.02-.78,6.65-2.59,2.45-2.73,1.37-7.16-.77-10.15s-5.16-5.35-6.77-8.66c-3-6.17-.49-14.46-4.9-19.71-7,5.2-10.21,14.98-7.66,23.32"/><path class="cls-13" d="m1634.64,1032.66c-.74,13.6-.2,27.27,1.62,40.77,2.3-3.58,4.65-7.28,5.4-11.46.75-4.19-.48-9.03-4.06-11.32-2.21,6.23-2.54,13.12-.95,19.53-1.78-13.35-3.55-26.71-5.33-40.06,6.07-1.8,12.53-2.26,18.79-1.34-4.82,13.65-6.01,28.55-3.44,42.8-3.69-2-8.01-2.8-12.17-2.27"/><path class="cls-13" d="m1659.86,1032.51c-.96,6.99-1.93,13.97-2.89,20.96-.55,3.99-1.07,8.23.59,11.89s6.39,6.24,9.84,4.16c3.31-.49,5.7-3.68,6.35-6.97.65-3.29-.06-6.67-.77-9.95-.83-3.81-1.65-7.63-2.48-11.44-.72-3.32-1.65-6.96-4.44-8.88-2.8-1.92-7.83-.27-7.52,3.11"/><path d="m1152.25,926.78c-.63,0-1.27,0-1.89-.02-3.08-.05-6.57-.1-9.48-1.55-2.61-1.3-4.99-4.35-4.26-7.43.55-2.33,2.62-3.98,4.87-5.59l32.31-23.21c3.4-2.44,6.92-4.97,10.69-6.9,6.66-3.42,19.09-6.88,29.95-6.88,5.65,0,10.19.92,13.47,2.73,5.54,3.06,6.53,4.94,6.38,5.98-.35,2.46-6.93,3.91-12.74,5.19-3.23.71-6.28,1.38-8.52,2.23-3.34,1.27-6.13,3.56-8.82,5.78-1.38,1.13-2.81,2.31-4.29,3.32-3.79,2.6-8.24,4.38-12.54,6.1-6.07,2.43-12.34,4.94-16.85,9.81-.87.94-1.66,1.96-2.43,2.95-1.52,1.96-2.96,3.81-4.92,5.11-3.15,2.09-7.11,2.38-10.93,2.38h0Z"/><path d="m1214.43,875.7c5.57,0,10.02.9,13.23,2.67,5.78,3.19,6.21,4.89,6.13,5.47-.31,2.12-7.27,3.65-12.35,4.77-3.25.72-6.32,1.39-8.59,2.26-3.41,1.3-6.23,3.62-8.96,5.86-1.37,1.13-2.79,2.29-4.25,3.3-3.75,2.57-8.17,4.34-12.44,6.05-6.12,2.45-12.45,4.98-17.03,9.94-.88.95-1.68,1.98-2.46,2.98-1.5,1.92-2.91,3.74-4.81,5-3.04,2.02-6.92,2.29-10.65,2.29-.63,0-1.26,0-1.88-.02-3.02-.05-6.45-.1-9.26-1.5-2.44-1.22-4.67-4.04-3.99-6.87.51-2.16,2.5-3.74,4.67-5.3l32.31-23.21c3.38-2.43,6.88-4.94,10.62-6.86,6.61-3.39,18.94-6.82,29.72-6.82m0-1c-10.78,0-23.26,3.39-30.17,6.93-3.8,1.95-7.28,4.45-10.75,6.94-10.77,7.74-21.54,15.47-32.31,23.21-2.15,1.54-4.45,3.31-5.06,5.88-.76,3.22,1.56,6.52,4.52,7.99,2.96,1.47,6.39,1.56,9.7,1.61.63,0,1.26.02,1.9.02,3.94,0,7.97-.31,11.21-2.46,3.08-2.04,4.94-5.42,7.45-8.14,7.58-8.21,20.08-9.51,29.3-15.84,4.37-3,8.05-7.16,13-9.05,9.06-3.45,33.19-4.24,14.94-14.31-3.6-1.99-8.46-2.79-13.71-2.79h0Z"/><path d="m1174.42,956.28c-1.98,0-3.46-.84-4.08-2.32,3.65-8.24,7.9-16.3,12.64-23.98,2.04-3.3,4.28-6.73,7.39-9.31,3.71-3.09,8.43-4.74,12.99-6.33,2.79-.98,5.67-1.98,8.35-3.32,3.92-1.96,7.48-4.4,10.93-6.76,7.04-4.82,13.68-9.37,22.45-9.37.86,0,1.73.04,2.61.13-6.72,2.58-11.71,7.63-16.55,12.54-4.78,4.84-9.71,9.85-16.25,12.34-2.37.9-4.93,1.41-7.4,1.91-2.29.46-4.65.93-6.91,1.71-7.85,2.74-14.12,9.42-16.36,17.43-.36,1.29-.63,2.63-.89,3.93-.63,3.16-1.23,6.14-3.03,8.57-1.25,1.69-3.62,2.82-5.9,2.82h0Z"/><path d="m1245.08,895.39c.16,0,.32,0,.47,0-5.84,2.77-10.37,7.36-14.77,11.82-4.74,4.8-9.64,9.77-16.07,12.22-2.33.89-4.87,1.4-7.32,1.88-2.3.46-4.69.93-6.97,1.73-8.01,2.79-14.4,9.6-16.68,17.77-.36,1.31-.64,2.66-.9,3.97-.62,3.1-1.2,6.03-2.94,8.37-1.16,1.57-3.37,2.62-5.5,2.62-.81,0-2.71-.19-3.53-1.83,3.62-8.15,7.83-16.13,12.52-23.71,2.01-3.26,4.24-6.66,7.28-9.19,3.65-3.03,8.11-4.59,12.83-6.24,2.8-.98,5.71-1.99,8.41-3.34,3.95-1.97,7.53-4.42,10.99-6.8,6.97-4.77,13.55-9.28,22.16-9.28m0-1c-13.3,0-21.79,10.29-33.61,16.18-7.05,3.52-15.37,4.68-21.43,9.71-3.1,2.58-5.37,6-7.49,9.43-4.8,7.77-9.07,15.87-12.76,24.23.71,1.97,2.57,2.84,4.62,2.84,2.32,0,4.89-1.12,6.3-3.02,2.66-3.59,2.8-8.37,4-12.67,2.18-7.83,8.37-14.42,16.04-17.1,4.65-1.62,9.71-1.87,14.32-3.63,13.91-5.31,20.17-21.29,34.79-25.55-1.67-.29-3.26-.43-4.78-.43h0Z"/><path d="m1201.65,980.57c.71-1.5,3.49-6.59,14.04-23.76l.24-.39c2.24-3.65,3.89-8.31,5.49-12.81,2.13-6,4.33-12.2,7.95-16.23,4.18-4.65,10.2-7.21,16.94-7.21,3.08,0,6.23.56,9.19,1.63-3.43.86-6.66,1.26-9.8,1.65-9.93,1.23-17.77,2.2-21.71,17.1-.82,3.12-1.43,6.34-2.02,9.46-.94,4.98-1.92,10.13-3.78,14.91-2.65,6.79-8.36,14.35-16.54,15.65Z"/><path d="m1246.32,920.67c2.44,0,4.92.36,7.32,1.05-2.76.59-5.41.91-8,1.23-9.72,1.2-18.11,2.24-22.13,17.47-.83,3.14-1.44,6.37-2.03,9.49-.94,4.96-1.91,10.09-3.76,14.82-2.49,6.38-7.72,13.46-15.18,15.15,1.47-2.79,5.55-9.78,13.56-22.81l.25-.4c2.27-3.69,3.93-8.38,5.54-12.9,2.11-5.95,4.3-12.11,7.85-16.06,4.09-4.55,9.97-7.05,16.57-7.05m0-1c-6.52,0-12.85,2.41-17.32,7.38-6.44,7.16-8.33,20.68-13.5,29.11-1.17,1.91-15.41,25.01-14.54,25.01,0,0,0,0,0,0,8.33-.93,14.64-8.26,17.69-16.07,3.05-7.8,3.68-16.32,5.82-24.42,5.23-19.82,17.46-14.44,32.62-18.79-3.46-1.47-7.15-2.22-10.78-2.22h0Z"/><path d="m1411.39,900.77c2.49-16.25,19.24-18.26,34.04-20.03,4.21-.5,8.28-.99,11.87-1.78-3.33,1.68-6.66,3.42-9.93,5.11-11.69,6.07-23.77,12.34-35.98,16.71Z"/><path d="m1453.95,880.1c-2.29,1.17-4.57,2.36-6.81,3.52-11.42,5.93-23.21,12.05-35.11,16.39,2.88-15.1,19.1-17.05,33.46-18.77,2.92-.35,5.78-.69,8.46-1.14m9.62-3.7c-14.51,7.01-49.72-.24-52.78,25.11,18.04-6.33,35.52-16.75,52.78-25.11h0Z"/><path d="m1417.26,921.57c.86-10.72,20.78-15.54,33.69-17.19-5.2,1.93-10.9,5.27-16.48,8.53-6.22,3.64-12.1,7.08-17.22,8.66Z"/><path d="m1447.17,905.43c-4.2,1.94-8.61,4.52-12.94,7.05-5.89,3.45-11.49,6.72-16.37,8.37,1.53-8.92,17.13-13.46,29.32-15.43m11.02-2.2c-10.82.48-41.39,4.93-41.46,19.03,12.28-3.44,29.67-18.5,41.46-19.03h0Z"/><path class="cls-13" d="m1416.06,934.29c7.19,5.13,14.37,10.26,21.56,15.39,2.63,1.88,5.4,3.93,6.52,6.96,1.12,3.03-.35,7.21-3.55,7.66-2.64.37-4.88-1.82-6.65-3.82-7.34-8.32-14.68-16.63-22.02-24.95"/></svg>