<?xml version="1.0" encoding="utf-8"?>
<!-- Generator: Adobe Illustrator 27.4.1, SVG Export Plug-In . SVG Version: 6.00 Build 0)  -->
<svg version="1.1" id="Capa_1" xmlns="http://www.w3.org/2000/svg" xmlns:xlink="http://www.w3.org/1999/xlink" x="0px" y="0px"
	 viewBox="0 0 120 120" style="enable-background:new 0 0 120 120;" xml:space="preserve">
<path d="M120,58.6c0-0.1,0-0.3,0-0.4c0-0.3,0-0.7,0-1c0-0.2,0-0.3,0-0.5c0-0.3,0-0.6-0.1-0.9c0-0.2,0-0.3,0-0.5
	c0-0.4-0.1-0.8-0.1-1.1c0-0.1,0-0.2,0-0.3c0-0.5-0.1-0.9-0.2-1.4c0-0.1,0-0.3-0.1-0.4c0-0.3-0.1-0.7-0.1-1c0-0.2-0.1-0.3-0.1-0.5
	c0-0.3-0.1-0.6-0.1-0.9c0-0.2-0.1-0.3-0.1-0.5c-0.1-0.3-0.1-0.6-0.2-1c0-0.1,0-0.3-0.1-0.4c-0.1-0.4-0.2-0.9-0.3-1.3
	c0-0.1-0.1-0.2-0.1-0.4c-0.1-0.3-0.2-0.6-0.2-1c0-0.2-0.1-0.3-0.1-0.5c-0.1-0.3-0.1-0.6-0.2-0.8c0-0.2-0.1-0.3-0.1-0.5
	c-0.1-0.3-0.2-0.6-0.3-0.8c0-0.2-0.1-0.3-0.1-0.5c-0.1-0.4-0.3-0.8-0.4-1.2c0-0.1-0.1-0.2-0.1-0.3c-0.1-0.3-0.2-0.7-0.4-1
	c-0.1-0.2-0.1-0.3-0.2-0.5c-0.1-0.3-0.2-0.5-0.3-0.8c-0.1-0.2-0.1-0.3-0.2-0.5c-0.1-0.3-0.2-0.5-0.3-0.7c-0.1-0.2-0.1-0.3-0.2-0.5
	c-0.1-0.3-0.3-0.6-0.4-0.9c-0.1-0.1-0.1-0.2-0.2-0.3c-0.2-0.4-0.4-0.8-0.5-1.2c-0.1-0.2-0.2-0.3-0.2-0.5c-0.1-0.2-0.2-0.5-0.4-0.7
	c-0.1-0.2-0.2-0.3-0.3-0.5c-0.1-0.2-0.2-0.5-0.4-0.7c-0.1-0.2-0.2-0.3-0.3-0.5c-0.1-0.2-0.3-0.5-0.4-0.7c-0.1-0.1-0.2-0.3-0.2-0.4
	c-0.2-0.4-0.4-0.7-0.6-1.1c-0.1-0.1-0.2-0.3-0.3-0.4c-0.1-0.2-0.3-0.5-0.4-0.7c-0.1-0.2-0.2-0.3-0.3-0.5c-0.1-0.2-0.3-0.4-0.4-0.6
	c-0.1-0.2-0.2-0.3-0.3-0.5c-0.1-0.2-0.3-0.4-0.4-0.6c-0.1-0.1-0.2-0.3-0.3-0.4c-0.2-0.3-0.5-0.7-0.7-1l0,0
	c-6.6-8.8-15.5-15.7-25.8-19.9c0,0,0,0,0,0c-0.4-0.2-0.8-0.3-1.2-0.5c0,0-0.1,0-0.1,0c-0.4-0.1-0.8-0.3-1.2-0.4
	c-0.1,0-0.1,0-0.2-0.1c-0.4-0.1-0.8-0.3-1.1-0.4c-0.1,0-0.1,0-0.2-0.1c-0.4-0.1-0.7-0.2-1.1-0.3c-0.1,0-0.2-0.1-0.3-0.1
	c-0.4-0.1-0.7-0.2-1.1-0.3c-0.1,0-0.2-0.1-0.3-0.1c-0.3-0.1-0.7-0.2-1-0.3c-0.1,0-0.3-0.1-0.4-0.1c-0.3-0.1-0.7-0.2-1-0.2
	c-0.1,0-0.3-0.1-0.4-0.1c-0.3-0.1-0.6-0.1-1-0.2c-0.2,0-0.3-0.1-0.5-0.1c-0.3-0.1-0.6-0.1-0.9-0.2c-0.2,0-0.4-0.1-0.5-0.1
	c-0.3,0-0.6-0.1-0.9-0.1c-0.2,0-0.4-0.1-0.6-0.1c-0.3,0-0.6-0.1-0.8-0.1c-0.2,0-0.4-0.1-0.7-0.1c-0.3,0-0.5-0.1-0.8-0.1
	c-0.2,0-0.5,0-0.7-0.1c-0.2,0-0.5,0-0.7-0.1c-0.3,0-0.5,0-0.8-0.1c-0.2,0-0.4,0-0.7,0c-0.3,0-0.6,0-1,0c-0.2,0-0.4,0-0.5,0
	c-0.5,0-1,0-1.5,0c-0.5,0-1,0-1.5,0c-0.2,0-0.4,0-0.5,0c-0.3,0-0.6,0-1,0c-0.2,0-0.5,0-0.7,0c-0.3,0-0.5,0-0.8,0.1
	c-0.3,0-0.5,0-0.7,0.1c-0.2,0-0.5,0-0.7,0.1c-0.3,0-0.5,0.1-0.8,0.1c-0.2,0-0.4,0-0.7,0.1c-0.3,0-0.6,0.1-0.8,0.1
	c-0.2,0-0.4,0.1-0.6,0.1c-0.3,0-0.6,0.1-0.9,0.1c-0.2,0-0.4,0.1-0.5,0.1c-0.3,0.1-0.6,0.1-0.9,0.2c-0.2,0-0.3,0.1-0.5,0.1
	c-0.3,0.1-0.6,0.1-1,0.2c-0.1,0-0.3,0.1-0.4,0.1c-0.3,0.1-0.7,0.2-1,0.2c-0.1,0-0.3,0.1-0.4,0.1c-0.3,0.1-0.7,0.2-1,0.3
	c-0.1,0-0.2,0.1-0.3,0.1c-0.4,0.1-0.7,0.2-1.1,0.3c-0.1,0-0.2,0.1-0.3,0.1c-0.4,0.1-0.7,0.2-1.1,0.3c-0.1,0-0.1,0-0.2,0.1
	c-0.4,0.1-0.8,0.3-1.2,0.4c0,0-0.1,0-0.1,0.1c-0.4,0.1-0.8,0.3-1.2,0.4c0,0,0,0-0.1,0C28,7.9,18.7,15,11.9,24.2
	c-0.2,0.3-0.5,0.6-0.7,1c-0.1,0.2-0.2,0.3-0.3,0.5c-0.1,0.2-0.3,0.4-0.4,0.6c-0.1,0.2-0.2,0.3-0.3,0.5c-0.1,0.2-0.3,0.4-0.4,0.6
	c-0.1,0.2-0.2,0.3-0.3,0.5c-0.1,0.2-0.3,0.4-0.4,0.7c-0.1,0.2-0.2,0.3-0.3,0.5c-0.2,0.4-0.4,0.7-0.6,1.1c-0.1,0.1-0.2,0.3-0.3,0.4
	c-0.1,0.2-0.3,0.5-0.4,0.7c-0.1,0.2-0.2,0.3-0.3,0.5c-0.1,0.2-0.2,0.4-0.4,0.7c-0.1,0.2-0.2,0.3-0.3,0.5c-0.1,0.2-0.2,0.5-0.4,0.7
	c-0.1,0.2-0.2,0.3-0.2,0.5c-0.2,0.4-0.4,0.8-0.5,1.1c-0.1,0.1-0.1,0.2-0.2,0.4c-0.1,0.3-0.3,0.6-0.4,0.9c-0.1,0.2-0.1,0.3-0.2,0.5
	c-0.1,0.2-0.2,0.5-0.3,0.7c-0.1,0.2-0.1,0.3-0.2,0.5C4,38.5,3.9,38.8,3.8,39c-0.1,0.2-0.1,0.3-0.2,0.5c-0.1,0.3-0.2,0.7-0.4,1
	c0,0.1-0.1,0.2-0.1,0.3C3,41.2,2.9,41.6,2.7,42c0,0.2-0.1,0.3-0.1,0.5c-0.1,0.3-0.2,0.6-0.3,0.8c0,0.2-0.1,0.3-0.1,0.5
	C2.1,44.1,2,44.4,2,44.7c0,0.2-0.1,0.3-0.1,0.5c-0.1,0.3-0.2,0.6-0.2,1c0,0.1-0.1,0.2-0.1,0.4c-0.1,0.4-0.2,0.9-0.3,1.3
	c0,0.1-0.1,0.3-0.1,0.4c-0.1,0.3-0.1,0.6-0.2,1c0,0.2-0.1,0.3-0.1,0.5c-0.1,0.3-0.1,0.6-0.1,0.9c0,0.2-0.1,0.3-0.1,0.5
	c0,0.3-0.1,0.7-0.1,1c0,0.1,0,0.3-0.1,0.4c-0.1,0.5-0.1,0.9-0.2,1.4c0,0.1,0,0.2,0,0.3c0,0.4-0.1,0.8-0.1,1.1c0,0.2,0,0.3,0,0.5
	c0,0.3,0,0.6-0.1,0.9c0,0.2,0,0.3,0,0.5c0,0.3,0,0.7,0,1c0,0.1,0,0.3,0,0.4c0,0.5,0,0.9,0,1.4c0,0.4,0,0.8,0,1.3c0,0.2,0,0.4,0,0.6
	c0,0.2,0,0.3,0,0.5c0.4,10.8,3.7,20.8,9,29.4c0,0,0,0,0,0c1,1.6,2.1,3.2,3.3,4.7c0,0,0,0,0,0c1.2,1.5,2.4,2.9,3.7,4.3
	c0,0,0.1,0.1,0.1,0.1c0.2,0.3,0.5,0.5,0.7,0.8c0,0,0,0,0,0c0.8,0.8,1.6,1.6,2.4,2.3c0,0,0.1,0,0.1,0.1c0.2,0.2,0.5,0.4,0.7,0.7
	c0.1,0.1,0.1,0.1,0.2,0.2c0.2,0.2,0.5,0.4,0.7,0.6c0.1,0,0.1,0.1,0.2,0.1c0.8,0.7,1.6,1.3,2.4,1.9c0.1,0.1,0.2,0.1,0.2,0.2
	c0.2,0.2,0.5,0.3,0.7,0.5c0.1,0.1,0.2,0.2,0.3,0.2c0.2,0.2,0.5,0.3,0.7,0.5c0.1,0.1,0.2,0.2,0.3,0.2c0.8,0.5,1.6,1,2.3,1.5
	c0.1,0.1,0.3,0.2,0.4,0.3c0.2,0.1,0.4,0.3,0.7,0.4c0.1,0.1,0.3,0.2,0.5,0.3c0.2,0.1,0.4,0.3,0.7,0.4c0.2,0.1,0.3,0.2,0.5,0.3
	c0.8,0.4,1.5,0.8,2.3,1.2c0.2,0.1,0.3,0.2,0.5,0.3c0.2,0.1,0.4,0.2,0.7,0.3c0.2,0.1,0.4,0.2,0.5,0.3c0.2,0.1,0.4,0.2,0.7,0.3
	c0.2,0.1,0.4,0.2,0.6,0.2c0.2,0.1,0.4,0.2,0.6,0.3c0,0,0,0,0,0c7.1,3,15,4.7,23.2,4.7c8.1,0,15.9-1.6,22.9-4.5c0,0,0,0,0,0
	c0.4-0.2,0.7-0.3,1.1-0.5c0,0,0.1,0,0.1,0c0.4-0.2,0.7-0.3,1.1-0.5c0,0,0.1,0,0.1,0c1.8-0.9,3.6-1.8,5.3-2.8c0,0,0.1,0,0.1-0.1
	c0.3-0.2,0.6-0.4,0.9-0.6c0.1,0,0.1-0.1,0.2-0.1c0.3-0.2,0.6-0.4,0.9-0.6c0.1,0,0.1-0.1,0.2-0.1c0.3-0.2,0.6-0.4,0.9-0.6
	c0,0,0,0,0,0c1-0.7,1.9-1.3,2.8-2.1c0,0,0.1-0.1,0.1-0.1c0.2-0.2,0.5-0.4,0.7-0.6c0.1-0.1,0.2-0.2,0.3-0.2c0.2-0.2,0.5-0.4,0.7-0.6
	c0.1-0.1,0.2-0.2,0.3-0.3c0.2-0.2,0.4-0.4,0.6-0.6c0.1-0.1,0.2-0.2,0.4-0.3c0.2-0.2,0.4-0.4,0.6-0.6c0.1-0.1,0.2-0.2,0.3-0.3
	c0.4-0.4,0.9-0.8,1.3-1.3c0.1-0.1,0.1-0.1,0.2-0.2c0.2-0.2,0.3-0.3,0.5-0.5c0.1-0.1,0.3-0.3,0.4-0.4c0.2-0.2,0.3-0.3,0.5-0.5
	c0.1-0.2,0.3-0.3,0.4-0.5c0.2-0.2,0.3-0.3,0.5-0.5c0.2-0.2,0.3-0.3,0.5-0.5c0.1-0.2,0.3-0.3,0.4-0.5c0.2-0.2,0.3-0.4,0.5-0.6
	c0.1-0.2,0.3-0.3,0.4-0.5c0.2-0.2,0.4-0.5,0.6-0.7c0.1-0.1,0.2-0.2,0.2-0.3c0.3-0.3,0.5-0.7,0.8-1c0.1-0.1,0.2-0.3,0.3-0.4
	c0.2-0.2,0.3-0.5,0.5-0.7c0.1-0.1,0.2-0.3,0.3-0.4c0.2-0.2,0.3-0.5,0.5-0.7c0.1-0.2,0.2-0.3,0.3-0.5c0.2-0.2,0.3-0.5,0.5-0.7
	c0.1-0.1,0.2-0.3,0.3-0.4c0.2-0.3,0.3-0.5,0.5-0.8c0.1-0.1,0.2-0.3,0.2-0.4c0.2-0.4,0.5-0.8,0.7-1.1c0,0,0,0,0,0c0,0,0,0,0,0
	c4.7-8.2,7.5-17.5,7.9-27.5c0-0.2,0-0.3,0-0.5c0-0.2,0-0.4,0-0.6c0-0.4,0-0.8,0-1.3C120,59.5,120,59.1,120,58.6z M62.4,18.8l15.1-11
	c1.3,0.4,2.6,0.9,3.9,1.5C88,12,93.9,16,99,21c2.8,2.8,5.2,5.8,7.3,9L101,46.7l-15.7,5.2L62.4,35.3V18.8z M21,21
	c5.1-5.1,11-9,17.5-11.8c1.3-0.5,2.6-1,3.9-1.5l15.1,11v16.6L34.7,52l-15.6-5.2L13.7,30C15.8,26.8,18.3,23.8,21,21z M30.7,95.2
	l-14.9-2.4c-2.6-3.5-4.8-7.3-6.5-11.4c-2.8-6.6-4.3-13.7-4.3-21l12.6-9l15.6,5.2L42,83.9L30.7,95.2z M83.8,109.7
	c-0.8,0.4-1.6,0.7-2.4,1.1c-6.8,2.9-14,4.3-21.4,4.3c-7.4,0-14.7-1.5-21.4-4.3c-0.9-0.4-1.8-0.8-2.7-1.2l-1.7-10.9l12.2-12.2h29
	l10.5,10.5L83.8,109.7z M110.8,81.4c-1.4,3.3-3.1,6.5-5.1,9.4l-16.3,2.6L78.4,82.6l8.5-26.1l15.5-5.1l12.7,9.1
	C115,67.8,113.6,74.8,110.8,81.4z"/>
</svg>
