<?xml version="1.0" encoding="UTF-8"?><svg id="Layer_1" xmlns="http://www.w3.org/2000/svg" width="1920" height="1080" viewBox="0 0 1920 1080"><defs><style>.cls-1{opacity:.35;}.cls-2{fill:lime;}.cls-3{fill:#d4145a;stroke:#231f20;stroke-miterlimit:10;stroke-width:2px;}</style></defs><rect class="cls-2" width="1920" height="1080"/><g class="cls-1"><path class="cls-3" d="m840.07,405.31h-1.68c-.98-8.78-4.25-16.47-9.82-23.08-5.57-6.6-12.9-9.91-22.01-9.91-5.95,0-11.24,1.64-15.86,4.92-4.62,3.28-8.19,7.75-10.71,13.42-2.52,5.66-3.78,12.14-3.78,19.45,0,5.66.75,10.69,2.26,15.08,1.51,4.39,3.73,8.27,6.67,11.63,2.94,3.37,6.41,6.5,10.4,9.42,3.99,2.91,9.38,6.58,16.18,11.02,11.34,7.3,20.17,14.58,26.47,21.85,6.3,7.26,9.45,17.21,9.45,29.85,0,7.71-1.7,15.16-5.09,22.34-3.4,7.18-8.53,13.07-15.39,17.66-6.86,4.59-15.37,6.89-25.52,6.89-6.37,0-12.01-.8-16.91-2.4-4.9-1.6-9.87-3.83-14.92-6.71-2.1-.82-3.54-1.23-4.31-1.23-1.47,0-2.43.62-2.89,1.85-.46,1.23-1.07,3.9-1.84,8h-1.79v-45.41h1.79c2.52,13.29,7.42,23.34,14.71,30.15,7.28,6.81,16.14,10.21,26.57,10.21,7.84,0,14.13-1.72,18.85-5.17,4.73-3.45,8-7.63,9.82-12.55,1.82-4.92,2.73-9.85,2.73-14.77,0-10.17-2.64-18.48-7.93-24.92-5.29-6.44-13.32-13.02-24.11-19.75-7.42-4.76-12.92-8.45-16.49-11.08-3.57-2.62-7.19-6.03-10.87-10.21-3.68-4.18-6.6-9.13-8.77-14.83-2.17-5.7-3.26-12.25-3.26-19.63,0-8.53,1.93-16.7,5.78-24.49,3.85-7.79,9.31-14.05,16.39-18.77,7.07-4.72,15.09-7.08,24.05-7.08,6.79,0,13.76,1.35,20.9,4.06,1.12.66,2.63.98,4.52.98,2.31,0,3.89-1.85,4.73-5.54h1.68v38.77Z"/><path class="cls-3" d="m861.92,372.57v-2.09h50.73c8.47,0,15.95,1.35,22.43,4.06,6.48,2.71,11.87,6.4,16.18,11.08s7.53,9.95,9.66,15.81c2.13,5.87,3.2,12.04,3.2,18.52s-1,12.41-2.99,18.28c-2,5.87-5.13,11.08-9.4,15.63s-9.87,8.18-16.8,10.89c-6.93,2.71-14.92,4.06-23.95,4.06-2.87,0-8.4-.49-16.6-1.48v62.52c0,12.88,5.6,19.53,16.81,19.94v1.97h-49.26v-1.97c4.83-.16,8.8-1.79,11.92-4.86,3.12-3.08,4.67-8.1,4.67-15.08v-137.1c0-4.18-.56-7.67-1.68-10.46-1.12-2.79-2.43-4.78-3.94-5.97-1.51-1.19-3.19-2.07-5.04-2.65-1.86-.57-3.13-.94-3.83-1.11h-2.1Zm32.46,4.31v85.41c5.39,1.15,10.71,1.72,15.96,1.72,10.01,0,18.5-3.02,25.47-9.05,6.97-6.03,10.45-17.21,10.45-33.54,0-13.46-3.06-24.51-9.19-33.17-6.13-8.66-15.42-12.98-27.89-12.98-4.83,0-9.77.53-14.81,1.6Z"/><path class="cls-3" d="m1027.35,370.48v2.09c-4.62,0-8.54,1.52-11.76,4.55-3.22,3.04-4.83,8.08-4.83,15.14v137.6c0,6.97,1.72,12.04,5.15,15.2,3.43,3.16,7.25,4.74,11.45,4.74v1.97h-49.05v-1.97c4.48,0,8.35-1.54,11.61-4.62,3.26-3.08,4.88-8.18,4.88-15.32v-137.6c0-7.55-1.63-12.72-4.88-15.51-3.26-2.79-7.13-4.18-11.61-4.18v-2.09h49.05Z"/><path class="cls-3" d="m1043.21,549.8h2.1c3.78,0,7.12-1.74,10.03-5.23,2.91-3.49,4.36-8.39,4.36-14.71v-136.86c0-7.55-1.63-12.8-4.88-15.75-3.26-2.95-7.13-4.51-11.61-4.68v-2.09h49.47v2.09c-4.34.17-8.19,1.68-11.55,4.55-3.36,2.87-5.04,8.17-5.04,15.88v132.3c0,7.88,1.68,13.33,5.04,16.37,3.36,3.04,8.86,4.55,16.49,4.55h13.34c5.81,0,10.45-.82,13.92-2.46,3.47-1.64,6.21-4.14,8.25-7.51,2.03-3.36,4.1-8.12,6.2-14.28h1.79l-5.88,29.78h-92.01v-1.97Z"/></g></svg>