<?xml version="1.0" encoding="UTF-8"?><svg id="Layer_1" xmlns="http://www.w3.org/2000/svg" width="500" height="340" xmlns:xlink="http://www.w3.org/1999/xlink" viewBox="0 0 500 340"><defs><style>.cls-1{fill:aqua;}.cls-2{filter:url(#AI_Shadow_2);}</style><filter id="AI_Shadow_2" x="-15%" y="-15%" width="140%" height="130%"><feGaussianBlur in="SourceAlpha" result="blur" stdDeviation="6"/><feOffset dx="8" dy="8" in="blur" result="offsetBlurredAlpha"/><feMerge><feMergeNode in="offsetBlurredAlpha"/><feMergeNode in="SourceGraphic"/></feMerge></filter></defs><g class="cls-2"><rect class="cls-1" x="23.95" y="20.98" width="452.09" height="298.05" rx="59.4" ry="59.4"/></g><path d="m137.7,70.19c-4.47,1.87-7.92,4.67-10.35,8.4-2.43,3.73-3.65,8.23-3.65,13.5,0,2.47.23,4.18.7,5.15.47.97.7,1.52.7,1.65-3.6,0-6.28-.75-8.05-2.25-1.77-1.5-2.65-3.98-2.65-7.45,0-4.27,1.75-8.42,5.25-12.45,3.5-4.03,7.98-7.3,13.45-9.8,5.47-2.5,10.93-3.75,16.4-3.75.93,0,2.27.07,4,.2l-6.4,29.8h14.7l6.4-29.8h14.4l-15.9,74.8h-14.4l8-37.6h-14.7l-8,37.6h-14.4l14.5-68Z"/><path d="m182.6,134.79c-2.87-2.53-4.3-6.53-4.3-12,0-4.53.93-9.57,2.8-15.1,1.87-5.53,4.87-10.32,9-14.35,4.13-4.03,9.33-6.05,15.6-6.05,8.53,0,12.8,5.33,12.8,16v.1c.2.07.57.1,1.1.1,2.2,0,4.73-.58,7.6-1.75,2.87-1.17,5.47-2.58,7.8-4.25l.9,2.7c-1.93,2.07-4.45,3.82-7.55,5.25-3.1,1.43-6.48,2.45-10.15,3.05-.53,6.07-1.9,11.37-4.1,15.9-2.2,4.53-5.03,8.03-8.5,10.5-3.47,2.47-7.23,3.7-11.3,3.7-4.94,0-8.83-1.27-11.7-3.8Zm20.5-7.95c1.6-1.83,3-4.33,4.2-7.5,1.2-3.17,2.06-6.68,2.6-10.55-1.8-.4-2.7-1.8-2.7-4.2,0-2.73,1.03-4.53,3.1-5.4-.13-2.2-.47-3.72-1-4.55-.54-.83-1.47-1.25-2.8-1.25-2.2,0-4.33,1.6-6.4,4.8s-3.73,7.03-5,11.5c-1.27,4.47-1.9,8.4-1.9,11.8,0,3.2.37,5.35,1.1,6.45.73,1.1,2.06,1.65,4,1.65,1.6,0,3.2-.92,4.8-2.75Z"/><path d="m225.75,135.79c-1.97-2-2.95-5-2.95-9,0-1.67.27-3.83.8-6.5l6.8-32.1h14.4l-7.2,34c-.2.8-.3,1.63-.3,2.5,0,2.93,1,4.4,3,4.4,1.87,0,3.47-.78,4.8-2.35,1.33-1.57,2.4-3.72,3.2-6.45l6.8-32.1h14.4l-7.2,34c-.33,1.67-.5,2.87-.5,3.6,0,2.2,1.13,3.3,3.4,3.3,3.07,0,5.92-1.93,8.55-5.8,2.63-3.87,4.75-8.46,6.35-13.8,1.6-5.33,2.4-9.93,2.4-13.8-.13.33-.57.58-1.3.75-.73.17-1.37.25-1.9.25-1.13,0-2.02-.53-2.65-1.6-.63-1.07-.95-2.23-.95-3.5,0-1.6.52-2.9,1.55-3.9,1.03-1,2.58-1.5,4.65-1.5,2.2,0,3.8.82,4.8,2.45,1,1.63,1.5,3.72,1.5,6.25,0,6-1.03,12.42-3.1,19.25-2.07,6.83-5.23,12.65-9.5,17.45-4.27,4.8-9.57,7.2-15.9,7.2-3.27,0-5.93-.7-8-2.1s-3.4-3.5-4-6.3c-3.73,5.6-8.47,8.4-14.2,8.4-3.2,0-5.79-1-7.75-3Z"/><path d="m313.55,135.79c-1.97-2-2.95-5-2.95-9,0-1.67.27-3.83.8-6.5l6-28.1h-3.3l.8-4h3.3l3-13.8,14.8-2-3.4,15.8h6l-.8,4h-6l-6.4,30c-.27,1-.4,2.07-.4,3.2,0,1.33.32,2.28.95,2.85.63.57,1.68.85,3.15.85,1.93,0,3.73-.82,5.4-2.45,1.67-1.63,2.87-3.75,3.6-6.35h4.2c-2.47,7.2-5.63,12.08-9.5,14.65-3.87,2.57-7.7,3.85-11.5,3.85-3.2,0-5.79-1-7.75-3Z"/><path d="m341,134.79c-2.87-2.53-4.3-6.53-4.3-12,0-4.6.9-9.65,2.7-15.15,1.8-5.5,4.73-10.27,8.8-14.3,4.06-4.03,9.27-6.05,15.6-6.05,7.87,0,12.1,4.5,12.7,13.5,1.47-.33,2.77-1.15,3.9-2.45,1.13-1.3,2.2-2.78,3.2-4.45h3.2c-1.8,3.6-3.4,6.42-4.8,8.45-1.4,2.03-3.23,3.68-5.5,4.95-.4,6.27-1.68,11.77-3.85,16.5-2.17,4.73-4.98,8.38-8.45,10.95-3.47,2.57-7.3,3.85-11.5,3.85-4.94,0-8.83-1.27-11.7-3.8Zm22.6-11.2c2.13-4,3.6-8.93,4.4-14.8-1.6-.6-2.4-2.1-2.4-4.5,0-2.6.93-4.33,2.8-5.2-.13-2.13-.48-3.62-1.05-4.45-.57-.83-1.48-1.25-2.75-1.25-2.2,0-4.3,1.58-6.3,4.75-2,3.17-3.62,7-4.85,11.5-1.23,4.5-1.85,8.45-1.85,11.85,0,3.2.37,5.35,1.1,6.45.73,1.1,2.06,1.65,4,1.65,2.46,0,4.77-2,6.9-6Z"/><path d="m171.55,204.49h14.4l-1.6,7.5c3.33-2.87,7.23-4.3,11.7-4.3,3.73,0,6.7,1.23,8.9,3.7,2.2,2.47,3.3,6.5,3.3,12.1,0,5.27-.77,10.58-2.3,15.95-1.53,5.37-4.13,9.93-7.8,13.7-3.67,3.77-8.5,5.65-14.5,5.65-4.27,0-7.1-1.2-8.5-3.6l-5.2,24.4-15.1,3.6,16.7-78.7Zm16.95,41.1c2.1-3,3.63-6.58,4.6-10.75.96-4.17,1.45-8.05,1.45-11.65,0-5.53-1.67-8.3-5-8.3-1.2,0-2.42.43-3.65,1.3-1.23.87-2.32,2.07-3.25,3.6l-5.9,28c.53,1.54,1.8,2.3,3.8,2.3,3.2,0,5.85-1.5,7.95-4.5Z"/><path d="m212.9,255.79c-1.97-2-2.95-5-2.95-9,0-1.67.27-3.83.8-6.5l10.7-50.1,14.8-2-11.5,54c-.27,1-.4,2.07-.4,3.2,0,1.33.32,2.28.95,2.85.63.57,1.68.85,3.15.85,1.93,0,3.73-.82,5.4-2.45,1.67-1.63,2.87-3.75,3.6-6.35h4.2c-2.47,7.2-5.63,12.08-9.5,14.65-3.87,2.57-7.7,3.85-11.5,3.85-3.2,0-5.79-1-7.75-3Z"/><path d="m239.95,254.89c-2.53-2.6-3.8-6.67-3.8-12.2,0-4.93.98-10.12,2.95-15.55,1.97-5.43,4.9-10.03,8.8-13.8,3.9-3.77,8.55-5.65,13.95-5.65,2.73,0,4.77.47,6.1,1.4s2,2.17,2,3.7v.7l1.1-5.3h14.4l-7.2,34c-.27,1-.4,2.07-.4,3.2,0,2.87,1.37,4.3,4.1,4.3,1.87,0,3.48-.87,4.85-2.6,1.37-1.73,2.45-4,3.25-6.8h4.2c-2.47,7.2-5.52,12.08-9.15,14.65-3.63,2.57-7.28,3.85-10.95,3.85-2.8,0-5.05-.78-6.75-2.35-1.7-1.57-2.72-3.85-3.05-6.85-1.93,2.73-4.08,4.95-6.45,6.65-2.37,1.7-5.19,2.55-8.45,2.55-3.8,0-6.97-1.3-9.5-3.9Zm20.95-8.15c1.63-1.57,2.75-3.72,3.35-6.45l4.8-22.6c0-.87-.33-1.72-1-2.55-.67-.83-1.7-1.25-3.1-1.25-2.67,0-5.07,1.55-7.2,4.65-2.13,3.1-3.8,6.83-5,11.2-1.2,4.37-1.8,8.22-1.8,11.55s.48,5.47,1.45,6.4c.96.93,2.15,1.4,3.55,1.4,1.67,0,3.32-.78,4.95-2.35Z"/><path d="m297.4,280.14c-2.37-2.03-3.55-4.62-3.55-7.75,0-2.93.73-5.33,2.2-7.2,1.46-1.87,3.37-3.33,5.7-4.4,2.33-1.07,5.47-2.2,9.4-3.4l1-4.4c-3.4,3.87-7.47,5.8-12.2,5.8-3.2,0-5.78-1-7.75-3-1.97-2-2.95-5-2.95-9,0-1.67.27-3.83.8-6.5l6.8-32.1h14.4l-7.2,34c-.2.8-.3,1.63-.3,2.5,0,2.93,1,4.4,3,4.4,1.87,0,3.47-.78,4.8-2.35,1.33-1.57,2.4-3.72,3.2-6.45l6.8-32.1h14.5l-12.2,58c-1.33,6.4-3.68,10.83-7.05,13.3-3.37,2.47-7.08,3.7-11.15,3.7-3.13,0-5.88-1.02-8.25-3.05Zm9.35-7.7c1.07-1.23,1.9-3.22,2.5-5.95l1.2-5.9c-3.53,1.2-6.27,2.6-8.2,4.2-1.93,1.6-2.9,3.67-2.9,6.2,0,.8.4,1.55,1.2,2.25.8.7,1.73,1.05,2.8,1.05,1.2,0,2.33-.62,3.4-1.85Z"/></svg>