<?xml version="1.0" encoding="utf-8"?>
<!-- Generator: Adobe Illustrator 27.4.1, SVG Export Plug-In . SVG Version: 6.00 Build 0)  -->
<svg version="1.1" id="Layer_1" xmlns="http://www.w3.org/2000/svg" xmlns:xlink="http://www.w3.org/1999/xlink" x="0px" y="0px"
	 viewBox="0 0 225 75" style="enable-background:new 0 0 225 75;" xml:space="preserve">
<style type="text/css">
	.st0{clip-path:url(#SVGID_00000101789324756388591340000009788186361681562765_);}
	.st1{clip-path:url(#SVGID_00000027566816354852042330000004324316015049218452_);}
	.st2{fill:#E9967A;}
	.st3{fill:none;stroke:#000000;stroke-width:2;stroke-miterlimit:10;}
	.st4{fill:#D31C5B;stroke:#231F20;stroke-width:2;stroke-miterlimit:10;}
</style>
<g id="Stor_knap">
	<g>
		<defs>
			<rect id="SVGID_1_" x="2.5" y="5" width="220" height="65"/>
		</defs>
		<clipPath id="SVGID_00000034092041662694301140000010411551634649829008_">
			<use xlink:href="#SVGID_1_"  style="overflow:visible;"/>
		</clipPath>
		<g style="clip-path:url(#SVGID_00000034092041662694301140000010411551634649829008_);">
			<g>
				<defs>
					<rect id="SVGID_00000070819416424845860880000007961180276759101579_" x="2.5" y="5" width="220" height="65"/>
				</defs>
				<clipPath id="SVGID_00000033366849150830164860000001220574330012846765_">
					<use xlink:href="#SVGID_00000070819416424845860880000007961180276759101579_"  style="overflow:visible;"/>
				</clipPath>
				<g style="clip-path:url(#SVGID_00000033366849150830164860000001220574330012846765_);">
					<path class="st2" d="M201.7,69.1H23.3c-11,0-19.9-9.2-19.9-20.5V26.4c0-11.3,8.9-20.5,19.9-20.5h178.4c11,0,19.9,9.2,19.9,20.5
						v22.3C221.6,59.9,212.7,69.1,201.7,69.1"/>
					<path class="st3" d="M23.3,5.9h178.4c11,0,19.9,9.2,19.9,20.5v22.3c0,11.3-8.9,20.5-19.9,20.5H23.3c-11,0-19.9-9.2-19.9-20.5
						V26.4C3.4,15.1,12.3,5.9,23.3,5.9z"/>
				</g>
			</g>
		</g>
	</g>
</g>
<path class="st4" d="M24.9,29.7v-0.3H33v0.3c-0.9,0-1.5,0.2-1.7,0.6s-0.4,1-0.4,1.6v12.1c0,0.4,0,0.7,0.1,1s0.3,0.6,0.6,0.8
	s0.8,0.4,1.4,0.4H33v0.3h-8.1v-0.3c0.9,0,1.5-0.2,1.7-0.6s0.4-1,0.4-1.6V32c0-0.8-0.2-1.4-0.5-1.7S25.6,29.7,24.9,29.7L24.9,29.7z"
	/>
<path class="st4" d="M39.9,29.4l10.5,11.1v-7.9c0-1-0.2-1.7-0.6-2.1s-1.1-0.6-1.9-0.8v-0.3h5.9v0.3c-0.7,0.1-1.1,0.2-1.5,0.5
	s-0.5,0.6-0.6,1s-0.1,0.8-0.1,1.4v14.2h-0.4L38.5,33.5v9.7c0,0.8,0.2,1.5,0.5,2.1s1,0.9,1.9,1v0.3h-6.2v-0.3c1.7-0.1,2.6-1,2.6-2.5
	V32.3c0,0-0.1-0.1-0.2-0.2c-0.1-0.1-0.2-0.2-0.3-0.3s-0.3-0.3-0.5-0.4c-1-1-2-1.6-2.8-1.7v-0.3L39.9,29.4L39.9,29.4z"/>
<path class="st4" d="M64.6,33.7h-0.5c-0.3-1.1-0.8-1.9-1.5-2.5s-1.5-0.9-2.5-0.9c-0.5,0-0.9,0.1-1.3,0.3s-0.7,0.5-0.9,0.8
	s-0.3,0.8-0.3,1.2c0,0.3,0,0.5,0.1,0.8s0.3,0.6,0.7,1s0.9,0.8,1.6,1.2c0.8,0.5,1.3,0.8,1.4,0.9c1,0.6,1.8,1.2,2.4,1.7
	s1.1,1.1,1.4,1.7s0.5,1.3,0.5,2.1c0,0.7-0.1,1.4-0.4,2s-0.7,1.1-1.2,1.5s-1.1,0.8-1.8,1s-1.5,0.4-2.3,0.4s-1.8-0.2-2.9-0.5
	c-0.1,0-0.3-0.1-0.5-0.1s-0.4-0.1-0.5-0.1c-0.4,0-0.6,0.2-0.8,0.6h-0.4l0.1-4.9h0.5c0.2,0.9,0.5,1.7,1,2.3s1,1.1,1.7,1.3
	s1.2,0.4,1.8,0.4c0.9,0,1.6-0.2,2.2-0.7s0.8-1.1,0.8-1.8c0-0.5-0.1-0.9-0.4-1.2s-0.6-0.7-1.1-1s-1.4-0.9-2.7-1.8
	c-0.7-0.5-1.3-0.9-1.8-1.3s-0.9-0.8-1.1-1.2s-0.5-0.8-0.6-1.2S55,34.9,55,34.5c0-0.8,0.2-1.7,0.7-2.5s1.1-1.5,1.8-2s1.7-0.8,2.7-0.8
	c0.5,0,0.9,0,1.4,0.1c0.1,0,0.3,0,0.5,0.1s0.4,0.1,0.5,0.1c0.3,0.1,0.6,0.1,0.8,0.1c0.3,0,0.4,0,0.6-0.1s0.2-0.2,0.3-0.4h0.4
	L64.6,33.7L64.6,33.7z"/>
<path class="st4" d="M68.5,29.4h12.1c0.6,0,1-0.1,1.4-0.2h0.3l0.1,4.1h-0.3c-0.2-1.2-0.5-1.9-0.9-2.3s-0.9-0.5-1.5-0.5h-3.2v13.6
	c0,0.5,0.1,0.8,0.2,1.2s0.3,0.6,0.6,0.8s0.8,0.3,1.4,0.3v0.3h-8.1v-0.3c0.9,0,1.5-0.2,1.8-0.6s0.4-1,0.4-1.6V30.5h-3.2
	c-0.6,0-1,0.2-1.3,0.5s-0.7,1.1-1,2.2h-0.4l0.1-4h0.3C67.5,29.3,68,29.4,68.5,29.4L68.5,29.4z"/>
<path class="st4" d="M89.7,38.5h-0.6v5.5c0,0.7,0.1,1.2,0.3,1.5s0.4,0.5,0.7,0.6s0.7,0.1,1.1,0.2v0.3h-8.1v-0.3
	c0.9,0,1.5-0.2,1.8-0.6s0.4-1,0.4-1.6V32c0-0.8-0.2-1.4-0.5-1.8s-0.9-0.5-1.6-0.5v-0.3h8.9c1.2,0,2.2,0.2,3.1,0.5s1.6,0.9,2,1.6
	c0.5,0.7,0.7,1.4,0.7,2.3c0,0.7-0.2,1.3-0.4,1.9s-0.7,1-1.2,1.3s-1.1,0.6-1.7,0.8c0.8,0.5,1.6,1.4,2.3,2.7l2.1,3.5
	c0.3,0.6,0.7,1.1,1,1.4s0.6,0.5,0.8,0.7s0.5,0.2,0.7,0.2v0.3H96c-0.5-1-0.9-1.8-1.2-2.3c-0.9-1.8-1.6-3.1-2-3.8s-0.9-1.2-1.3-1.5
	S90.4,38.6,89.7,38.5L89.7,38.5z M90.1,30.3h-0.9v7.2H90c1.3,0,2.4-0.3,3-1s1-1.6,1-2.8c0-0.8-0.2-1.4-0.4-1.9
	c-0.3-0.5-0.7-0.9-1.3-1.2S91,30.3,90.1,30.3L90.1,30.3z"/>
<path class="st4" d="M114.8,46.6v-3.3h-0.1c-1.3,2.3-3.1,3.5-5.6,3.5c-1.3,0-2.4-0.3-3.4-0.9s-1.7-1.3-2.2-2.2
	c-0.5-0.9-0.8-2.4-0.8-4.5v-7.3c0-0.7-0.2-1.3-0.4-1.7s-0.9-0.6-1.7-0.6v-0.3h8.1v0.3c-0.9,0-1.5,0.2-1.7,0.6s-0.4,1-0.4,1.6v7.7
	c0,1.1,0.1,2,0.4,2.7c0.2,0.5,0.5,0.9,0.8,1.2s0.8,0.6,1.2,0.8s1,0.3,1.5,0.3s1.1-0.1,1.6-0.3s0.9-0.5,1.3-0.8s0.7-0.8,0.9-1.2
	c0.3-0.7,0.4-1.7,0.4-3.1v-7.2c0-0.8-0.2-1.4-0.5-1.8s-0.9-0.5-1.6-0.5v-0.3h8.1v0.3c-0.9,0-1.5,0.2-1.7,0.6s-0.4,1-0.4,1.6V44
	c0,0.8,0.1,1.3,0.5,1.7s0.9,0.5,1.7,0.5v0.3L114.8,46.6L114.8,46.6z"/>
<path class="st4" d="M131.3,29.4h7.3v0.3c-0.9,0.1-1.8,0.4-2.7,0.9s-1.6,1.2-2.3,1.9l-3.1,3.2l7.1,8.7c1,1.2,1.9,1.8,2.8,1.9v0.3h-8
	v-0.3c0.3,0,0.5-0.1,0.7-0.2s0.3-0.2,0.3-0.5s-0.2-0.5-0.5-0.9l-5.3-6.6h-0.1v5.9c0,0.8,0.2,1.4,0.5,1.7s0.9,0.5,1.6,0.5v0.3h-8.1
	v-0.3c0.9,0,1.5-0.2,1.8-0.6s0.4-1,0.4-1.6V32c0-0.8-0.1-1.4-0.4-1.7s-0.9-0.5-1.7-0.5v-0.3h8.1v0.3c-0.9,0-1.5,0.2-1.7,0.6
	s-0.4,1-0.4,1.6v5.6l5.1-5.4c0.5-0.6,0.8-1.1,0.8-1.5c0-0.7-0.7-1-2-1L131.3,29.4L131.3,29.4z"/>
<path class="st4" d="M142.9,29.4h12.1c0.6,0,1-0.1,1.4-0.2h0.3l0.1,4.1h-0.3c-0.2-1.2-0.5-1.9-0.9-2.3s-0.9-0.5-1.5-0.5h-3.2v13.6
	c0,0.5,0.1,0.8,0.1,1.2s0.3,0.6,0.6,0.8s0.8,0.3,1.4,0.3v0.3h-8.1v-0.3c0.9,0,1.5-0.2,1.8-0.6s0.4-1,0.4-1.6V30.5h-3.2
	c-0.6,0-1,0.2-1.3,0.5s-0.7,1.1-1,2.2h-0.4l0.1-4h0.3C141.9,29.3,142.3,29.4,142.9,29.4L142.9,29.4z"/>
<path class="st4" d="M157.5,29.7v-0.3h8.1v0.3c-0.9,0-1.5,0.2-1.7,0.6s-0.4,1-0.4,1.6v12.1c0,0.4,0,0.7,0.1,1s0.3,0.6,0.6,0.8
	s0.8,0.4,1.4,0.4h0.1v0.3h-8.1v-0.3c0.9,0,1.5-0.2,1.7-0.6s0.4-1,0.4-1.6V32c0-0.8-0.2-1.4-0.5-1.7S158.2,29.7,157.5,29.7
	L157.5,29.7z"/>
<path class="st4" d="M166.8,38c0-1.2,0.2-2.3,0.6-3.4s1-2,1.8-2.8c0.8-0.8,1.7-1.4,2.8-1.9s2.4-0.7,3.8-0.7s2.7,0.2,3.8,0.7
	s2.1,1.1,2.8,1.9s1.4,1.8,1.8,2.8s0.6,2.2,0.6,3.4s-0.2,2.3-0.6,3.4s-1,2-1.7,2.8s-1.7,1.5-2.8,1.9s-2.4,0.7-3.9,0.7
	c-1.6,0-2.9-0.3-4.1-0.8s-2.1-1.2-2.8-2.1s-1.3-1.8-1.6-2.9S166.8,39,166.8,38L166.8,38z M170.9,37.7c0,1.2,0.1,2.3,0.3,3.5
	s0.6,2.2,1.4,3.2s1.8,1.5,3.3,1.5c2.1,0,3.4-0.8,4-2.5s0.9-3.4,0.9-5.1c0-1.3-0.1-2.6-0.4-3.8s-0.7-2.2-1.4-3
	c-0.7-0.8-1.7-1.3-3.1-1.3c-1.5,0-2.6,0.5-3.3,1.4s-1.2,2-1.4,3.1S170.9,36.8,170.9,37.7L170.9,37.7z"/>
<path class="st4" d="M192.3,29.4l10.5,11.1v-7.9c0-1-0.2-1.7-0.6-2.1s-1.1-0.6-1.9-0.8v-0.3h5.9v0.3c-0.7,0.1-1.1,0.2-1.5,0.5
	s-0.5,0.6-0.6,1s-0.1,0.8-0.1,1.4v14.2h-0.4l-12.6-13.3v9.7c0,0.8,0.2,1.5,0.5,2.1s1,0.9,1.9,1v0.3h-6.2v-0.3c1.7-0.1,2.6-1,2.6-2.5
	V32.3c0,0-0.1-0.1-0.2-0.2c-0.1-0.1-0.2-0.2-0.4-0.3s-0.3-0.3-0.4-0.4c-1.1-1-2-1.6-2.8-1.7v-0.3L192.3,29.4L192.3,29.4z"/>
</svg>
