<?xml version="1.0" encoding="UTF-8"?><svg id="Layer_1" xmlns="http://www.w3.org/2000/svg" width="1920" height="1080" viewBox="0 0 1920 1080"><defs><style>.cls-1{fill:#d4145a;stroke:#000;stroke-miterlimit:10;stroke-width:2px;}.cls-2{fill:lime;}</style></defs><rect class="cls-2" x=".5" y=".5" width="1919" height="1079"/><path d="m1919,1v1078H1V1h1918m1-1H0v1080h1920V0h0Z"/><path class="cls-1" d="m494.6,439.74h1.21c2.18,0,4.11-1.56,5.78-4.7,1.67-3.13,2.51-7.53,2.51-13.2v-122.86c0-6.78-.94-11.49-2.82-14.14-1.88-2.65-4.11-4.05-6.69-4.2v-1.88h28.52v1.88c-2.5.15-4.72,1.51-6.66,4.09-1.94,2.58-2.91,7.33-2.91,14.25v118.77c0,7.07.97,11.97,2.91,14.69,1.94,2.73,5.11,4.09,9.51,4.09h7.69c3.35,0,6.03-.74,8.02-2.21,2-1.47,3.58-3.72,4.75-6.74,1.17-3.02,2.36-7.29,3.57-12.82h1.03l-3.39,26.74h-53.05v-1.77Z"/><path class="cls-1" d="m556.37,280.64v-1.88h53.17v25.63h-.85c0-13.7-5.01-20.55-15.02-20.55h-18.59v73.92h16.35c3.23,0,6.12-.96,8.66-2.87,2.54-1.91,4-6.3,4.36-13.15h.91v36.9h-.91c-.36-4.2-1.05-7.42-2.06-9.67-1.01-2.25-2.01-3.74-3-4.47-.99-.74-1.87-1.1-2.63-1.1-1.45-.44-2.97-.66-4.54-.66h-17.14v57.78c0,4.35.45,8.1,1.36,11.27.91,3.17,3.02,4.75,6.33,4.75h13.26c3.19,0,5.81-.85,7.87-2.54,2.06-1.69,3.68-4.05,4.88-7.07,1.19-3.02,2.19-6.67,3-10.94h.85l-3.09,25.52h-53.17v-1.77h1.21c1.9,0,3.75-1.4,5.57-4.2,1.82-2.8,2.73-7.36,2.73-13.7v-122.64c0-5.01-.62-9.35-1.85-13.04-1.23-3.68-3.38-5.52-6.45-5.52h-1.21Z"/><path class="cls-1" d="m699.17,278.76v1.88c-2.26.52-4.14,1.92-5.63,4.2-1.49,2.28-2.77,5.25-3.82,8.89-1.05,3.65-2.24,8.49-3.57,14.53-.2.37-.4,1.25-.61,2.65l-25.8,134.9h-.85l-30.4-145.95c0-.29-.08-.74-.24-1.33-1.17-6.26-2.72-10.83-4.63-13.7-1.92-2.87-4.31-4.27-7.18-4.2v-1.88h29.31v1.88c-2.46.44-4.44,1.33-5.94,2.65-1.49,1.33-2.24,4.49-2.24,9.5,0,1.33.32,4.05.97,8.18.08.37.15.76.21,1.16.06.41.11.72.15.94l23.44,114.24h.24l20.11-106.4c1.41-7.29,2.12-12.78,2.12-16.46,0-5.82-.68-9.5-2.03-11.05-1.35-1.55-3.36-2.47-6.03-2.76v-1.88h22.41Z"/><path class="cls-1" d="m704.92,280.64v-1.88h53.17v25.63h-.85c0-13.7-5.01-20.55-15.02-20.55h-18.59v73.92h16.35c3.23,0,6.12-.96,8.66-2.87,2.54-1.91,4-6.3,4.36-13.15h.91v36.9h-.91c-.36-4.2-1.05-7.42-2.06-9.67-1.01-2.25-2.01-3.74-3-4.47-.99-.74-1.87-1.1-2.63-1.1-1.45-.44-2.97-.66-4.54-.66h-17.14v57.78c0,4.35.45,8.1,1.36,11.27.91,3.17,3.02,4.75,6.33,4.75h13.26c3.19,0,5.81-.85,7.87-2.54,2.06-1.69,3.68-4.05,4.88-7.07,1.19-3.02,2.19-6.67,3-10.94h.85l-3.09,25.52h-53.17v-1.77h1.21c1.9,0,3.75-1.4,5.57-4.2,1.82-2.8,2.73-7.36,2.73-13.7v-122.64c0-5.01-.62-9.35-1.85-13.04-1.23-3.68-3.38-5.52-6.45-5.52h-1.21Z"/><path class="cls-1" d="m768.39,439.74h1.21c2.18,0,4.11-1.56,5.78-4.7,1.67-3.13,2.51-7.53,2.51-13.2v-122.86c0-6.78-.94-11.49-2.82-14.14-1.88-2.65-4.11-4.05-6.69-4.2v-1.88h28.52v1.88c-2.5.15-4.72,1.51-6.66,4.09-1.94,2.58-2.91,7.33-2.91,14.25v118.77c0,7.07.97,11.97,2.91,14.69,1.94,2.73,5.11,4.09,9.51,4.09h7.69c3.35,0,6.03-.74,8.02-2.21,2-1.47,3.58-3.72,4.75-6.74,1.17-3.02,2.36-7.29,3.57-12.82h1.03l-3.39,26.74h-53.05v-1.77Z"/><path class="cls-1" d="m952.13,315.22h-1.03c-.77-7.95-2.82-14.69-6.15-20.22-3.33-5.52-7.16-9.56-11.48-12.1-4.32-2.54-8.36-3.81-12.11-3.81-5.13,0-9.94,1.97-14.44,5.91-4.5,3.94-8.39,9.5-11.66,16.68-3.27,7.18-5.81,15.8-7.63,25.85-1.82,10.05-2.73,20.98-2.73,32.76s.88,22.01,2.63,31.76c1.76,9.76,4.32,18.23,7.69,25.41,3.37,7.18,7.28,12.61,11.72,16.3,4.44,3.68,9.37,5.52,14.78,5.52,4.52,0,9.49-1.67,14.9-5.03,5.41-3.35,10.29-8.93,14.66-16.74v6.3c-5.37,7.59-10.29,13.15-14.75,16.68-4.46,3.54-10.02,5.3-16.68,5.3-7.02,0-13.43-2.34-19.23-7.02-5.79-4.68-10.69-10.99-14.69-18.95-4-7.96-7.02-16.9-9.08-26.85s-3.09-20.18-3.09-30.72c0-15.84,2.14-30.55,6.42-44.14,4.28-13.59,10.07-24.34,17.38-32.26,7.31-7.92,15.24-11.88,23.8-11.88,5.29,0,10.92,1.44,16.9,4.31l6.3,3.2c1.21.44,2.24.66,3.09.66,1.57,0,2.62-.42,3.15-1.27.52-.85.93-2.38,1.21-4.59h.97l-.85,38.89Z"/><path class="cls-1" d="m1057.08,360.3c0,15.25-2.07,29.43-6.21,42.54-4.14,13.11-9.78,23.55-16.93,31.32-7.14,7.77-15.06,11.66-23.74,11.66s-16.71-3.89-23.98-11.66c-7.27-7.77-12.99-18.25-17.17-31.43-4.18-13.18-6.27-27.55-6.27-43.09,0-11.93,1.24-23.15,3.72-33.64,2.48-10.5,5.96-19.65,10.42-27.46,4.46-7.81,9.55-13.85,15.26-18.12,5.71-4.27,11.68-6.41,17.9-6.41s11.95,2.04,17.56,6.13c5.61,4.09,10.65,10,15.11,17.73,4.46,7.73,7.96,16.9,10.51,27.51,2.54,10.61,3.82,22.25,3.82,34.91Zm-10.66.44c0-21.66-2.1-38.6-6.3-50.82-4.2-12.23-9.04-20.42-14.54-24.58-5.49-4.16-10.66-6.24-15.5-6.24-3.76,0-7.65,1.12-11.69,3.37-4.04,2.25-7.96,6.35-11.78,12.32s-6.96,14.36-9.42,25.19-3.69,24.2-3.69,40.11c0,14,1.02,26.2,3.06,36.63,2.04,10.42,4.84,18.93,8.42,25.52,3.57,6.59,7.51,11.34,11.81,14.25,4.3,2.91,8.77,4.36,13.41,4.36,4.16,0,8.37-1.34,12.63-4.03,4.26-2.69,8.15-7.07,11.69-13.15,3.53-6.08,6.4-14.33,8.6-24.75,2.2-10.42,3.3-23.15,3.3-38.17Z"/><path class="cls-1" d="m1162.75,278.76v1.88c-1.7.37-2.91.68-3.63.94-.73.26-1.54,1.01-2.42,2.27-1.37,1.92-2.23,3.72-2.57,5.41-.34,1.7-.56,4.64-.64,8.84-.12.66-.12,1.33,0,1.99l3.09,120.87c.08,5.08.75,9.47,2,13.15,1.25,3.68,3.98,5.56,8.17,5.63v1.77h-28.89v-1.77c3.79-.74,6.36-2.74,7.69-6.02,1.33-3.28,1.9-8.38,1.7-15.3l-3.09-125.07h-.24l-31.49,148.16-29.79-142.75h-.24l-3.21,115.35c-.16,6.34.05,11.25.64,14.75.58,3.5,1.52,6,2.82,7.51,1.29,1.51,3.21,2.63,5.75,3.37v1.77h-22.47v-1.77c2.87-.07,5.05-1.33,6.54-3.76,1.49-2.43,2.47-5.47,2.94-9.12.46-3.65.82-8.63,1.06-14.97l3.57-119.33c0-.44-.24-1.23-.73-2.38-.48-1.14-1.08-2.28-1.79-3.43-.71-1.14-1.38-2.04-2.03-2.71-1.37-1.55-2.56-2.45-3.57-2.71-1.01-.26-2.42-.5-4.24-.72v-1.88h20.71l27.62,133.14,28.04-133.14h18.71Z"/><path class="cls-1" d="m1174.32,280.64v-1.88h29.25c4.88,0,9.19,1.22,12.93,3.65,3.73,2.43,6.84,5.75,9.33,9.94,2.48,4.2,4.34,8.93,5.57,14.2,1.23,5.27,1.85,10.81,1.85,16.63s-.58,11.14-1.73,16.41c-1.15,5.27-2.96,9.94-5.42,14.03-2.46,4.09-5.69,7.35-9.69,9.78s-8.6,3.65-13.81,3.65c-1.66,0-4.84-.44-9.57-1.33v56.13c0,11.56,3.23,17.53,9.69,17.9v1.77h-28.4v-1.77c2.79-.15,5.08-1.6,6.87-4.36,1.8-2.76,2.7-7.27,2.7-13.53v-123.08c0-3.76-.32-6.89-.97-9.39-.65-2.5-1.4-4.29-2.27-5.36-.87-1.07-1.84-1.86-2.91-2.38-1.07-.51-1.81-.85-2.21-.99h-1.21Zm18.71,3.87v76.68c3.11,1.03,6.18,1.55,9.21,1.55,5.77,0,10.67-2.71,14.69-8.12,4.02-5.41,6.03-15.45,6.03-30.11,0-12.08-1.77-22-5.3-29.78-3.53-7.77-8.89-11.66-16.08-11.66-2.79,0-5.63.48-8.54,1.44Z"/><path class="cls-1" d="m1241.42,439.74h1.21c2.18,0,4.11-1.56,5.78-4.7,1.67-3.13,2.51-7.53,2.51-13.2v-122.86c0-6.78-.94-11.49-2.82-14.14-1.88-2.65-4.11-4.05-6.69-4.2v-1.88h28.52v1.88c-2.5.15-4.72,1.51-6.66,4.09-1.94,2.58-2.91,7.33-2.91,14.25v118.77c0,7.07.97,11.97,2.91,14.69,1.94,2.73,5.11,4.09,9.51,4.09h7.69c3.35,0,6.03-.74,8.02-2.21,2-1.47,3.58-3.72,4.75-6.74,1.17-3.02,2.36-7.29,3.57-12.82h1.03l-3.39,26.74h-53.05v-1.77Z"/><path class="cls-1" d="m1303.19,280.64v-1.88h53.17v25.63h-.85c0-13.7-5.01-20.55-15.02-20.55h-18.59v73.92h16.35c3.23,0,6.12-.96,8.66-2.87,2.54-1.91,4-6.3,4.36-13.15h.91v36.9h-.91c-.36-4.2-1.05-7.42-2.06-9.67-1.01-2.25-2.01-3.74-3-4.47-.99-.74-1.87-1.1-2.63-1.1-1.45-.44-2.97-.66-4.54-.66h-17.14v57.78c0,4.35.45,8.1,1.36,11.27.91,3.17,3.02,4.75,6.33,4.75h13.26c3.19,0,5.81-.85,7.87-2.54,2.06-1.69,3.68-4.05,4.88-7.07,1.19-3.02,2.19-6.67,3-10.94h.85l-3.09,25.52h-53.17v-1.77h1.21c1.9,0,3.75-1.4,5.57-4.2,1.82-2.8,2.73-7.36,2.73-13.7v-122.64c0-5.01-.62-9.35-1.85-13.04-1.23-3.68-3.38-5.52-6.45-5.52h-1.21Z"/><path class="cls-1" d="m1442.66,310.47h-.97c-.45-10.61-2.14-17.47-5.09-20.61-2.95-3.13-6.58-4.7-10.9-4.7h-17.74v136.67c0,11.56,3.23,17.53,9.69,17.9v1.77h-28.4v-1.77c2.66-.15,4.91-1.56,6.75-4.25,1.84-2.69,2.76-7.24,2.76-13.65v-136.67h-17.74c-4.32,0-7.94,1.57-10.87,4.7-2.93,3.13-4.63,10-5.12,20.61h-.97v-39.78h.97c.64,1.84,1.21,3.2,1.7,4.09.48.88,1.11,1.64,1.88,2.27.77.63,1.67,1.07,2.7,1.33,1.03.26,2.25.39,3.66.39h57.77c3.83,0,6.82-2.69,8.96-8.07h.97v39.78Z"/><path class="cls-1" d="m1449.14,280.64v-1.88h53.17v25.63h-.85c0-13.7-5.01-20.55-15.02-20.55h-18.59v73.92h16.35c3.23,0,6.12-.96,8.66-2.87,2.54-1.91,4-6.3,4.36-13.15h.91v36.9h-.91c-.36-4.2-1.05-7.42-2.06-9.67-1.01-2.25-2.01-3.74-3-4.47-.99-.74-1.87-1.1-2.63-1.1-1.45-.44-2.97-.66-4.54-.66h-17.14v57.78c0,4.35.45,8.1,1.36,11.27.91,3.17,3.02,4.75,6.33,4.75h13.26c3.19,0,5.81-.85,7.87-2.54,2.06-1.69,3.68-4.05,4.88-7.07,1.19-3.02,2.19-6.67,3-10.94h.85l-3.09,25.52h-53.17v-1.77h1.21c1.9,0,3.75-1.4,5.57-4.2,1.82-2.8,2.73-7.36,2.73-13.7v-122.64c0-5.01-.62-9.35-1.85-13.04-1.23-3.68-3.38-5.52-6.45-5.52h-1.21Z"/></svg>