<?xml version="1.0" encoding="utf-8"?>
<!-- Generator: Adobe Illustrator 27.4.1, SVG Export Plug-In . SVG Version: 6.00 Build 0)  -->
<svg version="1.1" id="Layer_1" xmlns="http://www.w3.org/2000/svg" xmlns:xlink="http://www.w3.org/1999/xlink" x="0px" y="0px"
	 viewBox="0 0 120 120" style="enable-background:new 0 0 120 120;" xml:space="preserve">
<g>
	<g>
		<g>
			<path d="M59.6,107.8c-5.7,0-5.7,1.6-5.7,2.9c0,4.1,3.2,9.3,5.7,9.3c2.5,0,5.7-5.2,5.7-9.3C65.3,109.3,65.3,107.8,59.6,107.8z"/>
			<path d="M13.3,45.3c0.7-12.3,5.4-21.6,14-27.6c4.8-3.3,10.8-5.6,18-6.8C41.1,4.1,33.9,0,26.1,0C13.3,0,2.9,11.1,2.9,24.7
				C2.9,33.1,6.9,40.8,13.3,45.3z"/>
			<path d="M105.9,45.8c6.9-4.4,11.2-12.3,11.2-21.1C117.1,11.1,106.7,0,93.9,0c-7.9,0-15,4.2-19.3,11c6.9,1.3,12.6,3.5,17.2,6.7
				C100.6,23.8,105.3,33.2,105.9,45.8z"/>
			<path d="M118.1,83.9c-9-4.2-18.2-4.9-25.8-4.4c4.5-9.9,7.2-21,7.2-31c0-11.6-3.7-19.8-11.2-25c-6.6-4.6-16.2-6.9-28.7-6.9
				s-22.2,2.3-28.7,6.9c-7.5,5.2-11.2,13.4-11.2,25c0,10,2.7,21.1,7.2,31c-7.5-0.4-16.3,0.4-25,4.4c-1.6,0.8-2.4,2.8-1.7,4.5
				c0.7,1.7,2.6,2.5,4.2,1.8c9.2-4.3,18.7-4.4,26.2-3.4c1.6,2.7,3.3,5.2,5.1,7.5c-8.5,2.5-20.5,7.9-29.4,19.3
				c-1.1,1.5-1,3.6,0.4,4.8c0.6,0.5,1.3,0.8,2.1,0.8c0.9,0,1.8-0.4,2.5-1.2c9-11.6,22.2-16.2,29.7-18c2.4,2.3,5,4.2,7.6,5.6
				c0.9-1.5,2-2.4,3.1-3c1.9-1.1,4.4-1.6,7.9-1.6c3.4,0,5.9,0.5,7.9,1.6c1.1,0.6,2.2,1.6,3.1,3c2.7-1.5,5.3-3.4,7.8-5.8
				c7.4,1.6,21,6.1,30.4,18.1c0.6,0.8,1.6,1.2,2.5,1.2c0.7,0,1.5-0.3,2.1-0.8c1.4-1.2,1.6-3.4,0.4-4.8
				c-9.1-11.7-21.6-17.1-30.1-19.5c1.7-2.2,3.4-4.6,4.9-7.2c7.6-1.1,17.5-1.1,27.1,3.3c0.4,0.2,0.9,0.3,1.3,0.3c1.2,0,2.4-0.8,3-2.1
				C120.4,86.6,119.7,84.6,118.1,83.9z M44.1,67.1c-2,0-3.7-1.8-3.7-3.9c0-2.2,1.6-3.9,3.7-3.9c2,0,3.7,1.8,3.7,3.9
				C47.8,65.3,46.1,67.1,44.1,67.1z M76.1,67.1c-2,0-3.7-1.8-3.7-3.9c0-2.2,1.6-3.9,3.7-3.9c2,0,3.7,1.8,3.7,3.9
				C79.8,65.3,78.1,67.1,76.1,67.1z"/>
		</g>
	</g>
</g>
</svg>
