<?xml version="1.0" encoding="utf-8"?>
<!-- Generator: Adobe Illustrator 27.4.1, SVG Export Plug-In . SVG Version: 6.00 Build 0)  -->
<svg version="1.1" id="Layer_1" xmlns="http://www.w3.org/2000/svg" xmlns:xlink="http://www.w3.org/1999/xlink" x="0px" y="0px"
	 viewBox="0 0 225 75" style="enable-background:new 0 0 225 75;" xml:space="preserve">
<style type="text/css">
	.st0{clip-path:url(#SVGID_00000020400402423053814830000003333227568220942252_);}
	.st1{clip-path:url(#SVGID_00000087410571148489176350000007381171112677989033_);}
	.st2{fill:#E9967A;}
	.st3{fill:none;stroke:#000000;stroke-width:2;stroke-miterlimit:10;}
	.st4{fill:#D4145A;stroke:#000000;stroke-width:2;stroke-miterlimit:10;}
</style>
<g id="Lille_knap">
	<g>
		<defs>
			<rect id="SVGID_1_" x="2.5" y="5" width="220" height="65"/>
		</defs>
		<clipPath id="SVGID_00000003082817569534216320000000751059194414991246_">
			<use xlink:href="#SVGID_1_"  style="overflow:visible;"/>
		</clipPath>
		<g style="clip-path:url(#SVGID_00000003082817569534216320000000751059194414991246_);">
			<g>
				<defs>
					<rect id="SVGID_00000140006155017984101280000007537414627815290031_" x="2.5" y="5" width="220" height="65"/>
				</defs>
				<clipPath id="SVGID_00000012459194600135843170000013454483531043455387_">
					<use xlink:href="#SVGID_00000140006155017984101280000007537414627815290031_"  style="overflow:visible;"/>
				</clipPath>
				<g style="clip-path:url(#SVGID_00000012459194600135843170000013454483531043455387_);">
					<path class="st2" d="M196,69H29C15,69,3.7,59.6,3.7,48V27.1C3.7,15.4,15,6,29,6h167c14,0,25.3,9.4,25.3,21.1v20.9
						C221.3,59.6,210,69,196,69"/>
					<path class="st3" d="M29,6H196c14,0,25.3,9.4,25.3,21.1V48C221.3,59.6,210,69,196,69H29C15,69,3.7,59.6,3.7,48V27
						C3.7,15.4,15,6,29,6z"/>
				</g>
			</g>
		</g>
	</g>
</g>
<path class="st4" d="M92.1,31h-0.7c-0.5-1.6-1.2-2.9-2.2-3.8s-2.3-1.4-3.7-1.4c-0.7,0-1.4,0.1-2,0.4s-1.1,0.7-1.4,1.2
	c-0.3,0.5-0.5,1.1-0.5,1.8c0,0.4,0.1,0.8,0.2,1.2c0.1,0.4,0.5,0.9,1,1.4c0.5,0.6,1.3,1.2,2.4,1.9c1.2,0.7,1.9,1.2,2.2,1.4
	c1.5,0.9,2.7,1.8,3.6,2.6s1.7,1.7,2.1,2.6c0.5,0.9,0.7,2,0.7,3.2c0,1.1-0.2,2.1-0.6,2.9s-1,1.7-1.8,2.3c-0.8,0.6-1.7,1.2-2.7,1.5
	c-1.1,0.4-2.2,0.5-3.4,0.5s-2.8-0.2-4.4-0.7c-0.2,0-0.4-0.1-0.7-0.2c-0.3-0.1-0.5-0.1-0.8-0.1c-0.6,0-1,0.3-1.2,0.9h-0.6l0.2-7.3
	h0.7c0.2,1.4,0.7,2.5,1.4,3.5c0.7,0.9,1.6,1.6,2.5,2c0.9,0.4,1.8,0.6,2.7,0.6c1.3,0,2.4-0.4,3.2-1.1c0.9-0.7,1.3-1.6,1.3-2.7
	c0-0.7-0.2-1.3-0.5-1.8c-0.4-0.5-0.9-1-1.6-1.6c-0.7-0.5-2.1-1.4-4-2.7c-1-0.7-1.9-1.3-2.7-2c-0.7-0.6-1.3-1.2-1.7-1.8
	c-0.4-0.6-0.7-1.2-0.9-1.7s-0.2-1.2-0.2-1.8c0-1.3,0.3-2.5,1-3.7c0.6-1.2,1.6-2.2,2.8-3s2.6-1.2,4.1-1.2c0.7,0,1.4,0.1,2.1,0.2
	c0.2,0,0.4,0.1,0.7,0.1s0.5,0.1,0.7,0.2c0.5,0.1,0.9,0.1,1.2,0.1c0.4,0,0.7-0.1,0.8-0.2s0.3-0.3,0.4-0.6h0.5L92.1,31L92.1,31z"/>
<path class="st4" d="M104,38.7v7.9c0,1,0.2,1.7,0.5,2.2s0.7,0.8,1.2,1s1.1,0.2,1.7,0.2v0.5H95v-0.5c0.8,0,1.6-0.2,2.2-0.5
	s1-1.2,1-2.4V28.5c0-1.2-0.3-2.1-0.8-2.6s-1.3-0.8-2.4-0.8v-0.5h13.7c1.9,0,3.4,0.4,4.7,1.1s2.1,1.6,2.6,2.7s0.8,2.2,0.8,3.3
	c0,1.3-0.3,2.5-0.8,3.4s-1.2,1.6-1.9,2.1c-0.8,0.6-1.8,1.1-2.8,1.4s-2.4,0.5-4.2,0.5C106.3,38.9,105.2,38.9,104,38.7L104,38.7z
	 M104,26.2v11.1c0.6,0.1,1.2,0.2,1.7,0.2c1.3,0,2.3-0.3,3.1-0.9s1.4-1.4,1.7-2.3s0.5-1.8,0.5-2.8c0-1-0.2-1.9-0.5-2.7
	s-0.9-1.5-1.7-2s-1.8-0.8-3.1-0.8C105.1,26,104.6,26,104,26.2L104,26.2z"/>
<path class="st4" d="M118.1,25v-0.5h12.2v0.5c-1.4,0-2.2,0.3-2.6,0.9s-0.6,1.4-0.6,2.4v18.2c0,0.6,0.1,1.1,0.2,1.5s0.4,0.9,0.8,1.2
	c0.5,0.4,1.1,0.5,2.1,0.5h0.1v0.5h-12.2v-0.5c1.3,0,2.2-0.3,2.6-0.9s0.6-1.4,0.6-2.4V28.4c0-1.2-0.3-2.1-0.8-2.6
	C120,25.3,119.2,25,118.1,25L118.1,25z"/>
<path class="st4" d="M150.9,50.4h-19.7v-0.5c1.4,0,2.2-0.3,2.6-0.9s0.6-1.4,0.6-2.4V28.4c0-1.1-0.2-2-0.7-2.5
	c-0.5-0.6-1.3-0.8-2.5-0.8v-0.5h12.2v0.5c-1.3,0-2.2,0.3-2.7,0.9c-0.4,0.6-0.6,1.4-0.6,2.5v17.3c0,1.1,0.2,1.9,0.6,2.4
	s1.2,0.8,2.4,0.8h1.8c1.2,0,2.4-0.3,3.4-0.9s2-2.1,2.9-4.3h0.5C151.8,43.7,150.9,50.4,150.9,50.4z"/>
</svg>
