<?xml version="1.0" encoding="utf-8"?>
<!-- Generator: Adobe Illustrator 27.4.1, SVG Export Plug-In . SVG Version: 6.00 Build 0)  -->
<svg version="1.1" id="Layer_1" xmlns="http://www.w3.org/2000/svg" xmlns:xlink="http://www.w3.org/1999/xlink" x="0px" y="0px"
	 viewBox="0 0 1920 1080" style="enable-background:new 0 0 1920 1080;" xml:space="preserve">
<style type="text/css">
	.st0{fill:#00FF00;}
	.st1{fill:#D4145A;stroke:#000000;stroke-width:3;stroke-miterlimit:10;}
	.st2{clip-path:url(#SVGID_00000065056730751477226510000003124504731468069809_);}
	.st3{clip-path:url(#SVGID_00000005258752632383642700000001655432798532083328_);}
	.st4{fill:#FFFFFF;}
	.st5{fill:none;stroke:#000000;stroke-width:0.71;stroke-miterlimit:10;}
	.st6{clip-path:url(#SVGID_00000170971448124419515240000014791622079084352678_);}
	.st7{clip-path:url(#SVGID_00000180366003324528648160000013244848931817113511_);}
	.st8{fill:#545353;}
	.st9{fill:none;stroke:#545353;stroke-width:0.45;stroke-miterlimit:10;}
	.st10{clip-path:url(#SVGID_00000076597370487435747720000016983670207704802210_);}
	.st11{clip-path:url(#SVGID_00000018210823987030933810000017172867309339961517_);}
	.st12{fill:#E9967A;stroke:#000000;stroke-miterlimit:10;}
	.st13{fill:#FFFFFF;stroke:#000000;stroke-miterlimit:10;}
	.st14{stroke:#000000;stroke-miterlimit:10;}
	.st15{fill:#E9967A;}
	.st16{clip-path:url(#SVGID_00000089569248180592262490000011640867264897927558_);}
	.st17{clip-path:url(#SVGID_00000103234557269893725000000009041188259118628259_);}
	.st18{fill:none;stroke:#000000;stroke-width:0.72;stroke-miterlimit:10;}
	.st19{clip-path:url(#SVGID_00000039855849409130409410000015586803742124143790_);}
	.st20{clip-path:url(#SVGID_00000107584258443939936770000011440701925291934085_);}
	.st21{fill:none;stroke:#000000;stroke-width:0.69;stroke-miterlimit:10;}
	.st22{clip-path:url(#SVGID_00000152235171022547784230000016704055964788495807_);}
	.st23{clip-path:url(#SVGID_00000126288349652468306280000007928560748956407942_);}
	.st24{clip-path:url(#SVGID_00000159429772085262497210000015091758857607258523_);}
	.st25{clip-path:url(#SVGID_00000046328088220071275570000008849776322048218262_);}
	.st26{fill:none;stroke:#000000;stroke-width:1.02;stroke-miterlimit:10;}
	.st27{clip-path:url(#SVGID_00000168082118576020840640000010690828964619949217_);}
	.st28{clip-path:url(#SVGID_00000091701836717357193700000013199350822261431207_);}
	.st29{fill:none;stroke:#000000;stroke-width:0.87;stroke-miterlimit:10;}
	.st30{clip-path:url(#SVGID_00000147218427345875288950000014066478400599936164_);}
	.st31{clip-path:url(#SVGID_00000053539190289852626680000001364762386641233577_);}
	.st32{fill:none;stroke:#000000;stroke-width:0.83;stroke-miterlimit:10;}
	.st33{clip-path:url(#SVGID_00000176740251845076116300000004552501017156422562_);}
	.st34{clip-path:url(#SVGID_00000129178443025797231630000004274132862591156891_);}
	.st35{fill:none;stroke:#000000;stroke-miterlimit:10;}
	.st36{clip-path:url(#SVGID_00000134928773583922398560000012624980566116443315_);}
	.st37{clip-path:url(#SVGID_00000152958656902095787140000014863345358609130923_);}
	.st38{fill:none;stroke:#000000;stroke-width:0.75;stroke-miterlimit:10;}
	.st39{clip-path:url(#SVGID_00000022530091918274714960000004499107687766463383_);}
	.st40{clip-path:url(#SVGID_00000162341442375638859960000006660514463768689842_);}
	.st41{fill:none;stroke:#000000;stroke-width:0.68;stroke-miterlimit:10;}
	.st42{clip-path:url(#SVGID_00000177446621344335724810000005774614993280237759_);}
	.st43{clip-path:url(#SVGID_00000041265532701603366110000004047746854134283659_);}
	.st44{fill:none;stroke:#000000;stroke-width:0.58;stroke-miterlimit:10;}
	.st45{clip-path:url(#SVGID_00000046316148021807584870000000692000264680064436_);}
	.st46{clip-path:url(#SVGID_00000016061500980821181870000008264134758298033293_);}
	.st47{fill:none;stroke:#000000;stroke-width:0.78;stroke-miterlimit:10;}
	.st48{clip-path:url(#SVGID_00000001623370478207735030000001859801683824040383_);}
	.st49{clip-path:url(#SVGID_00000140703627027282403030000005050884883565216400_);}
	.st50{fill:none;stroke:#000000;stroke-width:0.81;stroke-miterlimit:10;}
	.st51{clip-path:url(#SVGID_00000035491493622254047580000016210730195585503927_);}
	.st52{clip-path:url(#SVGID_00000065071579408924005130000008202192745002368671_);}
	.st53{fill:none;stroke:#000000;stroke-width:0.73;stroke-miterlimit:10;}
	.st54{clip-path:url(#SVGID_00000091000867014744740250000010561826781012963738_);}
	.st55{clip-path:url(#SVGID_00000007417345524650937310000007351581767435740044_);}
	.st56{clip-path:url(#SVGID_00000181805468659984694810000001074235757291342726_);}
	.st57{clip-path:url(#SVGID_00000033329459707012856920000018342889005945169037_);}
	.st58{stroke:#000000;stroke-width:3;stroke-miterlimit:10;}
	.st59{fill:none;stroke:#000000;stroke-width:3;stroke-miterlimit:10;}
</style>
<rect x="1.5" y="0.5" class="st0" width="1919" height="1079"/>
<path d="M1920,1v1078H2V1H1920 M1921,0H1v1080h1920V0L1921,0z"/>
<rect x="1" class="st0" width="1920" height="1080"/>
<path class="st1" d="M802.9,273.5V220h17.8v8.8c0,2.4-0.1,4.8-0.2,7.1c-0.2,2.3-0.3,4.1-0.4,5.6l29.1-21.5h21.4l-30.1,21.6l32,32
	h-20.9l-23.8-24.3l-7.1,5.1v19.2H802.9L802.9,273.5z"/>
<path class="st1" d="M893.5,274.6c-3.7,0-6.9-0.4-9.8-1.3s-5.2-2.2-6.8-3.9c-1.7-1.7-2.5-3.9-2.5-6.4c0-2.8,1-5,2.9-6.6
	c2-1.6,4.6-2.7,7.9-3.5s7-1.3,11-1.6c3.3-0.3,6-0.6,8.1-1c2.1-0.4,3.6-0.9,4.5-1.5c1-0.6,1.4-1.4,1.4-2.4c0-1.4-0.7-2.5-2-3.3
	c-1.3-0.8-3.4-1.3-6.3-1.3c-3.1,0-5.5,0.5-7.1,1.4c-1.6,0.9-2.5,2.1-2.7,3.7h-15.2c0.1-2.2,1.1-4.2,2.9-6.2s4.5-3.5,8.1-4.7
	c3.6-1.2,8.2-1.8,13.7-1.8c3.5,0,6.6,0.2,9.2,0.5s4.9,0.9,6.8,1.7c2.9,1.1,5,2.7,6.4,4.6c1.4,1.9,2.1,4.2,2.1,6.8v19.6
	c0,1.5,0.2,2.7,0.5,3.5s0.9,1.5,1.6,1.8v0.6h-16c-0.4-0.4-0.8-1.1-1.2-1.9c-0.3-0.8-0.6-1.7-0.7-2.8h-0.2c-1.8,1.8-4,3.1-6.6,4.2
	C901.2,274.1,897.8,274.6,893.5,274.6L893.5,274.6z M898.6,267.1c2.5,0,4.6-0.3,6.4-1c1.8-0.6,3.2-1.5,4.2-2.6
	c1-1.1,1.5-2.4,1.5-3.7v-5c-0.8,0.3-1.7,0.6-2.7,0.9c-1,0.2-2.1,0.5-3.3,0.7c-1.2,0.2-2.3,0.4-3.6,0.6c-2.4,0.4-4.4,0.8-6,1.2
	s-2.8,1-3.5,1.7c-0.8,0.7-1.2,1.6-1.2,2.7s0.4,2,1.1,2.6c0.7,0.7,1.7,1.1,3,1.4C895.8,267,897.1,267.1,898.6,267.1L898.6,267.1z"/>
<path class="st1" d="M959.8,274c-3.5,0-6.5-0.3-9.2-0.9s-4.7-1.6-6.2-3.1c-1.5-1.5-2.2-3.5-2.2-6.1v-21.7h-8.5v-7.3h8.5v-12.3h16.2
	v12.3h11v7.3h-11v19.2c0,1.4,0.5,2.4,1.7,2.9c1.1,0.5,2.7,0.8,4.6,0.8c0.5,0,1.2,0,1.9,0c0.7,0,1.3-0.1,1.9-0.1h0.8v8.5
	c-0.9,0.1-2.2,0.2-3.8,0.4S962,274,959.8,274L959.8,274z"/>
<path class="st1" d="M1034.8,274.6c-7,0-13-0.7-18.1-2.1s-9.1-3.5-11.9-6.1s-4.4-5.9-4.5-9.7h18c0.3,1.9,1.2,3.4,2.5,4.6
	c1.3,1.2,3.2,2.1,5.5,2.7s5.2,0.9,8.5,0.9c2.3,0,4.5-0.2,6.5-0.6s3.7-1.1,5-2c1.3-0.9,1.9-2,1.9-3.4c0-1.6-0.7-2.8-2.1-3.7
	c-1.4-0.9-3.4-1.6-6.1-2.1s-5.9-1.1-9.7-1.7c-3.8-0.6-7.3-1.2-10.7-2s-6.3-1.7-8.8-2.8c-2.5-1.1-4.5-2.6-5.9-4.4s-2.2-4.1-2.2-6.9
	c0-3.7,1.3-6.7,4-9.1c2.7-2.4,6.3-4.1,10.9-5.3c4.6-1.1,9.7-1.7,15.5-1.7c4.3,0,8.2,0.3,11.8,1c3.6,0.7,6.7,1.7,9.4,3s4.8,3,6.4,5
	c1.6,2,2.5,4.3,2.8,6.9H1046c-0.4-2.1-1.8-3.7-4.2-4.9c-2.3-1.2-5.4-1.7-9.3-1.7c-3.7,0-6.6,0.5-8.9,1.5c-2.3,1-3.4,2.4-3.4,4.1
	c0,1.4,0.7,2.5,2.2,3.2c1.5,0.8,3.6,1.4,6.4,2c2.8,0.5,6.3,1.1,10.4,1.7c3.5,0.5,6.9,1.2,10.1,1.9s6.1,1.8,8.6,2.9
	c2.5,1.2,4.5,2.8,6,4.7c1.5,1.9,2.2,4.2,2.2,7.1c0,3.6-1.4,6.7-4.1,9.3s-6.5,4.5-11.2,5.8C1046,273.9,1040.7,274.6,1034.8,274.6
	L1034.8,274.6z"/>
<path class="st1" d="M1074.8,286.3v-51.4h16v5.5h0.3c1.3-1.5,2.7-2.7,4.4-3.7c1.7-1,3.6-1.7,5.7-2.2c2.1-0.5,4.4-0.7,7-0.7
	c4.9,0,9.2,0.9,12.8,2.6c3.6,1.8,6.4,4.1,8.4,7.2s2.9,6.6,2.9,10.5c0,4.2-1,7.7-3,10.8c-2,3.1-4.9,5.4-8.6,7.1s-8.1,2.5-13.1,2.5
	c-3.7,0-7-0.5-9.8-1.6s-5.1-2.5-6.7-4.4h-0.2c0.1,0.7,0.2,1.8,0.3,3.2c0.1,1.4,0.2,3.1,0.2,5.2v9.3L1074.8,286.3L1074.8,286.3z
	 M1103.8,265.8c2.5,0,4.6-0.5,6.4-1.4c1.8-0.9,3.1-2.2,4-3.9c0.9-1.7,1.4-3.7,1.4-5.9s-0.4-4.3-1.3-6.1c-0.9-1.7-2.2-3.1-4-4.1
	s-4-1.5-6.7-1.5c-2.8,0-5.2,0.5-7.1,1.6s-3.3,2.4-4.2,4.2c-0.9,1.8-1.4,3.7-1.4,5.9s0.5,4.1,1.5,5.8s2.4,3,4.3,4
	C1098.7,265.3,1101,265.7,1103.8,265.8L1103.8,265.8z"/>
<path class="st1" d="M1140.5,229.5v-9.9h16.7v9.9H1140.5z M1140.6,273.5v-38.7h16.5v38.7H1140.6z"/>
<path class="st1" d="M1168.2,273.5V220h16.5v53.6H1168.2z"/>
<g id="Artwork_1">
	<g>
		<defs>
			<rect id="SVGID_1_" x="1046" y="590" width="601" height="473"/>
		</defs>
		<clipPath id="SVGID_00000114073179141882630540000013856750581484002960_">
			<use xlink:href="#SVGID_1_"  style="overflow:visible;"/>
		</clipPath>
		<g style="clip-path:url(#SVGID_00000114073179141882630540000013856750581484002960_);">
			<g>
				<defs>
					<rect id="SVGID_00000183941953427245643380000015506897572021121699_" x="1046" y="590" width="601" height="473"/>
				</defs>
				<clipPath id="SVGID_00000062897343875238064840000002981408424370403738_">
					<use xlink:href="#SVGID_00000183941953427245643380000015506897572021121699_"  style="overflow:visible;"/>
				</clipPath>
				<g style="clip-path:url(#SVGID_00000062897343875238064840000002981408424370403738_);">
					<path class="st4" d="M1645.9,924.6c-11.1-53.6,10.3-23.1-11.1-53.6c-21.4-30.5,18.8-10.2-26.5-38.6
						c-45.3-28.5,19.7-6.1-45.3-28.5s-12-3-65-22.4c-8.8-3.2-14.6-5.1-18.3-6.2c-6.9,3.6-14.5-1.5-20.9-4.8
						c-1.1-0.5-1.6-1.4-1.7-2.4c-3.3-1.6-7.3-3.5-12.1-5.9c-56.4-27.5-20.5,1-56.4-27.5c-35.9-28.5-24.8,5.1-35.9-28.5
						s1.7-6.1-11.1-39.7c-12.8-33.5,0-17.3-12.8-33.5c-12.8-16.3,24.8-39.7-12.8-16.3s-9.4,1-37.6,23.4
						c-14.3,11.3-21.3,16.9-24.8,19.7c-3.3-0.7-7.5-1.5-12.8-2.4c-46.2-8.1,2.6-11.2-46.2-8.1c-48.7,3-35.1,33.5-48.7,3
						c-13.7-30.5,2.6-9.2-13.7-30.5s12-45.8-16.2-21.3s-10.3-11.2-28.2,24.4c-18,35.6-12-6.1-18,35.6s4.3,0-6,41.7
						c-10.3,41.7-9.4,36.6-10.3,41.7c-0.9,5.1-14.5-27.5-0.9,5.1l15.4,37.6c24.8,28.5-12.8-9.2,24.8,28.5s0.9,6.1,37.6,37.6
						s-1.7-3,36.8,31.5s3.4,1,38.5,34.6c35.1,33.5,4.3-9.2,35.1,33.5c30.8,42.7,19.7,6.1,30.8,42.7c11.1,36.6,11.1,14.2,11.1,36.6
						s-90.7,23.4,0,22.4c90.7-1-14.5,2,90.7-1s32.5,0,105.2-3.1c72.7-3.1,12.8-1,72.7-3.1s47.9,37.6,59.9-2c2-6.7,10-23.8,17.9-43.7
						C1639.2,974.6,1649.7,943.1,1645.9,924.6"/>
					<path class="st5" d="M1645.9,924.6c-11.1-53.6,10.3-23.1-11.1-53.6c-21.4-30.5,18.8-10.2-26.5-38.6
						c-45.3-28.5,19.7-6.1-45.3-28.5s-12-3-65-22.4c-8.8-3.2-14.6-5.1-18.3-6.2c-6.9,3.6-14.5-1.5-20.9-4.8
						c-1.1-0.5-1.6-1.4-1.7-2.4c-3.3-1.6-7.3-3.5-12.1-5.9c-56.4-27.5-20.5,1-56.4-27.5c-35.9-28.5-24.8,5.1-35.9-28.5
						s1.7-6.1-11.1-39.7c-12.8-33.5,0-17.3-12.8-33.5c-12.8-16.3,24.8-39.7-12.8-16.3s-9.4,1-37.6,23.4
						c-14.3,11.3-21.3,16.9-24.8,19.7c-3.3-0.7-7.5-1.5-12.8-2.4c-46.2-8.1,2.6-11.2-46.2-8.1c-48.7,3-35.1,33.5-48.7,3
						c-13.7-30.5,2.6-9.2-13.7-30.5s12-45.8-16.2-21.3s-10.3-11.2-28.2,24.4c-18,35.6-12-6.1-18,35.6s4.3,0-6,41.7
						c-10.3,41.7-9.4,36.6-10.3,41.7c-0.9,5.1-14.5-27.5-0.9,5.1l15.4,37.6c24.8,28.5-12.8-9.2,24.8,28.5s0.9,6.1,37.6,37.6
						s-1.7-3,36.8,31.5s3.4,1,38.5,34.6c35.1,33.5,4.3-9.2,35.1,33.5c30.8,42.7,19.7,6.1,30.8,42.7c11.1,36.6,11.1,14.2,11.1,36.6
						s-90.7,23.4,0,22.4c90.7-1-14.5,2,90.7-1s32.5,0,105.2-3.1c72.7-3.1,12.8-1,72.7-3.1s47.9,37.6,59.9-2c2-6.7,10-23.8,17.9-43.7
						C1639.2,974.6,1649.7,943.1,1645.9,924.6L1645.9,924.6z"/>
				</g>
			</g>
		</g>
	</g>
</g>
<g id="Artwork_5">
	<g>
		<defs>
			<rect id="SVGID_00000097469900388259446890000007723395393027781784_" x="46" y="848" width="342" height="154"/>
		</defs>
		<clipPath id="SVGID_00000080906404167193055970000006768303910062439068_">
			<use xlink:href="#SVGID_00000097469900388259446890000007723395393027781784_"  style="overflow:visible;"/>
		</clipPath>
		<g style="clip-path:url(#SVGID_00000080906404167193055970000006768303910062439068_);">
			<g>
				<defs>
					<rect id="SVGID_00000057826621706221976220000016167237487778312634_" x="46" y="848" width="342" height="154"/>
				</defs>
				<clipPath id="SVGID_00000135690120619394048020000010215219687181682339_">
					<use xlink:href="#SVGID_00000057826621706221976220000016167237487778312634_"  style="overflow:visible;"/>
				</clipPath>
				<g style="clip-path:url(#SVGID_00000135690120619394048020000010215219687181682339_);">
					<path class="st8" d="M379.6,927.4l-31.5-25.2l-44.3-10.8l-42.5,3.6l-35.5,15l3.5-4.9l5.2-14.3l-8.7-24.6l-10.5-8.4l-30.3-9.6
						l-28,9l-19.2,21.6l5.2,33l22.1,12l-15.1-4.8l-33.8,6l-22.7,12.6c0,0-18.6,29.4-47.2,39.6l11.1,9.1l8.7,7.2l0.1,0
						c-1.4-1.4-0.2-4.5,2.2-3.9c2.8,0.7,5.5,1.3,8.3,2c0.4-0.2,1-0.3,1.6-0.2c0.5,0.1,1,0.3,1.5,0.5c1.2,0.4,2.4,0.7,3.7,1.1
						c1.2,0.2,2.5,0.5,3.7,0.7c0,0,0-0.1,0-0.1c0.4-2.3,3.2-2,4.1-0.2c4.6-0.4,9.1,0.1,13.5,1.3c0.9-2.1,4.5-1.9,4.3,0.8
						c0,0.1,0,0.3,0,0.4c3.6-0.5,7.2-0.1,10.4,1.5c1.6-0.3,3.3-0.7,4.9-1.1c1.4-0.3,2.3,0.6,2.7,1.7c0.7,0,1.3,0,2,0
						c2.1,0,2.7,2.5,1.6,3.8h66l29.7-2.4l61.7,2.4H354l17.5-14.4l3.2-4.6l6.7-9.8l6.4-15L379.6,927.4L379.6,927.4z"/>
					<path class="st9" d="M379.6,927.4l-31.5-25.2l-44.3-10.8l-42.5,3.6l-35.5,15l3.5-4.9l5.2-14.3l-8.7-24.6l-10.5-8.4l-30.3-9.6
						l-28,9l-19.2,21.6l5.2,33l22.1,12l-15.1-4.8l-33.8,6l-22.7,12.6c0,0-18.6,29.4-47.2,39.6l11.1,9.1l8.7,7.2l0.1,0
						c-1.4-1.4-0.2-4.5,2.2-3.9c2.8,0.7,5.5,1.3,8.3,2c0.4-0.2,1-0.3,1.6-0.2c0.5,0.1,1,0.3,1.5,0.5c1.2,0.4,2.4,0.7,3.7,1.1
						c1.2,0.2,2.5,0.5,3.7,0.7c0,0,0-0.1,0-0.1c0.4-2.3,3.2-2,4.1-0.2c4.6-0.4,9.1,0.1,13.5,1.3c0.9-2.1,4.5-1.9,4.3,0.8
						c0,0.1,0,0.3,0,0.4c3.6-0.5,7.2-0.1,10.4,1.5c1.6-0.3,3.3-0.7,4.9-1.1c1.4-0.3,2.3,0.6,2.7,1.7c0.7,0,1.3,0,2,0
						c2.1,0,2.7,2.5,1.6,3.8h66l29.7-2.4l61.7,2.4H354l17.5-14.4l3.2-4.6l6.7-9.8l6.4-15L379.6,927.4L379.6,927.4z"/>
				</g>
			</g>
		</g>
	</g>
</g>
<g id="Artwork_2">
	<g>
		<defs>
			<rect id="SVGID_00000153680167822929330110000003860155253524921268_" x="675" y="848" width="159" height="131"/>
		</defs>
		<clipPath id="SVGID_00000047056809648415563070000016112635064809662351_">
			<use xlink:href="#SVGID_00000153680167822929330110000003860155253524921268_"  style="overflow:visible;"/>
		</clipPath>
		<g style="clip-path:url(#SVGID_00000047056809648415563070000016112635064809662351_);">
			<g>
				<defs>
					<rect id="SVGID_00000070090463373028165590000002114251120425565625_" x="675" y="848" width="159" height="131"/>
				</defs>
				<clipPath id="SVGID_00000132772935583171979700000017682454877877040522_">
					<use xlink:href="#SVGID_00000070090463373028165590000002114251120425565625_"  style="overflow:visible;"/>
				</clipPath>
				<g style="clip-path:url(#SVGID_00000132772935583171979700000017682454877877040522_);">
					<path class="st4" d="M834,913.5c0,36.2-35.6,65.5-79.5,65.5S675,949.7,675,913.5s35.6-65.5,79.5-65.5S834,877.3,834,913.5"/>
				</g>
			</g>
		</g>
	</g>
</g>
<path class="st12" d="M388.1,948.4c18.8,0.2,36.9-6.5,54.5-13c15.5-5.7,31.5-11.9,42.7-24c7.3-7.9,11.9-17.8,16.4-27.5
	c6.6-14.3,13.1-28.8,16.1-44.3c3,24.3-7.7,48-18.1,70.2c-3.7,8-8.1,16.5-16.1,20.1c-3.9,1.8-8.2,2.1-12.1,3.8
	c-8.7,3.8-13.3,13.3-20.9,19c-7.3,5.6-16.7,7.4-25.8,9c-13.1,2.3-26.2,4.6-39.4,6.9C385.6,962.2,388.1,954.9,388.1,948.4
	L388.1,948.4z"/>
<ellipse class="st13" cx="156.5" cy="959.5" rx="35" ry="9"/>
<ellipse class="st14" cx="170.5" cy="955.5" rx="14" ry="4"/>
<path class="st13" d="M137.2,979.8c17.8,21.2-33.2,15.2-43.5,17c1,3.7,2.3,7.3,3,11.1c-6.9-7-20.3-5.8-25.8,2.4
	c-1.1-5.8-1.4-11.9-0.9-17.8c6.9,0,13.1-2.2,20-2.2c3.5,5.8,3.7,12,4.7,18.6c8,0.6,17.4,0.6,22.2-5.8c1.5-1.9,2.2-4.2,2.7-6.6"/>
<ellipse class="st12" cx="187" cy="889.5" rx="36.5" ry="29"/>
<circle class="st15" cx="63" cy="980" r="8.5"/>
<path d="M63,972c4.4,0,8,3.6,8,8s-3.6,8-8,8s-8-3.6-8-8S58.6,972,63,972 M63,971c-5,0-9,4-9,9s4,9,9,9s9-4,9-9S68,971,63,971L63,971
	z"/>
<polygon class="st14" points="770.2,942.3 740,943 724.3,917.2 738.8,890.7 769,890 784.7,915.8 "/>
<polygon class="st14" points="737,887 722.2,888.8 713.1,876.8 719,863 733.8,861.2 742.9,873.2 "/>
<polygon class="st14" points="779,871.1 765.8,876.7 754.3,868.2 756,853.9 769.2,848.3 780.7,856.8 "/>
<polygon class="st14" points="807.9,897.7 794.2,900.1 785.3,889.4 790.1,876.3 803.8,873.9 812.7,884.6 "/>
<polygon class="st14" points="824.4,930.8 811.5,929.6 806,917.8 813.6,907.2 826.5,908.4 832,920.2 "/>
<polygon class="st14" points="700.5,926 683.7,922.1 678.7,905.6 690.5,893 707.3,896.9 712.3,913.4 "/>
<polygon class="st14" points="716.6,948.9 704,955 692.3,947.1 693.4,933.1 706,927 717.7,934.9 "/>
<polygon class="st14" points="745.2,971.7 729.3,974.8 718.6,962.7 723.8,947.3 739.7,944.2 750.4,956.3 "/>
<polygon class="st14" points="776.1,949.7 781.3,960.3 774.7,970.1 762.9,969.3 757.7,958.7 764.3,948.9 "/>
<polygon class="st14" points="801.9,932.8 790.1,932.8 784.2,943 790.1,953.2 801.9,953.2 807.8,943 "/>
<g id="Artwork_12">
	<g>
		<defs>
			<rect id="SVGID_00000045618889695371813270000008298326942523189122_" x="1582" y="654" width="164" height="400.7"/>
		</defs>
		<clipPath id="SVGID_00000072976218602697879070000016707159397458733968_">
			<use xlink:href="#SVGID_00000045618889695371813270000008298326942523189122_"  style="overflow:visible;"/>
		</clipPath>
		<g style="clip-path:url(#SVGID_00000072976218602697879070000016707159397458733968_);">
			<g>
				<defs>
					<rect id="SVGID_00000106142090406617405940000000573361167937206152_" x="1582" y="654" width="164" height="400.7"/>
				</defs>
				<clipPath id="SVGID_00000001653437918103572810000009451233228080460713_">
					<use xlink:href="#SVGID_00000106142090406617405940000000573361167937206152_"  style="overflow:visible;"/>
				</clipPath>
				<g style="clip-path:url(#SVGID_00000001653437918103572810000009451233228080460713_);">
					<path class="st4" d="M1602.1,1052.1c0,0-47.2,5,4.4,0c51.6-5,15.1,4,51.6-5c36.5-9.1,9.8,26.2,36.5-9.1
						c26.7-35.3,10.7,6,26.7-35.3c16-41.3,16,8.1,16-41.3s18.7,7,0-49.4s-0.9,5-18.7-56.4c-17.8-61.5-26.7-9.1-17.8-61.5
						c8.9-52.4-13.3-14.1,8.9-52.4c22.2-38.3,25.8,3,22.2-38.3c-3.6-41.3,19.6-38.3-3.6-41.3c-23.2-3,3.6-14.1-23.2-3
						c-26.7,11.1-7.1-10.1-26.7,11.1c-19.6,21.2-5.3-12.1-19.6,21.2c-14.2,33.2-10.7-14.1-14.2,33.2c-3.6,47.3-20.5-9.1-3.6,47.3
						c16.9,56.4-1.1-1.8,16.9,56.4c19.6,63.5,17.8,13.1,19.6,63.5c1.8,50.4,3.6,12.1,1.8,50.4c-1.8,38.3,14.2,18.1-1.8,38.3
						s9.8,14.1-16,20.2c-25.8,6-10.6,4-25.8,6c-15.2,2-2.8-32.2-15.2,2s-6.2,25.2-12.4,34.2"/>
					<path class="st18" d="M1602.1,1052.1c0,0-47.2,5,4.4,0c51.6-5,15.1,4,51.6-5c36.5-9.1,9.8,26.2,36.5-9.1
						c26.7-35.3,10.7,6,26.7-35.3c16-41.3,16,8.1,16-41.3s18.7,7,0-49.4s-0.9,5-18.7-56.4c-17.8-61.5-26.7-9.1-17.8-61.5
						c8.9-52.4-13.3-14.1,8.9-52.4c22.2-38.3,25.8,3,22.2-38.3c-3.6-41.3,19.6-38.3-3.6-41.3c-23.2-3,3.6-14.1-23.2-3
						c-26.7,11.1-7.1-10.1-26.7,11.1c-19.6,21.2-5.3-12.1-19.6,21.2c-14.2,33.2-10.7-14.1-14.2,33.2c-3.6,47.3-20.5-9.1-3.6,47.3
						c16.9,56.4-1.1-1.8,16.9,56.4c19.6,63.5,17.8,13.1,19.6,63.5c1.8,50.4,3.6,12.1,1.8,50.4c-1.8,38.3,14.2,18.1-1.8,38.3
						s9.8,14.1-16,20.2c-25.8,6-10.6,4-25.8,6c-15.2,2-2.8-32.2-15.2,2s-6.2,25.2-12.4,34.2"/>
				</g>
			</g>
		</g>
	</g>
</g>
<g id="Artwork_13">
	<g>
		<defs>
			<rect id="SVGID_00000164483887208865492710000014795979729211424404_" x="1119" y="717" width="39" height="66"/>
		</defs>
		<clipPath id="SVGID_00000168797447814407107320000015341835655122431365_">
			<use xlink:href="#SVGID_00000164483887208865492710000014795979729211424404_"  style="overflow:visible;"/>
		</clipPath>
		<g style="clip-path:url(#SVGID_00000168797447814407107320000015341835655122431365_);">
			<g>
				<defs>
					<rect id="SVGID_00000166638875762329444850000000394218710164404132_" x="1119" y="717" width="39" height="66"/>
				</defs>
				<clipPath id="SVGID_00000147195554660488186100000012055436728589964676_">
					<use xlink:href="#SVGID_00000166638875762329444850000000394218710164404132_"  style="overflow:visible;"/>
				</clipPath>
				<g style="clip-path:url(#SVGID_00000147195554660488186100000012055436728589964676_);">
					<path d="M1157.7,750c0,18-8.6,32.6-19.2,32.6s-19.2-14.6-19.2-32.6s8.6-32.6,19.2-32.6S1157.7,732,1157.7,750"/>
					<path class="st21" d="M1157.7,750c0,18-8.6,32.6-19.2,32.6s-19.2-14.6-19.2-32.6s8.6-32.6,19.2-32.6S1157.7,732,1157.7,750z"/>
				</g>
			</g>
		</g>
	</g>
</g>
<g id="Artwork_13-2">
	<g>
		<defs>
			<rect id="SVGID_00000141436851065400161770000008878688351909225360_" x="1210" y="717" width="39" height="66"/>
		</defs>
		<clipPath id="SVGID_00000134928954206084797670000002324823125787371414_">
			<use xlink:href="#SVGID_00000141436851065400161770000008878688351909225360_"  style="overflow:visible;"/>
		</clipPath>
		<g style="clip-path:url(#SVGID_00000134928954206084797670000002324823125787371414_);">
			<g>
				<defs>
					<rect id="SVGID_00000150820080493853467040000007450173632576020380_" x="1210" y="717" width="39" height="66"/>
				</defs>
				<clipPath id="SVGID_00000090266086427904407960000004686952299553789835_">
					<use xlink:href="#SVGID_00000150820080493853467040000007450173632576020380_"  style="overflow:visible;"/>
				</clipPath>
				<g style="clip-path:url(#SVGID_00000090266086427904407960000004686952299553789835_);">
					<path d="M1248.7,750c0,18-8.6,32.6-19.2,32.6s-19.2-14.6-19.2-32.6s8.6-32.6,19.2-32.6S1248.7,732,1248.7,750"/>
					<path class="st21" d="M1248.7,750c0,18-8.6,32.6-19.2,32.6s-19.2-14.6-19.2-32.6s8.6-32.6,19.2-32.6S1248.7,732,1248.7,750z"/>
				</g>
			</g>
		</g>
	</g>
</g>
<g id="Artwork_14">
	<g>
		<defs>
			
				<rect id="SVGID_00000156566732334914102620000003978532682901978499_" x="1207.1" y="738.8" transform="matrix(6.609976e-02 -0.9978 0.9978 6.609976e-02 393.6181 1926.7501)" width="38.1" height="28.5"/>
		</defs>
		<clipPath id="SVGID_00000170259381570016756550000005691940065625412504_">
			<use xlink:href="#SVGID_00000156566732334914102620000003978532682901978499_"  style="overflow:visible;"/>
		</clipPath>
		<g style="clip-path:url(#SVGID_00000170259381570016756550000005691940065625412504_);">
			<g>
				<defs>
					
						<rect id="SVGID_00000162340305030115563490000004871594962352020643_" x="1207.1" y="738.8" transform="matrix(6.609976e-02 -0.9978 0.9978 6.609976e-02 393.6183 1926.75)" width="38.1" height="28.5"/>
				</defs>
				<clipPath id="SVGID_00000014622164216078905810000015104887187876079016_">
					<use xlink:href="#SVGID_00000162340305030115563490000004871594962352020643_"  style="overflow:visible;"/>
				</clipPath>
				<g style="clip-path:url(#SVGID_00000014622164216078905810000015104887187876079016_);">
					<path class="st4" d="M1218.1,734.6c-5,4.5-7,15.7-4.9,23.9c2.1,8.2,7.6,13,13.1,13c4.6,0,9.6-3.3,12.2-9.9s1.7-16.4-2.4-19.5
						c-2.2-1.7-4.9-1.2-7.2-2.6c-2.4-1.4-4.4-4.7-7-5.2c-2.6-0.5-5.7,4.9-3.9,7.8"/>
					<path class="st26" d="M1218.1,734.6c-5,4.5-7,15.7-4.9,23.9c2.1,8.2,7.6,13,13.1,13c4.6,0,9.6-3.3,12.2-9.9s1.7-16.4-2.4-19.5
						c-2.2-1.7-4.9-1.2-7.2-2.6c-2.4-1.4-4.4-4.7-7-5.2c-2.6-0.5-5.7,4.9-3.9,7.8"/>
				</g>
			</g>
		</g>
	</g>
</g>
<g id="Artwork_15">
	<g>
		<defs>
			<rect id="SVGID_00000048466020238046806970000017519695235565286052_" x="1158" y="773" width="51.6" height="36"/>
		</defs>
		<clipPath id="SVGID_00000016037531062627067690000018035401855460021936_">
			<use xlink:href="#SVGID_00000048466020238046806970000017519695235565286052_"  style="overflow:visible;"/>
		</clipPath>
		<g style="clip-path:url(#SVGID_00000016037531062627067690000018035401855460021936_);">
			<g>
				<defs>
					<rect id="SVGID_00000156582021306221922400000011886392602436739759_" x="1158" y="773" width="51.6" height="36"/>
				</defs>
				<clipPath id="SVGID_00000055700126942871855550000008116541154112837809_">
					<use xlink:href="#SVGID_00000156582021306221922400000011886392602436739759_"  style="overflow:visible;"/>
				</clipPath>
				<g style="clip-path:url(#SVGID_00000055700126942871855550000008116541154112837809_);">
					<path d="M1187.8,807.3c-0.9,0.4-1.8,0.8-2.7,1.2c-3.3-7.5-11.3-12.7-18.5-18.4c-2.7-2.1-5.7-4.1-7.3-6.7c-1.7-2.6-0.3-8,2.5-10
						h45.8c5.5,0-5.3,22.7-7,24.5c-11.9,13.3-18.5,4.9-28.3-5.3c-5.3-5.5-9.6-11.9-9.5-18.6"/>
					<path class="st29" d="M1187.8,807.3c-0.9,0.4-1.8,0.8-2.7,1.2c-3.3-7.5-11.3-12.7-18.5-18.4c-2.7-2.1-5.7-4.1-7.3-6.7
						c-1.7-2.6-0.3-8,2.5-10h45.8c5.5,0-5.3,22.7-7,24.5c-11.9,13.3-18.5,4.9-28.3-5.3c-5.3-5.5-9.6-11.9-9.5-18.6"/>
				</g>
			</g>
		</g>
	</g>
</g>
<g id="Artwork_16">
	<g>
		<defs>
			<rect id="SVGID_00000180329074480140943030000006222317963560545166_" x="1139" y="791" width="90" height="46.1"/>
		</defs>
		<clipPath id="SVGID_00000032643610980666469510000010841237109025651632_">
			<use xlink:href="#SVGID_00000180329074480140943030000006222317963560545166_"  style="overflow:visible;"/>
		</clipPath>
		<g style="clip-path:url(#SVGID_00000032643610980666469510000010841237109025651632_);">
			<g>
				<defs>
					<rect id="SVGID_00000175292640639787571150000003921042260374608271_" x="1139" y="791" width="90" height="46.1"/>
				</defs>
				<clipPath id="SVGID_00000130615521668582037570000017882116849271023509_">
					<use xlink:href="#SVGID_00000175292640639787571150000003921042260374608271_"  style="overflow:visible;"/>
				</clipPath>
				<g style="clip-path:url(#SVGID_00000130615521668582037570000017882116849271023509_);">
					<path d="M1216,801.2c4.7,1,9.2,4.7,11.4,10.7c2.2,6,1.4,14.3-2.3,18.4c-1.5,1.6-3.2,2.4-5,3.1c-5.8,2.3-11.8,3.4-17.7,3.1
						c-10-0.5-20.3-5-27.2-15.5c-0.3-0.4-0.6-0.9-1-1.1c-1.7-1.1-2.9,2.2-3.8,4.5c-1.7,4.3-5,6.9-8.4,7.8c-7.1,2-14.8-2.2-19.1-10.6
						c-4.3-8.3-4.9-20.3-1.4-29.4c2,9.8,4,17.5,9.1,24.6c5.2,7.3,13.1,12.8,19.6,8.3c1.9-1.3,3.5-3.3,4.7-5.9
						c9.7,8.3,21.6,10.8,32.8,10.8c2.4,0,4.8-0.2,6.9-1.9C1220,823.7,1218.3,809.6,1216,801.2"/>
					<path class="st32" d="M1216,801.2c4.7,1,9.2,4.7,11.4,10.7c2.2,6,1.4,14.3-2.3,18.4c-1.5,1.6-3.2,2.4-5,3.1
						c-5.8,2.3-11.8,3.4-17.7,3.1c-10-0.5-20.3-5-27.2-15.5c-0.3-0.4-0.6-0.9-1-1.1c-1.7-1.1-2.9,2.2-3.8,4.5
						c-1.7,4.3-5,6.9-8.4,7.8c-7.1,2-14.8-2.2-19.1-10.6c-4.3-8.3-4.9-20.3-1.4-29.4c2,9.8,4,17.5,9.1,24.6
						c5.2,7.3,13.1,12.8,19.6,8.3c1.9-1.3,3.5-3.3,4.7-5.9c9.7,8.3,21.6,10.8,32.8,10.8c2.4,0,4.8-0.2,6.9-1.9
						C1220,823.7,1218.3,809.6,1216,801.2L1216,801.2z"/>
				</g>
			</g>
		</g>
	</g>
</g>
<g id="Artwork_14-2">
	<g>
		<defs>
			<rect id="SVGID_00000135652754974103297150000012478503829056424609_" x="1121" y="735" width="35.6" height="29"/>
		</defs>
		<clipPath id="SVGID_00000132784135207886551560000013134491671275466398_">
			<use xlink:href="#SVGID_00000135652754974103297150000012478503829056424609_"  style="overflow:visible;"/>
		</clipPath>
		<g style="clip-path:url(#SVGID_00000132784135207886551560000013134491671275466398_);">
			<g>
				<defs>
					<rect id="SVGID_00000080173638564839831600000015899309694761793697_" x="1121" y="735" width="35.6" height="29"/>
				</defs>
				<clipPath id="SVGID_00000083048845672189942640000014240285500274877098_">
					<use xlink:href="#SVGID_00000080173638564839831600000015899309694761793697_"  style="overflow:visible;"/>
				</clipPath>
				<g style="clip-path:url(#SVGID_00000083048845672189942640000014240285500274877098_);">
					<path class="st4" d="M1127.3,735.9c-5.8,3.7-7.4,12.3-4.2,18.4s10.5,9.5,17.4,9.2c5.8-0.2,11.7-3,14.3-8.1
						c2.6-5.1,0.7-12.5-4.7-14.6c-2.9-1.2-6.2-0.7-9.2-1.6c-3.2-0.9-5.9-3.3-9.1-3.6c-3.3-0.2-6.7,4-4.2,6.1"/>
					<path class="st35" d="M1127.3,735.9c-5.8,3.7-7.4,12.3-4.2,18.4s10.5,9.5,17.4,9.2c5.8-0.2,11.7-3,14.3-8.1
						c2.6-5.1,0.7-12.5-4.7-14.6c-2.9-1.2-6.2-0.7-9.2-1.6c-3.2-0.9-5.9-3.3-9.1-3.6c-3.3-0.2-6.7,4-4.2,6.1"/>
				</g>
			</g>
		</g>
	</g>
</g>
<g id="Artwork_17">
	<g>
		<defs>
			<rect id="SVGID_00000071559310480881799390000016005119957867329944_" x="1249" y="876" width="229" height="184"/>
		</defs>
		<clipPath id="SVGID_00000117640273451678724160000017715302480821856439_">
			<use xlink:href="#SVGID_00000071559310480881799390000016005119957867329944_"  style="overflow:visible;"/>
		</clipPath>
		<g style="clip-path:url(#SVGID_00000117640273451678724160000017715302480821856439_);">
			<g>
				<defs>
					<rect id="SVGID_00000031910422015765281440000004993284133654927753_" x="1249" y="876" width="229" height="184"/>
				</defs>
				<clipPath id="SVGID_00000180331311590348162700000003859686038816390813_">
					<use xlink:href="#SVGID_00000031910422015765281440000004993284133654927753_"  style="overflow:visible;"/>
				</clipPath>
				<g style="clip-path:url(#SVGID_00000180331311590348162700000003859686038816390813_);">
					<path d="M1435.4,1051.6c-1.2-10.4-2.4-21.2-7.2-30.4c-5-9.8-13.5-16.9-21.8-23.7c-7.1-5.8-14.3-11.7-22.3-15.8
						c-6.7-3.4-14-5.4-21.1-7.6c-34.8-10.5-68.7-24.4-101.8-40.2c-2.6-1.2-5.3-2.5-7.4-4.7c-8.5-8.5-3.3-23.8,2.3-34.8
						c4.5-8.8,11.1-18.9,20.3-18.1c7.2,0.6,12.2,7.8,16,14.5c-12.3-9.9-31.8-1-36.9,14.8c-0.4,1.3-0.7,2.7-0.4,4.1
						c0.6,2.1,2.5,3.2,4.3,4.1c14.3,7.9,26.1,20.6,40.6,28c35.2,18,81.8,3.1,111.5,30.3c5,4.6,9.3,10.2,14.9,13.8
						c7.1,4.5,15.9,5.4,22.5,10.7c5.1,4,8.3,10.1,11.4,16c7.8,14.8,15.8,30.2,17,47.3c-0.1-3.9-0.2-7.7-0.3-11.6
						C1462.5,1048.4,1450.1,1051.6,1435.4,1051.6"/>
					<path class="st38" d="M1435.4,1051.6c-1.2-10.4-2.4-21.2-7.2-30.4c-5-9.8-13.5-16.9-21.8-23.7c-7.1-5.8-14.3-11.7-22.3-15.8
						c-6.7-3.4-14-5.4-21.1-7.6c-34.8-10.5-68.7-24.4-101.8-40.2c-2.6-1.2-5.3-2.5-7.4-4.7c-8.5-8.5-3.3-23.8,2.3-34.8
						c4.5-8.8,11.1-18.9,20.3-18.1c7.2,0.6,12.2,7.8,16,14.5c-12.3-9.9-31.8-1-36.9,14.8c-0.4,1.3-0.7,2.7-0.4,4.1
						c0.6,2.1,2.5,3.2,4.3,4.1c14.3,7.9,26.1,20.6,40.6,28c35.2,18,81.8,3.1,111.5,30.3c5,4.6,9.3,10.2,14.9,13.8
						c7.1,4.5,15.9,5.4,22.5,10.7c5.1,4,8.3,10.1,11.4,16c7.8,14.8,15.8,30.2,17,47.3c-0.1-3.9-0.2-7.7-0.3-11.6
						C1462.5,1048.4,1450.1,1051.6,1435.4,1051.6L1435.4,1051.6z"/>
				</g>
			</g>
		</g>
	</g>
</g>
<g id="Artwork_18">
	<g>
		<defs>
			<rect id="SVGID_00000128442671442781249050000012305271862468316349_" x="1276" y="635" width="58.4" height="56"/>
		</defs>
		<clipPath id="SVGID_00000047023556071204270910000009459735322157873537_">
			<use xlink:href="#SVGID_00000128442671442781249050000012305271862468316349_"  style="overflow:visible;"/>
		</clipPath>
		<g style="clip-path:url(#SVGID_00000047023556071204270910000009459735322157873537_);">
			<g>
				<defs>
					<rect id="SVGID_00000047747507238735352970000009863420012068561040_" x="1276" y="635" width="58.4" height="56"/>
				</defs>
				<clipPath id="SVGID_00000011711512353671283160000011003954990421498786_">
					<use xlink:href="#SVGID_00000047747507238735352970000009863420012068561040_"  style="overflow:visible;"/>
				</clipPath>
				<g style="clip-path:url(#SVGID_00000011711512353671283160000011003954990421498786_);">
					<path class="st8" d="M1312.7,635.3c-22.3,28.5-55.5,11.2-22.3,28.5s59.4-6.1,33.2,17.3c-26.2,23.4,0.8-5.1-9.2,7.1
						s7.7-38.7-4.6-11.2"/>
					<path class="st41" d="M1312.7,635.3c-22.3,28.5-55.5,11.2-22.3,28.5s59.4-6.1,33.2,17.3c-26.2,23.4,0.8-5.1-9.2,7.1
						s7.7-38.7-4.6-11.2"/>
				</g>
			</g>
		</g>
	</g>
</g>
<g id="Artwork_19">
	<g>
		<defs>
			<rect id="SVGID_00000158712338704445943530000008663719209715073453_" x="1087" y="625" width="51" height="66"/>
		</defs>
		<clipPath id="SVGID_00000165926231786766031950000014618289369684180141_">
			<use xlink:href="#SVGID_00000158712338704445943530000008663719209715073453_"  style="overflow:visible;"/>
		</clipPath>
		<g style="clip-path:url(#SVGID_00000165926231786766031950000014618289369684180141_);">
			<g>
				<defs>
					<rect id="SVGID_00000133496469015418160050000016134715849237264532_" x="1087" y="625" width="51" height="66"/>
				</defs>
				<clipPath id="SVGID_00000055708579313381270250000013080802179114320311_">
					<use xlink:href="#SVGID_00000133496469015418160050000016134715849237264532_"  style="overflow:visible;"/>
				</clipPath>
				<g style="clip-path:url(#SVGID_00000055708579313381270250000013080802179114320311_);">
					<path class="st8" d="M1110,625.1c-9.9,27.9-39.6,27-9.9,27.9c29.7,0.9,49.5,29.7,29.7,0.9c-19.8-28.8-21.7-15-17.3,7.8
						c5.4,27.9-21.6,19.2,5.4,27.9c27,8.7-2-44.5-2-44.5"/>
					<path class="st44" d="M1110,625.1c-9.9,27.9-39.6,27-9.9,27.9c29.7,0.9,49.5,29.7,29.7,0.9c-19.8-28.8-21.7-15-17.3,7.8
						c5.4,27.9-21.6,19.2,5.4,27.9c27,8.7-2-44.5-2-44.5"/>
				</g>
			</g>
		</g>
	</g>
</g>
<g id="Artwork_20">
	<g>
		<defs>
			<rect id="SVGID_00000178918389433414745290000008278792161321158528_" x="1322" y="755" width="116.8" height="73"/>
		</defs>
		<clipPath id="SVGID_00000114060581103176988870000012397365501151605432_">
			<use xlink:href="#SVGID_00000178918389433414745290000008278792161321158528_"  style="overflow:visible;"/>
		</clipPath>
		<g style="clip-path:url(#SVGID_00000114060581103176988870000012397365501151605432_);">
			<g>
				<defs>
					<rect id="SVGID_00000032639255297692312070000015100831586234197405_" x="1322" y="755" width="116.8" height="73"/>
				</defs>
				<clipPath id="SVGID_00000114793810425120599840000011560592032619683733_">
					<use xlink:href="#SVGID_00000032639255297692312070000015100831586234197405_"  style="overflow:visible;"/>
				</clipPath>
				<g style="clip-path:url(#SVGID_00000114793810425120599840000011560592032619683733_);">
					<path d="M1322.1,818.4c28.6-5.7,14.9,27.4,28.6-5.7c13.7-33.1-0.1-3.4,13.7-33.1c13.8-29.7,42.8-21.4,42.8-21.4
						s61.1-12.7,12,14.9s-20.6-31.3-49.1,27.6s9.1-54.7,0,12.3"/>
					<path class="st47" d="M1322.1,818.4c28.6-5.7,14.9,27.4,28.6-5.7c13.7-33.1-0.1-3.4,13.7-33.1c13.8-29.7,42.8-21.4,42.8-21.4
						s61.1-12.7,12,14.9s-20.6-31.3-49.1,27.6s9.1-54.7,0,12.3"/>
				</g>
			</g>
		</g>
	</g>
</g>
<g id="Artwork_21">
	<g>
		<defs>
			<rect id="SVGID_00000062192431373061213090000015739257028160205704_" x="1380" y="769" width="143.7" height="136"/>
		</defs>
		<clipPath id="SVGID_00000062178754059767892140000015909908260225610902_">
			<use xlink:href="#SVGID_00000062192431373061213090000015739257028160205704_"  style="overflow:visible;"/>
		</clipPath>
		<g style="clip-path:url(#SVGID_00000062178754059767892140000015909908260225610902_);">
			<g>
				<defs>
					<rect id="SVGID_00000025400342475969342120000015498084746393802148_" x="1380" y="769" width="143.7" height="136"/>
				</defs>
				<clipPath id="SVGID_00000029007000452510169920000001276178003872440232_">
					<use xlink:href="#SVGID_00000025400342475969342120000015498084746393802148_"  style="overflow:visible;"/>
				</clipPath>
				<g style="clip-path:url(#SVGID_00000029007000452510169920000001276178003872440232_);">
					<path d="M1454.6,769.3c-29.3,42-8,3.2-29.3,42c-21.3,38.8-76,56.5-21.3,38.8c54.7-17.7,45.7,40.9,54.7-17.7s22.1-54.2,9-58.6
						s33.7,10.5,33.7,10.5c-13.3,44.8-17.3,3.8-13.3,44.8c4.1,41-20.8,121.9,4.1,41c24.9-80.9,40.6-76,24.9-80.9"/>
					<path class="st50" d="M1454.6,769.3c-29.3,42-8,3.2-29.3,42c-21.3,38.8-76,56.5-21.3,38.8c54.7-17.7,45.7,40.9,54.7-17.7
						s22.1-54.2,9-58.6s33.7,10.5,33.7,10.5c-13.3,44.8-17.3,3.8-13.3,44.8c4.1,41-20.8,121.9,4.1,41c24.9-80.9,40.6-76,24.9-80.9"
						/>
				</g>
			</g>
		</g>
	</g>
</g>
<g id="Artwork_22">
	<g>
		<defs>
			<rect id="SVGID_00000153674499441892902850000012899143318533673881_" x="1535" y="814" width="43.3" height="75"/>
		</defs>
		<clipPath id="SVGID_00000084507312362389233270000006661495837139102133_">
			<use xlink:href="#SVGID_00000153674499441892902850000012899143318533673881_"  style="overflow:visible;"/>
		</clipPath>
		<g style="clip-path:url(#SVGID_00000084507312362389233270000006661495837139102133_);">
			<g>
				<defs>
					<rect id="SVGID_00000000193289280754653310000003598393945697924771_" x="1535" y="814" width="43.3" height="75"/>
				</defs>
				<clipPath id="SVGID_00000170262230548862175570000016297518381169053616_">
					<use xlink:href="#SVGID_00000000193289280754653310000003598393945697924771_"  style="overflow:visible;"/>
				</clipPath>
				<g style="clip-path:url(#SVGID_00000170262230548862175570000016297518381169053616_);">
					<path d="M1555.3,850.7c-0.9,2.9-1.9,5.9-3.6,8.5c-1.5,2.4-3.6,4.4-5.4,6.6c-5,5.8-8.8,12.7-10.9,20c1.7,3,6.1,3.5,9.3,2.1
						c3.2-1.4,5.4-4.2,7.5-7c2.2-2.8,4.4-5.7,6.6-8.5c6.4-8.2,12.8-16.6,16.7-26.1c2.3-5.6,5.8-30.4-5.3-31.9
						C1563.6,813.5,1557.4,844.3,1555.3,850.7"/>
					<path class="st53" d="M1555.3,850.7c-0.9,2.9-1.9,5.9-3.6,8.5c-1.5,2.4-3.6,4.4-5.4,6.6c-5,5.8-8.8,12.7-10.9,20
						c1.7,3,6.1,3.5,9.3,2.1c3.2-1.4,5.4-4.2,7.5-7c2.2-2.8,4.4-5.7,6.6-8.5c6.4-8.2,12.8-16.6,16.7-26.1c2.3-5.6,5.8-30.4-5.3-31.9
						C1563.6,813.5,1557.4,844.3,1555.3,850.7z"/>
				</g>
			</g>
		</g>
	</g>
</g>
<g id="Artwork_23">
	<g>
		<defs>
			<rect id="SVGID_00000114768124446307322780000001374639805385104312_" x="1688" y="904" width="34" height="106"/>
		</defs>
		<clipPath id="SVGID_00000066485983138161187200000006382430482731337133_">
			<use xlink:href="#SVGID_00000114768124446307322780000001374639805385104312_"  style="overflow:visible;"/>
		</clipPath>
		<g style="clip-path:url(#SVGID_00000066485983138161187200000006382430482731337133_);">
			<g>
				<defs>
					<rect id="SVGID_00000045610720291755417050000005472699286850482078_" x="1688" y="904" width="34" height="106"/>
				</defs>
				<clipPath id="SVGID_00000059302145630881795240000011647235241461836971_">
					<use xlink:href="#SVGID_00000045610720291755417050000005472699286850482078_"  style="overflow:visible;"/>
				</clipPath>
				<g style="clip-path:url(#SVGID_00000059302145630881795240000011647235241461836971_);">
					<path d="M1719.1,921.2c3,1.8,3.2,7.5,2.8,12c-1.2,15.1-3.2,32.2-12.4,40.9c-3.6,3.4-7.9,5.2-11.1,9.3c-1.9,2.6-3.9,6.2-6.5,5.7
						c-2.7,6.3-4,13.6-3.9,20.9c9.8-3.4,16.3-15.7,22-27.2c1.3-2.6,2.6-5.3,2.9-8.5c0.6-7.3-4.5-12.9-6.7-19.6
						c-2.5-7.5-0.9-15.4-0.9-23.3c0.1-5-4.2-20.1-3.3-23.2c0.8-2.6,5.6-5.8,7.5-3.5c1.7,2-4.4,16.2-4.8,20.1
						C1709.8,928.1,1714,918.2,1719.1,921.2"/>
				</g>
			</g>
		</g>
	</g>
</g>
<g id="Artwork_24">
	<g>
		<defs>
			<rect id="SVGID_00000119817621355485121820000008640570213424014473_" x="1671" y="691" width="47.7" height="97.2"/>
		</defs>
		<clipPath id="SVGID_00000120561089944110371810000005542531025565755309_">
			<use xlink:href="#SVGID_00000119817621355485121820000008640570213424014473_"  style="overflow:visible;"/>
		</clipPath>
		<g style="clip-path:url(#SVGID_00000120561089944110371810000005542531025565755309_);">
			<g>
				<defs>
					<rect id="SVGID_00000062879284129719475640000017454971693839472525_" x="1671" y="691" width="47.7" height="97.2"/>
				</defs>
				<clipPath id="SVGID_00000049223299708647247830000008163922402489762221_">
					<use xlink:href="#SVGID_00000062879284129719475640000017454971693839472525_"  style="overflow:visible;"/>
				</clipPath>
				<g style="clip-path:url(#SVGID_00000049223299708647247830000008163922402489762221_);">
					<path d="M1678.5,717.2c11.1,0.2,22.3-0.9,33.2-3.2c1.2-0.3,2.5-0.5,3.7-0.2c4.1,1,3.9,7,2.1,10.8
						c-8.3,18.1-28.5,27.3-41.1,42.7c-2.7,3.3-5.1,7.1-5.4,11.4s2.5,8.9,6.8,9.5c4.6,0.6,8.5-3.6,10.1-8c1.6-4.4,1.8-9.2,3.7-13.4
						c1.7-3.6,4.5-6.5,6.5-9.9c10.6-18-2.5-45.8-0.5-65.8C1690.5,698.4,1684.5,708.6,1678.5,717.2"/>
				</g>
			</g>
		</g>
	</g>
</g>
<path class="st14" d="M1290.2,1050.8c1.4-12.3,2.8-24.6,4.2-36.9c5.7-1.5,13-2.3,16.2,2.5c1,1.6,1.4,3.5,1.7,5.3
	c0.6,4,0.9,8.2,0.8,12.3c-0.1,5.9-1.2,12.1-5,16.5c-3.8,4.4-11.2,6.2-15.7,2.3"/>
<path class="st14" d="M1321.7,1046.6c1.5-9.7,3.1-19.5,4.6-29.2c3.5-1.4,7.4,1.5,8.6,5.1c1.2,3.6,0.3,7.4-0.5,11.1
	c-1.3,5.7-2.7,11.3-4,17c-0.4-1.3-0.8-2.7-1.2-4.1c-2.7,0.9-5.3,1.9-8,2.8c-1.5-1.2,0-4.2,1.9-3.7"/>
<path class="st14" d="M1522,1047l-1.6-33.4c5.2,2,12.9-0.3,15.2,4.8c0.7,1.5,0.6,3.1,0.4,4.7c-3.8,51.8-19.1,2-42.1,22.7
	c3.4,3,8.1,3.5,12.5,1.3c-3.7,1.7-8.1,1.8-11.6-0.6c-0.9-0.6-2-1.3-2.8-0.6s1.3,1.7,0.9,0.7"/>
<path class="st14" d="M1139.2,750c-3.6-1.7-5.1-7-2.5-10c2.5-3.1,8.4-2.3,9.7,1.5s-3.4,8.1-6.9,6.2c2.5,1,2.1,5.4-0.5,6
	c-1-5.7-0.2-11.7,2.3-16.9c0,3.8,0.1,7.7,0.1,11.6c0,0.8-0.1,1.7-0.8,1.9s-1.2-1.2-0.4-1.1"/>
<path class="st14" d="M1223,745.7c0.1,1.3,0.2,2.7,0.3,4c6.8-0.1,12-8.6,8.9-14.7c-1.3,7-2.1,14-2.6,21.1c0.4,0.2-0.5,0.6-0.5,0.2
	s0.4-0.7,0.7-1c3-2,2.4-7-0.2-9.4s-6.5-3-10.1-3.5c-1.7,12.1,0.6,24.7,6.5,35.4c2.1-7.3,2.9-15,2.6-22.6c-3.7-1.2-7.4-2.5-11-3.7
	c5.6,1.8,11.6,2,17.2,0.8c-0.9-2.7-5.3-3-6.7-0.5c2.6-1.7,0.3-6-2.7-6.9s-6.3-0.1-9.2-1.4c1.2,2.6,4.4,4.1,7.2,3.4s4.9-3.5,4.8-6.3
	c0.6,2.4,0,5.1-1.4,7.2c-1.3-1.2-3.8-0.8-4.6,0.8c4.2-0.5,7.2-5.3,5.8-9.3c-3.2-0.8-6.3,3.3-4.8,6.2c3.4,0.4,7,0.8,10.1-0.8
	c3.1-1.5,5-5.8,2.9-8.5c-2.7,4.6-5.4,9.3-8.1,13.9c0.1-1.2-0.7-2.5-1.8-3c2.5-1.8,4.2-4.6,4.5-7.6c-0.9,1.6-1.9,3.2-2.8,4.8"/>
<path class="st14" d="M1142.5,748.3c-0.1,4.1-1.3,8.2-3.4,11.8c-2.4-4.8-3.8-10-4.2-15.4c3,4.2,4.4,9.5,3.8,14.7
	c-0.7-4.6,0.9-9.5,4.1-12.9c-0.8,3.5,0.9,7.1,1.5,10.7c0.6,3.6-1.1,8.3-4.7,8.4c-2.6,0.1-4.6-2.4-5.5-4.9c-0.8-2.4-0.9-5.2,0.4-7.3
	s4.4-3.3,6.5-1.9c0.5,1.9,0.5,4-0.1,5.9c-1.7-4.8-1.5-10.2,0.5-14.9c-2.7,5.5-4.2,11.6-4.2,17.7"/>
<path class="st1" d="M613.9,365.6l-17.7-53.6h12.8l7.9,25.8c0.4,1.5,0.9,3.1,1.3,4.9c0.4,1.8,0.8,3.5,1.2,5.2
	c0.4,1.6,0.8,3.5,1.2,5.7h0.1c0.4-2.1,0.8-4,1.1-5.7c0.3-1.6,0.7-3.4,1.2-5.2c0.4-1.8,0.9-3.5,1.3-4.9l7.8-25.8h12.4l-17.7,53.6
	H613.9L613.9,365.6z"/>
<path class="st1" d="M648.9,321.6v-9.9h11.5v9.9H648.9z M649,365.6V327h11.3v38.7L649,365.6L649,365.6z"/>
<path class="st1" d="M667.9,365.6v-53.6h11.4v53.6H667.9z"/>
<path class="st1" d="M718.8,366.7c-3.3,0-6.2-0.8-8.7-2.5s-4.4-4-5.7-7s-2-6.7-2-10.9c0-3.9,0.7-7.4,2.1-10.4s3.3-5.4,5.8-7.2
	s5.4-2.6,8.7-2.6c1.8,0,3.3,0.3,4.7,0.8c1.4,0.5,2.6,1.2,3.7,2.2s2.1,2.1,2.9,3.4h0.1c-0.1-1.2-0.1-2.6-0.2-4.1
	c-0.1-1.5-0.1-3.1-0.1-4.8v-11.5h11.3v53.6h-10.9v-5.8h-0.1c-1.1,2.3-2.7,4.1-4.7,5.2S721.5,366.7,718.8,366.7L718.8,366.7z
	 M721.9,357.6c1.8,0,3.4-0.5,4.7-1.4s2.3-2.3,3-4s1-3.7,1-5.9s-0.3-4.2-1-6s-1.6-3.1-2.9-4.1c-1.3-1-2.9-1.5-4.8-1.5
	c-1.8,0-3.2,0.5-4.4,1.5c-1.2,1-2.1,2.4-2.7,4.1s-0.9,3.8-0.9,6s0.3,4.3,0.9,6c0.6,1.7,1.5,3,2.7,4
	C718.7,357.1,720.1,357.6,721.9,357.6L721.9,357.6z"/>
<path class="st1" d="M762,366.7c-2.9,0-5.4-0.6-7.4-1.8c-2-1.2-3.5-2.8-4.6-5c-1-2.1-1.6-4.6-1.6-7.5V327h11.4v23.4
	c0,2.1,0.5,3.8,1.5,5c1,1.2,2.6,1.8,4.6,1.8c1.5,0,2.8-0.4,4-1.1c1.1-0.7,2-1.7,2.6-2.9c0.6-1.2,0.9-2.7,0.9-4.2V327h11.2v38.7
	h-10.8v-5.5h-0.2c-0.9,1.5-2,2.7-3.1,3.7c-1.1,1-2.4,1.7-3.8,2.2S763.8,366.7,762,366.7L762,366.7z"/>
<path class="st1" d="M809.5,365.6v-53.6h11.3V329c0,1.3,0,2.5-0.1,3.8h0.2c0.8-1.4,1.7-2.6,2.8-3.5c1.1-1,2.4-1.7,3.8-2.2
	c1.5-0.5,3.1-0.8,4.8-0.8c2.8,0,5.2,0.6,7.2,1.8s3.5,2.8,4.5,4.9s1.6,4.6,1.6,7.5v25.2h-11.2v-23c0-2.1-0.5-3.8-1.6-5.1
	s-2.7-1.9-4.8-1.9c-1.5,0-2.7,0.4-3.8,1.1s-2,1.7-2.6,3c-0.6,1.3-0.9,2.7-0.9,4.4v21.6L809.5,365.6L809.5,365.6z"/>
<path class="st1" d="M853,379c-1,0-2.1,0-3.3-0.2s-2.2-0.2-3.1-0.4v-8.1c0.4,0,0.8,0,1.2,0.1s0.9,0,1.5,0c0.9,0,1.6-0.1,2.1-0.4
	c0.5-0.3,1-0.7,1.2-1.3c0.3-0.6,0.4-1.4,0.4-2.3V327h11.3v39.9c0,2.4-0.3,4.4-0.8,5.8c-0.5,1.4-1.2,2.5-2.1,3.5
	c-1,1-2.3,1.8-3.7,2.2S854.8,379,853,379L853,379z M852.9,321.6v-9.9h11.5v9.9H852.9z"/>
<path class="st1" d="M884.8,366.7c-4.6,0-8.2-1-10.8-3s-3.9-4.9-3.9-8.6c0-2.8,0.7-5,2-6.5s3.1-2.7,5.3-3.5s4.8-1.3,7.6-1.7
	c2.3-0.3,4.1-0.6,5.6-1c1.4-0.4,2.5-0.9,3.2-1.5s1-1.4,1-2.4c0-1.4-0.5-2.5-1.4-3.3s-2.4-1.3-4.3-1.3c-2.2,0-3.8,0.5-4.8,1.4
	c-1.1,0.9-1.7,2.1-1.8,3.7h-10.4c0.1-2.2,0.8-4.2,2-6.2c1.2-1.9,3.1-3.5,5.6-4.7c2.5-1.2,5.6-1.8,9.4-1.8c2.9,0,5.5,0.4,7.9,1.2
	c2.3,0.8,4.1,2,5.3,3.5h0.1c1.3-1.5,2.9-2.6,5-3.4s4.4-1.2,7.1-1.2s5.1,0.4,7.1,1.2c2,0.8,3.9,2,5.6,3.6c2.3,2.1,3.9,4.7,4.8,7.9
	s1.4,6.7,1.3,10.4H906c0.2,1.9,0.7,3.6,1.4,4.9c0.7,1.4,1.7,2.4,3,3.2s2.8,1.1,4.6,1.1s3.1-0.3,4.2-1c1-0.7,1.9-1.6,2.5-2.7h11
	c-0.6,2.2-1.7,4.3-3.3,6.1s-3.5,3.2-5.9,4.2c-2.4,1-5.2,1.5-8.5,1.5c-3.5,0-6.5-0.6-9-1.9s-4.4-3-5.8-5.2H900
	c-1,1.6-2.2,2.9-3.7,3.9c-1.5,1-3.2,1.9-5.1,2.4C889.3,366.4,887.2,366.7,884.8,366.7L884.8,366.7z M886.9,359.2
	c1.7,0,3.2-0.3,4.4-1c1.2-0.6,2.2-1.5,2.9-2.6c0.7-1.1,1-2.4,1-3.7v-5c-0.5,0.3-1.2,0.6-1.9,0.9c-0.7,0.2-1.5,0.5-2.3,0.7
	c-0.8,0.2-1.6,0.4-2.5,0.6c-1.7,0.4-3,0.8-4.1,1.2s-1.9,1-2.4,1.7c-0.5,0.7-0.8,1.6-0.8,2.7s0.2,2,0.8,2.6c0.5,0.7,1.2,1.1,2,1.4
	S885.9,359.2,886.9,359.2z M906.1,342.8h15.7c-0.1-1.8-0.5-3.3-1.1-4.6s-1.5-2.3-2.6-3s-2.3-1-3.8-1c-1.7,0-3.1,0.4-4.2,1
	s-2,1.7-2.6,3C906.8,339.5,906.3,341,906.1,342.8L906.1,342.8z"/>
<path class="st1" d="M939.2,365.6v-53.6h11.4v53.6H939.2z"/>
<path class="st1" d="M957.8,378.4V327h11v5.5h0.2c0.9-1.5,1.9-2.7,3-3.7c1.2-1,2.5-1.7,3.9-2.2s3.1-0.7,4.8-0.7
	c3.4,0,6.3,0.9,8.8,2.6s4.4,4.1,5.8,7.2s2,6.6,2,10.5c0,4.1-0.7,7.8-2.1,10.8s-3.4,5.4-5.9,7.1c-2.5,1.7-5.5,2.5-9,2.5
	c-2.5,0-4.8-0.5-6.8-1.6s-3.5-2.5-4.6-4.4h-0.1c0.1,0.7,0.2,1.8,0.2,3.2c0.1,1.4,0.1,3.1,0.1,5.2v9.3L957.8,378.4L957.8,378.4z
	 M977.7,357.8c1.7,0,3.2-0.5,4.4-1.4c1.2-0.9,2.1-2.2,2.8-3.9c0.6-1.7,1-3.7,1-5.9s-0.3-4.3-0.9-6c-0.6-1.7-1.5-3.1-2.7-4.1
	c-1.2-1-2.8-1.5-4.6-1.5c-2,0-3.6,0.5-4.8,1.5s-2.2,2.4-2.9,4.2s-1,3.7-1,5.9s0.3,4.1,1,5.8s1.7,3,3,4S975.8,357.8,977.7,357.8
	L977.7,357.8z"/>
<path class="st1" d="M1021.5,366.7c-4.2,0-7.8-0.9-10.8-2.7c-3-1.8-5.4-4.2-7-7.3s-2.4-6.5-2.4-10.3s0.8-7.3,2.5-10.4
	c1.7-3.1,4-5.5,6.9-7.3c3-1.8,6.4-2.7,10.2-2.7c2.7,0,5.2,0.4,7.5,1.3c2.2,0.9,4.1,2.1,5.7,3.6c2.2,2.1,3.7,4.7,4.8,7.8
	c1,3.1,1.5,6.6,1.4,10.4h-27.9c0.2,1.9,0.7,3.6,1.5,4.9s1.8,2.4,3.1,3.2s2.9,1.1,4.7,1.1s3.2-0.3,4.4-1c1.2-0.7,2-1.6,2.6-2.7h10.9
	c-0.6,2.2-1.8,4.3-3.3,6.1c-1.6,1.8-3.6,3.2-6.1,4.3C1027.6,366.1,1024.8,366.7,1021.5,366.7L1021.5,366.7z M1012.4,342.7h16.4
	c-0.1-1.8-0.5-3.3-1.2-4.6s-1.6-2.3-2.7-3s-2.4-1-3.9-1c-1.7,0-3.2,0.4-4.3,1c-1.2,0.7-2.1,1.7-2.8,3
	C1013.1,339.4,1012.6,340.9,1012.4,342.7L1012.4,342.7z"/>
<path class="st1" d="M1063.3,365.6v-53.6h11.3v16.4c0,2.8,0,5.3-0.1,7.4s-0.2,3.8-0.2,5l12.7-13.9h13.2l-13.8,14.3l15.4,24.3h-13.2
	l-10.1-16.8l-3.8,4v12.8L1063.3,365.6L1063.3,365.6z"/>
<path class="st1" d="M1115.9,366.7c-2.5,0-4.8-0.4-6.7-1.3s-3.5-2.2-4.7-3.9s-1.7-3.9-1.7-6.4c0-2.8,0.7-5,2-6.6
	c1.3-1.6,3.2-2.7,5.4-3.5s4.8-1.3,7.6-1.6c2.3-0.3,4.2-0.6,5.6-1s2.5-0.9,3.1-1.5c0.7-0.6,1-1.4,1-2.4c0-1.4-0.5-2.5-1.4-3.3
	s-2.4-1.3-4.3-1.3c-2.2,0-3.8,0.5-4.8,1.4s-1.7,2.1-1.8,3.7h-10.4c0.1-2.2,0.8-4.2,2-6.2s3.1-3.5,5.6-4.7s5.6-1.8,9.4-1.8
	c2.4,0,4.6,0.2,6.3,0.5c1.8,0.4,3.3,0.9,4.7,1.7c2,1.1,3.5,2.7,4.4,4.6c0.9,2,1.4,4.2,1.4,6.8v19.6c0,1.5,0.1,2.7,0.3,3.5
	s0.6,1.5,1.1,1.8v0.6h-11c-0.3-0.4-0.6-1.1-0.8-1.9c-0.2-0.8-0.4-1.7-0.5-2.8h-0.1c-1.3,1.8-2.8,3.1-4.5,4.2
	S1118.8,366.7,1115.9,366.7L1115.9,366.7z M1119.4,359.2c1.7,0,3.2-0.3,4.4-1c1.2-0.6,2.2-1.5,2.9-2.6c0.7-1.1,1-2.4,1-3.7v-5
	c-0.5,0.3-1.2,0.6-1.9,0.9s-1.5,0.5-2.3,0.7s-1.6,0.4-2.5,0.6c-1.7,0.4-3,0.8-4.1,1.2s-1.9,1-2.4,1.7c-0.5,0.7-0.8,1.6-0.8,2.7
	s0.2,2,0.8,2.6s1.2,1.1,2,1.4S1118.4,359.2,1119.4,359.2z"/>
<path class="st1" d="M1161.4,366.1c-2.4,0-4.5-0.3-6.3-0.9s-3.2-1.6-4.2-3.1s-1.5-3.5-1.5-6.1v-21.7h-5.8V327h5.8v-12.3h11.1V327
	h7.6v7.3h-7.6v19.2c0,1.4,0.4,2.4,1.1,2.9c0.8,0.5,1.8,0.8,3.2,0.8c0.4,0,0.8,0,1.3,0s0.9-0.1,1.3-0.1h0.6v8.5
	c-0.6,0.1-1.5,0.2-2.6,0.4S1162.9,366.1,1161.4,366.1L1161.4,366.1z"/>
<path class="st1" d="M1189.1,366.1c-2.4,0-4.5-0.3-6.3-0.9s-3.2-1.6-4.2-3.1s-1.5-3.5-1.5-6.1v-21.7h-5.8V327h5.8v-12.3h11.1V327
	h7.6v7.3h-7.6v19.2c0,1.4,0.4,2.4,1.1,2.9c0.8,0.5,1.8,0.8,3.2,0.8c0.4,0,0.8,0,1.3,0s0.9-0.1,1.3-0.1h0.6v8.5
	c-0.6,0.1-1.5,0.2-2.6,0.4S1190.6,366.1,1189.1,366.1L1189.1,366.1z"/>
<path class="st1" d="M1219.9,366.7c-4.2,0-7.8-0.9-10.8-2.7s-5.4-4.2-7-7.3s-2.4-6.5-2.4-10.3s0.8-7.3,2.5-10.4s4-5.5,6.9-7.3
	c2.9-1.8,6.4-2.7,10.2-2.7c2.7,0,5.2,0.4,7.4,1.3c2.2,0.9,4.1,2.1,5.7,3.6c2.2,2.1,3.7,4.7,4.8,7.8c1,3.1,1.5,6.6,1.4,10.4h-27.9
	c0.2,1.9,0.7,3.6,1.5,4.9s1.8,2.4,3.1,3.2s2.9,1.1,4.7,1.1s3.2-0.3,4.4-1c1.2-0.7,2-1.6,2.6-2.7h10.9c-0.6,2.2-1.8,4.3-3.3,6.1
	c-1.6,1.8-3.6,3.2-6.1,4.3S1223.2,366.7,1219.9,366.7L1219.9,366.7z M1210.8,342.7h16.3c-0.1-1.8-0.5-3.3-1.2-4.6s-1.6-2.3-2.7-3
	s-2.4-1-3.9-1c-1.7,0-3.2,0.4-4.3,1s-2.1,1.7-2.8,3S1211.1,340.9,1210.8,342.7L1210.8,342.7z"/>
<path class="st1" d="M1244,365.6V327h11v5.9h0.2c0.8-1.6,1.8-2.9,3-3.9s2.5-1.8,4-2.3c1.5-0.5,3.2-0.8,5-0.8c2.8,0,5.2,0.6,7.2,1.8
	s3.5,2.8,4.6,5s1.6,4.7,1.6,7.5v25.5h-11.4v-23.2c0-2.1-0.6-3.8-1.7-5.1s-2.7-2-4.8-2c-1.5,0-2.8,0.4-3.9,1.1s-2,1.7-2.6,3
	s-0.9,2.8-0.9,4.4v21.8L1244,365.6L1244,365.6z"/>
<path class="st1" d="M1297.4,347c0-2,0.2-3.7,0.5-5.1c0.4-1.4,0.9-2.7,1.7-3.8c0.8-1.1,1.8-2.2,3.2-3.3c0.8-0.7,1.7-1.4,2.6-2
	c0.9-0.6,1.7-1.3,2.5-1.9c0.8-0.7,1.4-1.4,1.9-2.2s0.7-1.7,0.7-2.7c0-1.1-0.3-2.1-0.9-2.9s-1.4-1.4-2.4-1.9c-1-0.4-2.2-0.6-3.6-0.6
	c-1.6,0-3,0.4-4.3,1s-2.2,1.6-2.9,2.8s-1,2.5-1.1,4h-11.2c0.1-3.2,0.9-6.1,2.5-8.7s3.8-4.7,6.8-6.2c2.9-1.5,6.5-2.3,10.6-2.3
	c3.8,0,7,0.6,9.7,1.8s4.8,2.9,6.3,5c1.5,2.2,2.2,4.7,2.2,7.6c0,1.8-0.3,3.4-0.8,4.8c-0.5,1.4-1.2,2.6-2,3.6c-0.8,1-1.6,1.9-2.5,2.5
	c-1.3,1-2.5,1.9-3.6,2.6s-1.9,1.3-2.7,1.8c-0.7,0.5-1.4,1-1.9,1.6c-0.6,0.6-1,1.3-1.2,1.9c-0.2,0.6-0.3,1.5-0.3,2.5L1297.4,347
	L1297.4,347z M1296.3,365.6v-11.8h11.9v11.8H1296.3z"/>
<rect x="46.5" y="50.5" class="st15" width="104" height="104"/>
<path d="M150,51v103H47V51H150 M151,50H46v105h105V50L151,50z"/>
<path class="st1" d="M103.1,72.3h21.8v1c-2.8,0.2-5.5,1.1-8.1,2.8c-2.6,1.7-4.9,3.6-7,5.7l-9.3,9.6l21.4,26c2.9,3.6,5.7,5.4,8.3,5.6
	v1H106v-1c0.8-0.1,1.6-0.3,2.1-0.5c0.6-0.3,0.9-0.7,0.9-1.4s-0.5-1.6-1.4-2.7l-16-19.7h-0.2v17.7c0,2.4,0.5,4.1,1.5,5.2
	s2.6,1.5,4.9,1.5v1H73.4v-1c2.7,0,4.5-0.6,5.2-1.8c0.8-1.2,1.2-2.8,1.2-4.8V80c0-2.3-0.4-4.1-1.3-5.2c-0.9-1.1-2.6-1.6-5-1.6v-0.9
	h24.3v1c-2.7,0-4.4,0.6-5.2,1.8c-0.8,1.2-1.2,2.8-1.2,4.9v16.9l15.3-16.1c1.5-1.8,2.3-3.2,2.3-4.4c0-2.1-2-3.1-5.9-3.1L103.1,72.3
	L103.1,72.3z"/>
<path class="st58" d="M1025.5,734c-21,1.5-41.5,8.7-58.8,20.5c3.3-2.3,19.5-0.3,24.6-1.2c8.7-1.5,17.2-4.3,25.7-6.7
	c14.6-4.2,28.8-7.7,44.1-7.7C1050.2,734.1,1037.3,733.1,1025.5,734L1025.5,734z"/>
<path class="st59" d="M1023.5,773.9c-10.2,11.6-11.9,29.7-24.3,39c2.6,1.3,5.8,0.1,7.8-1.9c2-2.1,3.1-4.8,4.2-7.5
	c3.8-9.2,8.5-18,14-26.2c2.5-3.7,5.2-7.3,8.7-10c7.9-6,18.5-6.5,28.4-6.3c11.6,0.2,23.1,1.8,34.6,2.2
	C1074.5,757.3,1040.2,754.9,1023.5,773.9L1023.5,773.9z"/>
<path class="st58" d="M1071.7,791c-2.1,2.3-3.5,5.2-5,8c-8.3,16.3-16.6,32.8-20.8,50.6c-2,8.4-3,17.1-2.1,25.7
	c3.6-18.2,9.7-35.8,18.2-52.3c2-3.9,4.2-7.7,7.3-10.8c4.2-4.1,9.6-6.4,14.4-9.7C1107.2,786.1,1086.5,774.3,1071.7,791L1071.7,791z"
	/>
<path d="M1269.4,781.7c-6.8-9.6-1.6-15.8,4.4-23c1.7-2,3.5-4.2,5-6.5c2.1-3.1,3.8-6.5,5.5-9.9c3.7-7.4,7.6-15,15.2-19
	c3.7-2,7.9-2.8,12-3.5c7.2-1.4,15.5-2.9,23.5-2.9c4.2,0,7.9,0.4,11.4,1.2l-31.1,8.2c-4.7,1.2-9.5,2.5-13.7,5.2
	c-5.6,3.7-9.4,9.5-13.1,15.6c-3.3,5.6-6.5,11.4-9.6,17.1C1276,770,1272.8,776,1269.4,781.7L1269.4,781.7z"/>
<path d="M1335.1,716.4v1c3.3,0,6.4,0.3,9.3,0.8l-12.8,3.4l-16.2,4.3c-4.7,1.2-9.6,2.5-13.8,5.3c-5.7,3.7-9.5,9.6-13.2,15.8
	c-3.3,5.6-6.5,11.5-9.6,17.1c-3,5.5-6.1,11.3-9.4,16.8c-5.9-8.9-1.2-14.6,4.8-21.7c1.7-2.1,3.5-4.2,5.1-6.5c2.1-3.1,3.9-6.6,5.6-9.9
	c3.7-7.3,7.5-14.8,15-18.8c3.7-1.9,7.8-2.7,11.9-3.5c7.2-1.4,15.4-2.9,23.4-2.9L1335.1,716.4 M1335.1,716.4
	c-7.9,0-15.9,1.5-23.6,2.9c-4.2,0.8-8.4,1.6-12.2,3.6c-11.3,5.9-14.3,19.2-20.9,29c-7,10.4-18.7,17.5-8.9,30.6
	c6.9-11.4,12.9-23.6,19.8-35.2c3.5-5.8,7.2-11.8,12.9-15.4c4.1-2.6,8.8-3.9,13.5-5.1c11-2.9,21.9-5.8,32.9-8.7
	C1344.1,716.9,1339.6,716.4,1335.1,716.4L1335.1,716.4L1335.1,716.4z"/>
<path d="M1278.7,800.6c-3.5-9,9.3-21.2,15.5-27.1l0.1-0.1c15.4-14.7,38.1-19.2,56.7-22.8c-2.4,3.6-7,5.9-13.9,7.1
	c-0.9,0.2-1.9,0.3-2.8,0.5c-4.9,0.8-10,1.6-14.1,4.5c-3.3,2.4-5.5,5.8-7.7,9.2c-0.4,0.7-0.8,1.3-1.3,1.9
	C1304,784.5,1291.8,797.1,1278.7,800.6L1278.7,800.6z"/>
<path d="M1349.8,751.3c-2.5,2.9-6.7,4.8-12.8,5.9c-0.9,0.2-1.9,0.3-2.8,0.5c-5,0.8-10.1,1.6-14.3,4.6c-3.4,2.4-5.7,5.9-7.8,9.3
	c-0.4,0.7-0.8,1.3-1.3,1.9c-7,10.5-19,22.9-31.7,26.5c-2.8-8.7,9.5-20.4,15.5-26.1l0.1-0.1C1309.5,759.5,1331.5,754.9,1349.8,751.3
	 M1352,749.9c-20.8,4-42.8,8.6-58,23.2c-6.3,6-19.7,18.8-15.5,28.2c13.3-3.3,25.7-15.9,33.2-27.1c2.6-3.9,5-8.2,8.9-11
	c4.8-3.4,10.9-3.9,16.7-4.9C1342.9,757.2,1349.2,755.1,1352,749.9L1352,749.9z"/>
<path d="M1325.2,834.6c-19.5-4.4-39.3-7.7-58.5-10.8c2-3.8,7.2-5.8,15.4-5.8c7.4,0,15.3,1.6,18.3,2.3c6.9,1.6,13.6,4.6,20,7.6
	c7.2,3.3,14.7,6.7,22.7,8.1l0.9,0.2c4.6,0.8,9.8,1.7,11.8,5.4L1325.2,834.6L1325.2,834.6z"/>
<path d="M1282.1,818.4L1282.1,818.4c7.4,0,15.2,1.6,18.2,2.3c6.9,1.6,13.5,4.6,19.9,7.5c7.3,3.3,14.8,6.7,22.8,8.2l0.9,0.2
	c4,0.7,8.4,1.5,10.7,4.1l-5.4-1.2l-23.9-5.4c-19.2-4.3-38.8-7.6-57.8-10.7C1269.6,820.1,1274.5,818.4,1282.1,818.4 M1282.1,817.4
	c-7.3,0-14,1.5-16.2,6.7c19.8,3.3,39.5,6.5,59.2,11c10.5,2.4,21.1,4.8,31.6,7.2c-1.9-4.9-8.3-5.8-13.5-6.8
	c-14.9-2.7-27.9-12.2-42.7-15.7C1296.3,818.8,1289,817.4,1282.1,817.4L1282.1,817.4L1282.1,817.4z"/>
</svg>
